{"glyphs":{"0":{"ha":553,"x_min":58,"x_max":493,"o":"m 276 -17 q 165 10 214 -17 q 87 94 115 36 q 58 243 58 151 l 58 592 q 122 774 58 715 q 279 832 185 832 q 432 773 371 832 q 493 592 493 714 l 493 243 q 465 92 493 150 q 388 9 438 35 q 276 -17 339 -17 m 276 49 q 356 86 325 49 q 388 194 388 124 l 388 618 q 355 726 388 689 q 276 764 322 764 q 197 726 229 764 q 165 618 165 689 l 165 194 q 197 86 165 124 q 276 49 229 49 z "},"1":{"ha":346,"x_min":25,"x_max":267,"o":"m 160 0 l 160 676 l 25 676 l 25 739 l 86 739 q 144 760 125 742 q 175 821 163 778 l 267 821 l 267 0 l 160 0 z "},"2":{"ha":526,"x_min":51,"x_max":489,"o":"m 51 0 q 51 80 51 40 q 51 160 51 119 q 72 272 51 231 q 130 341 92 314 q 225 396 168 368 q 306 447 274 419 q 354 513 338 474 q 371 611 371 553 q 348 711 372 676 q 267 746 324 746 q 187 711 214 746 q 160 604 160 676 l 160 539 l 53 539 l 53 629 q 108 777 53 729 q 268 825 164 825 q 394 801 347 825 q 463 729 442 778 q 483 606 483 681 q 447 449 483 511 q 335 344 411 386 q 260 306 294 326 q 203 259 226 286 q 175 190 181 232 q 166 142 169 167 q 163 89 163 117 l 489 89 l 489 0 l 51 0 z "},"3":{"ha":539,"x_min":44,"x_max":488,"o":"m 265 -10 q 139 16 188 -10 q 67 88 90 42 q 44 193 44 133 l 44 279 l 154 279 l 154 214 q 181 108 154 146 q 264 68 208 69 q 346 103 317 68 q 375 197 375 139 l 375 275 q 338 361 375 332 q 235 392 300 390 l 157 392 l 157 457 l 235 457 q 294 467 267 457 q 338 497 321 478 q 363 534 356 514 q 369 578 369 554 l 369 628 q 345 713 369 678 q 264 747 321 747 q 183 710 207 747 q 158 613 158 672 l 158 568 l 49 568 l 49 633 q 101 775 49 725 q 265 825 154 825 q 432 778 381 825 q 483 640 483 731 l 483 593 q 447 478 483 521 q 350 421 411 435 q 452 367 417 413 q 488 250 488 321 l 488 193 q 466 85 488 131 q 396 15 444 39 q 265 -10 347 -10 z "},"4":{"ha":511,"x_min":18,"x_max":489,"o":"m 300 0 l 300 164 l 18 164 l 18 249 l 308 821 l 407 821 l 407 238 l 489 238 l 489 164 l 407 164 l 407 0 l 300 0 m 108 238 l 300 238 l 300 621 l 108 238 z "},"5":{"ha":544,"x_min":51,"x_max":493,"o":"m 274 -11 q 148 7 197 -11 q 75 73 99 25 q 51 210 51 121 l 51 263 l 160 263 l 160 219 q 186 103 160 136 q 275 69 213 69 q 358 108 333 69 q 382 224 382 146 l 382 346 q 374 415 382 383 q 341 465 365 447 q 272 483 317 483 q 199 460 228 483 q 161 396 169 436 l 56 396 l 56 821 l 471 821 l 471 740 l 163 740 l 163 489 q 216 538 181 519 q 310 557 251 557 q 447 516 401 557 q 493 369 493 475 l 493 214 q 466 74 493 122 q 390 7 439 25 q 274 -11 340 -11 z "},"6":{"ha":551,"x_min":58,"x_max":497,"o":"m 275 -14 q 152 13 200 -14 q 81 88 104 39 q 58 203 58 138 l 58 626 q 119 775 58 724 q 278 826 179 826 q 434 779 379 826 q 489 631 489 732 l 489 578 l 382 578 l 382 644 q 355 730 382 703 q 278 757 328 757 q 197 724 226 757 q 167 640 167 692 l 167 440 q 231 495 190 476 q 318 514 271 514 q 446 469 394 514 q 497 346 497 425 l 497 192 q 473 85 497 132 q 400 13 449 39 q 275 -14 351 -14 m 278 53 q 358 83 326 53 q 389 178 389 114 l 389 331 q 356 415 389 388 q 276 443 322 442 q 199 416 231 443 q 167 343 168 389 l 167 178 q 197 85 167 117 q 278 53 226 54 z "},"7":{"ha":426,"x_min":15,"x_max":394,"o":"m 63 0 l 289 743 l 17 743 l 15 821 l 394 821 l 394 740 l 169 0 l 63 0 z "},"8":{"ha":542,"x_min":51,"x_max":490,"o":"m 272 -11 q 146 15 194 -11 q 74 87 97 40 q 51 194 51 133 l 51 244 q 60 322 51 286 q 93 382 69 357 q 135 413 108 399 q 200 431 161 426 q 141 447 163 435 q 100 476 119 458 q 69 536 78 500 q 60 614 60 572 l 60 643 q 80 744 60 703 q 147 805 100 785 q 272 825 194 825 q 397 805 350 825 q 464 744 443 785 q 485 643 485 703 l 485 614 q 471 528 485 565 q 428 466 457 490 q 353 431 399 442 q 423 407 396 425 q 465 363 450 389 q 485 307 479 338 q 490 243 490 276 l 490 193 q 469 92 490 138 q 400 17 447 46 q 272 -11 353 -11 m 271 54 q 351 85 322 54 q 381 169 381 115 l 381 269 q 352 351 381 321 q 271 383 324 382 q 189 351 218 383 q 160 268 160 318 l 160 169 q 188 87 160 118 q 271 54 217 56 m 271 468 q 345 501 314 468 q 376 589 376 533 l 376 646 q 351 729 376 694 q 271 764 326 764 q 190 728 214 764 q 165 647 165 693 l 165 590 q 180 525 165 553 q 218 483 194 497 q 271 468 242 468 z "},"9":{"ha":549,"x_min":51,"x_max":490,"o":"m 271 -14 q 115 33 169 -14 q 60 182 60 81 l 60 244 l 167 244 l 167 168 q 194 83 167 110 q 269 56 221 56 q 352 88 322 56 q 382 172 382 121 l 382 378 q 318 324 358 342 q 231 306 278 306 q 140 326 181 306 q 75 390 99 347 q 51 499 51 433 l 51 621 q 76 728 51 682 q 149 800 100 774 q 274 826 199 826 q 397 800 349 826 q 467 725 444 774 q 490 610 490 676 l 490 186 q 430 38 490 89 q 271 -14 369 -14 m 272 375 q 349 403 318 375 q 382 476 381 431 l 382 635 q 352 728 382 697 q 271 760 322 758 q 190 729 222 760 q 158 635 158 699 l 158 488 q 192 403 158 431 q 272 375 226 376 z "},"\r":{"ha":833,"x_min":0,"x_max":0,"o":""}," ":{"ha":250,"x_min":0,"x_max":0,"o":""}," ":{"ha":250,"x_min":0,"x_max":0,"o":""},"A":{"ha":524,"x_min":18,"x_max":506,"o":"m 18 0 l 190 821 l 335 821 l 506 0 l 388 0 l 349 181 l 168 181 l 132 0 l 18 0 m 172 236 l 346 236 l 260 704 l 172 236 z "},"А":{"ha":524,"x_min":18,"x_max":506,"o":"m 18 0 l 190 821 l 335 821 l 506 0 l 388 0 l 349 181 l 168 181 l 132 0 l 18 0 m 172 236 l 346 236 l 260 704 l 172 236 z "},"Æ":{"ha":742,"x_min":10,"x_max":710,"o":"m 10 0 l 281 821 l 694 821 l 694 744 l 431 744 l 433 469 l 667 469 l 667 386 l 435 386 l 439 75 l 710 75 l 710 0 l 322 0 l 321 181 l 182 181 l 124 0 l 10 0 m 192 236 l 328 236 l 336 682 l 338 704 l 333 685 l 192 236 z "},"Á":{"ha":524,"x_min":18,"x_max":506,"o":"m 18 0 l 190 821 l 335 821 l 506 0 l 388 0 l 349 181 l 168 181 l 132 0 l 18 0 m 172 236 l 346 236 l 260 704 l 172 236 m 190 881 l 301 1000 l 406 1000 l 256 881 l 190 881 z "},"Ă":{"ha":524,"x_min":18,"x_max":506,"o":"m 18 0 l 190 821 l 335 821 l 506 0 l 388 0 l 349 181 l 168 181 l 132 0 l 18 0 m 172 236 l 346 236 l 260 704 l 172 236 m 260 875 q 174 897 204 875 q 131 948 143 918 q 118 1003 119 978 l 179 1003 q 206 947 183 965 q 260 929 229 929 q 317 947 294 929 q 343 1003 339 964 l 404 1003 q 388 943 403 972 q 342 894 374 914 q 260 875 311 875 z "},"Ắ":{"ha":524,"x_min":18,"x_max":506,"o":"m 18 0 l 190 821 l 335 821 l 506 0 l 388 0 l 349 181 l 168 181 l 132 0 l 18 0 m 172 236 l 346 236 l 260 704 l 172 236 m 261 869 q 194 885 217 869 q 163 924 171 901 q 153 967 154 947 l 213 967 q 228 933 214 944 q 261 922 242 922 q 295 933 281 922 q 310 967 310 943 l 371 967 q 345 899 369 929 q 261 869 321 869 m 215 986 l 269 1083 l 372 1083 l 281 986 l 215 986 z "},"Ặ":{"ha":524,"x_min":18,"x_max":506,"o":"m 18 0 l 190 821 l 335 821 l 506 0 l 388 0 l 349 181 l 168 181 l 132 0 l 18 0 m 172 236 l 346 236 l 260 704 l 172 236 m 261 -158 q 224 -143 239 -158 q 210 -108 210 -128 q 224 -73 210 -87 q 261 -58 239 -58 q 298 -73 282 -58 q 314 -108 314 -87 q 298 -143 314 -128 q 261 -158 282 -158 m 260 875 q 174 897 204 875 q 131 948 143 918 q 118 1003 119 978 l 179 1003 q 206 947 183 965 q 260 929 229 929 q 317 947 294 929 q 343 1003 339 964 l 404 1003 q 388 943 403 972 q 342 894 374 914 q 260 875 311 875 z "},"Ằ":{"ha":524,"x_min":18,"x_max":506,"o":"m 18 0 l 190 821 l 335 821 l 506 0 l 388 0 l 349 181 l 168 181 l 132 0 l 18 0 m 172 236 l 346 236 l 260 704 l 172 236 m 261 869 q 194 885 217 869 q 163 924 171 901 q 154 967 154 947 l 213 967 q 229 933 215 943 q 261 922 243 922 q 296 933 282 922 q 311 967 310 943 l 371 967 q 344 899 369 929 q 261 869 319 869 m 247 986 l 156 1083 l 258 1083 l 314 986 l 247 986 z "},"Ẳ":{"ha":524,"x_min":18,"x_max":506,"o":"m 18 0 l 190 821 l 335 821 l 506 0 l 388 0 l 349 181 l 168 181 l 132 0 l 18 0 m 172 236 l 346 236 l 260 704 l 172 236 m 261 869 q 194 885 217 869 q 163 924 171 901 q 153 967 154 947 l 213 967 q 228 933 214 944 q 261 922 242 922 q 295 933 281 922 q 310 967 310 943 l 371 967 q 345 899 369 929 q 261 869 321 869 m 232 986 l 232 999 q 244 1022 232 1014 q 267 1035 256 1029 q 278 1053 278 1042 l 278 1058 q 272 1074 278 1068 q 254 1081 267 1081 q 240 1075 246 1081 q 232 1060 233 1069 l 186 1068 q 206 1107 189 1093 q 257 1121 224 1121 q 317 1107 300 1121 q 335 1060 335 1093 l 335 1056 q 324 1026 335 1035 q 301 1013 313 1018 q 289 997 289 1008 l 289 986 l 232 986 z "},"Ẵ":{"ha":524,"x_min":18,"x_max":506,"o":"m 18 0 l 190 821 l 335 821 l 506 0 l 388 0 l 349 181 l 168 181 l 132 0 l 18 0 m 172 236 l 346 236 l 260 704 l 172 236 m 260 869 q 192 885 215 869 q 161 924 169 901 q 151 967 153 947 l 211 967 q 228 933 214 944 q 260 922 242 922 q 294 933 281 922 q 310 967 308 943 l 369 967 q 344 899 369 929 q 260 869 318 869 m 306 989 q 280 994 292 989 q 251 1008 268 1000 q 233 1019 243 1014 q 210 1025 224 1025 q 192 1015 199 1025 q 183 990 185 1006 l 150 990 q 167 1050 151 1026 q 211 1074 183 1074 q 240 1069 226 1074 q 264 1057 253 1064 q 286 1045 276 1050 q 307 1040 296 1040 q 326 1048 319 1040 q 335 1072 333 1056 l 371 1072 q 361 1027 371 1046 q 337 999 351 1008 q 306 989 322 989 z "},"Ǎ":{"ha":524,"x_min":18,"x_max":506,"o":"m 18 0 l 190 821 l 335 821 l 506 0 l 388 0 l 349 181 l 168 181 l 132 0 l 18 0 m 172 236 l 346 236 l 260 704 l 172 236 m 228 875 l 106 994 l 178 994 l 263 925 l 347 994 l 418 994 l 294 875 l 228 875 z "},"Â":{"ha":524,"x_min":18,"x_max":506,"o":"m 18 0 l 190 821 l 335 821 l 506 0 l 388 0 l 349 181 l 168 181 l 132 0 l 18 0 m 172 236 l 346 236 l 260 704 l 172 236 m 101 875 l 229 1003 l 294 1003 l 422 875 l 353 875 l 263 953 l 174 875 l 101 875 z "},"Ấ":{"ha":524,"x_min":18,"x_max":540,"o":"m 18 0 l 190 821 l 335 821 l 506 0 l 388 0 l 349 181 l 168 181 l 132 0 l 18 0 m 172 236 l 346 236 l 260 704 l 172 236 m 140 869 l 232 971 l 292 971 l 383 869 l 319 869 l 263 924 l 207 869 l 140 869 m 382 935 l 438 1032 l 540 1032 l 449 935 l 382 935 z "},"Ậ":{"ha":524,"x_min":18,"x_max":506,"o":"m 18 0 l 190 821 l 335 821 l 506 0 l 388 0 l 349 181 l 168 181 l 132 0 l 18 0 m 172 236 l 346 236 l 260 704 l 172 236 m 261 -158 q 224 -143 239 -158 q 210 -108 210 -128 q 224 -73 210 -87 q 261 -58 239 -58 q 298 -73 282 -58 q 314 -108 314 -87 q 298 -143 314 -128 q 261 -158 282 -158 m 101 875 l 229 1003 l 294 1003 l 422 875 l 353 875 l 263 953 l 174 875 l 101 875 z "},"Ầ":{"ha":524,"x_min":18,"x_max":506,"o":"m 18 0 l 190 821 l 335 821 l 506 0 l 388 0 l 349 181 l 168 181 l 132 0 l 18 0 m 172 236 l 346 236 l 260 704 l 172 236 m 140 869 l 232 971 l 292 971 l 383 869 l 319 869 l 263 924 l 207 869 l 140 869 m 414 933 l 322 1031 l 425 1031 l 481 933 l 414 933 z "},"Ẩ":{"ha":524,"x_min":18,"x_max":506,"o":"m 18 0 l 190 821 l 335 821 l 506 0 l 388 0 l 349 181 l 168 181 l 132 0 l 18 0 m 172 236 l 346 236 l 260 704 l 172 236 m 140 869 l 232 971 l 292 971 l 383 869 l 319 869 l 263 924 l 207 869 l 140 869 m 394 931 l 394 944 q 406 965 394 958 q 428 979 417 972 q 439 997 439 986 l 439 1003 q 433 1019 439 1013 q 417 1025 428 1025 q 396 1004 400 1025 l 350 1013 q 370 1050 353 1036 q 421 1064 388 1064 q 479 1051 463 1064 q 496 1004 496 1039 l 496 1001 q 485 971 496 979 q 462 958 474 963 q 450 942 450 953 l 450 931 l 394 931 z "},"Ẫ":{"ha":524,"x_min":18,"x_max":506,"o":"m 18 0 l 190 821 l 335 821 l 506 0 l 388 0 l 349 181 l 168 181 l 132 0 l 18 0 m 172 236 l 346 236 l 260 704 l 172 236 m 140 869 l 232 971 l 292 971 l 383 869 l 319 869 l 263 924 l 207 869 l 140 869 m 307 993 q 280 999 292 993 q 256 1013 268 1004 q 234 1024 244 1018 q 213 1029 224 1029 q 192 1020 200 1029 q 182 994 183 1011 l 151 994 q 169 1055 153 1033 q 213 1076 186 1076 q 240 1073 226 1076 q 267 1060 253 1069 q 287 1049 276 1053 q 307 1044 297 1044 q 328 1053 321 1044 q 339 1075 336 1061 l 374 1075 q 362 1031 372 1050 q 337 1003 351 1013 q 307 993 322 993 z "},"Ä":{"ha":524,"x_min":18,"x_max":506,"o":"m 18 0 l 190 821 l 335 821 l 506 0 l 388 0 l 349 181 l 168 181 l 132 0 l 18 0 m 172 236 l 346 236 l 260 704 l 172 236 m 190 886 q 153 901 168 886 q 139 936 139 915 q 153 970 139 957 q 190 983 168 983 q 226 970 211 983 q 240 936 240 957 q 226 901 240 915 q 190 886 211 886 m 333 886 q 297 901 313 886 q 282 936 282 915 q 297 970 282 957 q 333 983 313 983 q 369 970 356 983 q 383 936 383 957 q 369 901 383 915 q 333 886 356 886 z "},"Ạ":{"ha":524,"x_min":18,"x_max":506,"o":"m 18 0 l 190 821 l 335 821 l 506 0 l 388 0 l 349 181 l 168 181 l 132 0 l 18 0 m 172 236 l 346 236 l 260 704 l 172 236 m 261 -158 q 224 -143 239 -158 q 210 -108 210 -128 q 224 -73 210 -87 q 261 -58 239 -58 q 298 -73 282 -58 q 314 -108 314 -87 q 298 -143 314 -128 q 261 -158 282 -158 z "},"À":{"ha":524,"x_min":18,"x_max":506,"o":"m 18 0 l 190 821 l 335 821 l 506 0 l 388 0 l 349 181 l 168 181 l 132 0 l 18 0 m 172 236 l 346 236 l 260 704 l 172 236 m 260 881 l 117 997 l 222 997 l 331 881 l 260 881 z "},"Ả":{"ha":524,"x_min":18,"x_max":506,"o":"m 18 0 l 190 821 l 335 821 l 506 0 l 388 0 l 349 181 l 168 181 l 132 0 l 18 0 m 172 236 l 346 236 l 260 704 l 172 236 m 229 871 l 229 892 q 245 922 229 911 q 276 941 261 932 q 292 968 292 950 l 292 975 q 283 999 292 988 q 256 1010 275 1010 q 224 978 229 1010 l 172 988 q 199 1036 176 1019 q 261 1053 221 1053 q 331 1037 308 1053 q 354 975 354 1021 l 354 972 q 338 929 354 942 q 304 910 321 917 q 288 886 288 903 l 288 871 l 229 871 z "},"Ā":{"ha":524,"x_min":18,"x_max":506,"o":"m 18 0 l 190 821 l 335 821 l 506 0 l 388 0 l 349 181 l 168 181 l 132 0 l 18 0 m 172 236 l 346 236 l 260 704 l 172 236 m 129 901 l 129 958 l 394 958 l 394 901 l 129 901 z "},"Ą":{"ha":524,"x_min":18,"x_max":532,"o":"m 18 0 l 190 821 l 335 821 l 506 0 l 388 0 l 349 181 l 168 181 l 132 0 l 18 0 m 172 236 l 346 236 l 260 704 l 172 236 m 458 -192 q 388 -167 417 -192 q 358 -108 358 -143 q 388 -39 358 -69 q 454 1 417 -8 l 504 0 q 448 -42 467 -15 q 429 -94 429 -68 q 447 -135 429 -121 q 483 -149 465 -149 q 503 -146 494 -149 q 517 -140 513 -143 l 532 -174 q 506 -185 524 -178 q 458 -192 489 -192 z "},"Å":{"ha":524,"x_min":18,"x_max":506,"o":"m 18 0 l 190 821 l 335 821 l 506 0 l 388 0 l 349 181 l 168 181 l 132 0 l 18 0 m 172 236 l 346 236 l 260 704 l 172 236 m 267 811 q 186 842 218 811 q 154 917 154 874 q 186 992 154 961 q 267 1024 218 1024 q 349 992 317 1024 q 381 917 381 961 q 347 842 381 874 q 267 811 313 811 m 267 858 q 313 875 296 858 q 329 917 329 892 q 313 960 329 944 q 267 976 296 976 q 222 960 239 976 q 206 917 206 944 q 222 875 206 892 q 267 858 239 858 z "},"Ã":{"ha":524,"x_min":18,"x_max":506,"o":"m 18 0 l 190 821 l 335 821 l 506 0 l 388 0 l 349 181 l 168 181 l 132 0 l 18 0 m 172 236 l 346 236 l 260 704 l 172 236 m 321 888 q 287 894 301 888 q 253 913 272 901 q 225 929 240 921 q 193 938 210 938 q 165 925 176 938 q 151 889 154 913 l 114 889 q 137 962 115 933 q 194 990 158 990 q 232 983 215 990 q 265 964 249 975 q 294 949 281 956 q 321 942 307 942 q 350 953 339 942 q 365 988 361 965 l 406 988 q 392 933 404 956 q 360 899 379 911 q 321 888 342 888 z "},"B":{"ha":569,"x_min":79,"x_max":510,"o":"m 79 0 l 79 821 l 343 821 q 457 787 414 821 q 500 683 500 753 l 500 586 q 489 517 500 547 q 458 469 478 488 q 413 444 439 451 q 368 436 388 438 l 368 438 q 419 431 394 438 q 463 408 444 425 q 497 358 485 389 q 510 286 510 328 l 510 169 q 487 63 510 100 q 424 13 464 26 q 328 0 383 0 l 79 0 m 188 60 l 307 60 q 357 68 336 60 q 390 102 378 76 q 401 176 401 128 l 401 285 q 372 369 401 349 q 296 390 342 390 l 188 390 l 188 60 m 188 460 l 293 460 q 369 488 343 460 q 396 574 396 517 l 396 665 q 372 737 396 714 q 313 760 347 760 l 188 760 l 188 460 z "},"Б":{"ha":536,"x_min":79,"x_max":483,"o":"m 79 0 l 79 821 l 457 821 l 457 743 l 185 743 l 185 604 l 319 604 q 410 588 374 604 q 465 533 446 571 q 483 433 483 496 l 483 207 q 472 106 483 146 q 440 42 461 65 q 385 10 418 19 q 307 0 353 0 l 79 0 m 285 58 q 344 74 325 58 q 371 117 364 89 q 378 179 378 144 l 378 421 q 372 478 378 451 q 345 522 365 506 q 283 538 325 538 l 185 538 l 185 58 l 285 58 z "},"C":{"ha":554,"x_min":67,"x_max":494,"o":"m 282 -17 q 171 -2 219 -17 q 94 58 122 13 q 67 196 67 104 l 67 649 q 94 765 67 725 q 172 818 122 804 q 283 832 221 832 q 394 817 347 832 q 467 764 440 803 q 494 649 494 725 l 494 499 l 388 499 l 388 651 q 374 726 388 701 q 336 758 360 750 q 282 765 313 765 q 228 758 251 765 q 191 726 204 750 q 178 651 178 701 l 178 163 q 191 88 178 113 q 228 56 204 64 q 282 49 251 49 q 337 56 314 49 q 374 88 360 64 q 388 163 388 113 l 388 296 l 494 296 l 494 196 q 467 58 494 103 q 393 -2 440 13 q 282 -17 346 -17 z "},"Ć":{"ha":554,"x_min":67,"x_max":494,"o":"m 282 -17 q 171 -2 219 -17 q 94 58 122 13 q 67 196 67 104 l 67 649 q 94 765 67 725 q 172 818 122 804 q 283 832 221 832 q 394 817 347 832 q 467 764 440 803 q 494 649 494 725 l 494 499 l 388 499 l 388 651 q 374 726 388 701 q 336 758 360 750 q 282 765 313 765 q 228 758 251 765 q 191 726 204 750 q 178 651 178 701 l 178 163 q 191 88 178 113 q 228 56 204 64 q 282 49 251 49 q 337 56 314 49 q 374 88 360 64 q 388 163 388 113 l 388 296 l 494 296 l 494 196 q 467 58 494 103 q 393 -2 440 13 q 282 -17 346 -17 m 206 881 l 317 1000 l 421 1000 l 271 881 l 206 881 z "},"Č":{"ha":554,"x_min":67,"x_max":494,"o":"m 282 -17 q 171 -2 219 -17 q 94 58 122 13 q 67 196 67 104 l 67 649 q 94 765 67 725 q 172 818 122 804 q 283 832 221 832 q 394 817 347 832 q 467 764 440 803 q 494 649 494 725 l 494 499 l 388 499 l 388 651 q 374 726 388 701 q 336 758 360 750 q 282 765 313 765 q 228 758 251 765 q 191 726 204 750 q 178 651 178 701 l 178 163 q 191 88 178 113 q 228 56 204 64 q 282 49 251 49 q 337 56 314 49 q 374 88 360 64 q 388 163 388 113 l 388 296 l 494 296 l 494 196 q 467 58 494 103 q 393 -2 440 13 q 282 -17 346 -17 m 243 875 l 121 994 l 193 994 l 278 925 l 363 994 l 433 994 l 310 875 l 243 875 z "},"Ç":{"ha":554,"x_min":67,"x_max":494,"o":"m 282 -17 q 171 -2 219 -17 q 94 58 122 13 q 67 196 67 104 l 67 649 q 94 765 67 725 q 172 818 122 804 q 283 832 221 832 q 394 817 347 832 q 467 764 440 803 q 494 649 494 725 l 494 499 l 388 499 l 388 651 q 374 726 388 701 q 336 758 360 750 q 282 765 313 765 q 228 758 251 765 q 191 726 204 750 q 178 651 178 701 l 178 163 q 191 88 178 113 q 228 56 204 64 q 282 49 251 49 q 337 56 314 49 q 374 88 360 64 q 388 163 388 113 l 388 296 l 494 296 l 494 196 q 467 58 494 103 q 393 -2 440 13 q 282 -17 346 -17 m 271 -208 q 230 -200 249 -208 q 200 -186 211 -192 l 215 -149 q 240 -161 224 -156 q 267 -167 256 -167 q 306 -155 293 -167 q 318 -125 318 -143 q 307 -99 318 -108 q 279 -89 296 -89 q 261 -92 269 -89 q 246 -101 253 -96 l 213 -83 l 257 0 l 301 0 l 264 -71 l 256 -68 q 278 -59 265 -62 q 304 -56 290 -56 q 359 -78 339 -56 q 379 -124 379 -100 q 351 -184 379 -160 q 271 -208 324 -208 z "},"Ċ":{"ha":554,"x_min":67,"x_max":494,"o":"m 282 -17 q 171 -2 219 -17 q 94 58 122 13 q 67 196 67 104 l 67 649 q 94 765 67 725 q 172 818 122 804 q 283 832 221 832 q 394 817 347 832 q 467 764 440 803 q 494 649 494 725 l 494 499 l 388 499 l 388 651 q 374 726 388 701 q 336 758 360 750 q 282 765 313 765 q 228 758 251 765 q 191 726 204 750 q 178 651 178 701 l 178 163 q 191 88 178 113 q 228 56 204 64 q 282 49 251 49 q 337 56 314 49 q 374 88 360 64 q 388 163 388 113 l 388 296 l 494 296 l 494 196 q 467 58 494 103 q 393 -2 440 13 q 282 -17 346 -17 m 286 888 q 244 905 263 888 q 226 946 226 922 q 244 988 226 971 q 288 1004 263 1004 q 330 988 313 1004 q 347 946 347 971 q 330 905 349 922 q 286 888 311 888 z "},"Ч":{"ha":513,"x_min":53,"x_max":457,"o":"m 350 0 l 350 229 q 297 201 333 215 q 215 188 260 188 q 110 210 146 188 q 64 276 75 233 q 53 372 53 318 l 53 821 l 158 821 l 158 371 q 177 289 158 317 q 251 261 196 261 q 319 274 296 261 q 350 294 342 288 l 350 821 l 457 821 l 457 0 l 350 0 z "},"D":{"ha":575,"x_min":79,"x_max":507,"o":"m 79 0 l 79 821 l 336 821 q 429 805 392 821 q 487 753 467 789 q 507 657 507 717 l 507 178 q 484 69 507 108 q 420 15 461 31 q 322 0 379 0 l 79 0 m 190 58 l 307 58 q 375 82 350 58 q 400 171 400 106 l 400 644 q 375 733 400 710 q 307 757 350 757 l 190 757 l 190 58 z "},"Ď":{"ha":575,"x_min":79,"x_max":507,"o":"m 79 0 l 79 821 l 336 821 q 429 805 392 821 q 487 753 467 789 q 507 657 507 717 l 507 178 q 484 69 507 108 q 420 15 461 31 q 322 0 379 0 l 79 0 m 190 58 l 307 58 q 375 82 350 58 q 400 171 400 106 l 400 644 q 375 733 400 710 q 307 757 350 757 l 190 757 l 190 58 m 253 875 l 131 994 l 203 994 l 288 925 l 372 994 l 443 994 l 319 875 l 253 875 z "},"Đ":{"ha":606,"x_min":24,"x_max":539,"o":"m 99 0 l 99 821 l 368 821 q 460 805 422 821 q 519 753 499 789 q 539 657 539 717 l 539 178 q 516 69 539 108 q 452 15 493 31 q 354 0 411 0 l 99 0 m 24 368 l 24 435 l 285 435 l 285 368 l 24 368 m 210 58 l 332 58 q 406 82 379 58 q 432 171 432 106 l 432 644 q 406 733 432 710 q 332 757 379 757 l 210 757 l 210 58 z "},"Д":{"ha":790,"x_min":44,"x_max":746,"o":"m 44 -151 l 44 69 l 114 69 q 164 101 143 72 q 190 189 185 131 q 201 310 196 244 q 213 443 207 375 q 224 578 219 511 q 233 707 229 644 q 240 821 238 769 l 619 821 l 619 69 l 746 69 l 746 -151 l 656 -151 l 656 -18 l 135 -18 l 135 -151 l 44 -151 m 260 69 l 513 69 l 513 743 l 342 743 q 322 473 331 607 q 301 204 313 339 q 290 128 299 168 q 260 69 282 89 z "},"Δ":{"ha":742,"x_min":53,"x_max":690,"o":"m 53 0 l 318 813 l 431 813 l 690 0 l 53 0 m 182 86 l 553 86 l 369 679 l 182 86 z "},"Ђ":{"ha":624,"x_min":14,"x_max":572,"o":"m 156 0 l 156 743 l 14 743 l 14 821 l 407 821 l 407 743 l 264 743 l 264 517 q 315 564 278 542 q 408 586 351 586 q 503 567 468 586 q 556 510 539 549 q 572 411 572 471 l 572 235 q 558 108 572 156 q 519 38 544 61 q 460 7 494 14 q 385 0 426 0 q 360 3 374 0 q 339 8 347 6 l 339 60 q 353 59 346 60 q 365 58 360 58 q 442 96 419 58 q 465 210 465 133 l 465 404 q 447 490 465 461 q 367 518 428 518 q 296 497 319 518 q 264 453 272 475 l 264 0 l 156 0 z "},"Ѕ":{"ha":525,"x_min":47,"x_max":478,"o":"m 257 -10 q 144 12 192 -10 q 72 86 97 33 q 47 232 47 139 l 47 279 q 103 279 75 279 q 157 279 131 279 l 157 225 q 169 124 157 160 q 206 75 182 89 q 258 61 229 61 q 336 92 306 61 q 367 206 367 124 q 349 295 367 265 q 294 343 331 325 q 204 383 258 361 q 124 429 158 403 q 71 498 89 456 q 53 604 53 540 q 73 727 53 679 q 139 799 93 775 q 263 822 185 822 q 415 774 361 822 q 469 638 469 726 l 469 544 q 417 544 443 544 q 364 544 390 544 l 364 608 q 339 706 364 674 q 263 738 314 738 q 185 706 208 738 q 161 607 161 674 q 181 526 161 556 q 234 480 201 496 q 303 450 267 464 q 403 401 365 426 q 460 335 442 375 q 478 219 478 294 q 450 84 478 135 q 373 12 422 33 q 257 -10 324 -10 z "},"Џ":{"ha":522,"x_min":56,"x_max":467,"o":"m 224 -137 l 224 0 l 56 0 l 56 821 l 167 821 l 167 76 l 356 76 l 356 821 l 467 821 l 467 0 l 296 0 l 296 -137 l 224 -137 z "},"E":{"ha":472,"x_min":79,"x_max":440,"o":"m 79 0 l 79 821 l 440 821 l 440 744 l 192 744 l 192 469 l 393 469 l 393 386 l 192 386 l 192 75 l 440 75 l 440 0 l 79 0 z "},"É":{"ha":472,"x_min":79,"x_max":440,"o":"m 79 0 l 79 821 l 440 821 l 440 744 l 192 744 l 192 469 l 393 469 l 393 386 l 192 386 l 192 75 l 440 75 l 440 0 l 79 0 m 188 881 l 299 1000 l 403 1000 l 253 881 l 188 881 z "},"Ě":{"ha":472,"x_min":79,"x_max":440,"o":"m 79 0 l 79 821 l 440 821 l 440 744 l 192 744 l 192 469 l 393 469 l 393 386 l 192 386 l 192 75 l 440 75 l 440 0 l 79 0 m 225 875 l 103 994 l 175 994 l 260 925 l 344 994 l 415 994 l 292 875 l 225 875 z "},"Ê":{"ha":472,"x_min":79,"x_max":440,"o":"m 79 0 l 79 821 l 440 821 l 440 744 l 192 744 l 192 469 l 393 469 l 393 386 l 192 386 l 192 75 l 440 75 l 440 0 l 79 0 m 99 875 l 226 1003 l 292 1003 l 419 875 l 350 875 l 260 953 l 171 875 l 99 875 z "},"Ế":{"ha":472,"x_min":79,"x_max":538,"o":"m 79 0 l 79 821 l 440 821 l 440 744 l 192 744 l 192 469 l 393 469 l 393 386 l 192 386 l 192 75 l 440 75 l 440 0 l 79 0 m 138 869 l 229 971 l 289 971 l 381 869 l 317 869 l 260 924 l 204 869 l 138 869 m 379 935 l 435 1032 l 538 1032 l 446 935 l 379 935 z "},"Ệ":{"ha":472,"x_min":79,"x_max":440,"o":"m 79 0 l 79 821 l 440 821 l 440 744 l 192 744 l 192 469 l 393 469 l 393 386 l 192 386 l 192 75 l 440 75 l 440 0 l 79 0 m 261 -158 q 224 -143 239 -158 q 210 -108 210 -128 q 224 -73 210 -87 q 261 -58 239 -58 q 298 -73 282 -58 q 314 -108 314 -87 q 298 -143 314 -128 q 261 -158 282 -158 m 99 875 l 226 1003 l 292 1003 l 419 875 l 350 875 l 260 953 l 171 875 l 99 875 z "},"Ề":{"ha":472,"x_min":79,"x_max":478,"o":"m 79 0 l 79 821 l 440 821 l 440 744 l 192 744 l 192 469 l 393 469 l 393 386 l 192 386 l 192 75 l 440 75 l 440 0 l 79 0 m 138 869 l 229 971 l 289 971 l 381 869 l 317 869 l 260 924 l 204 869 l 138 869 m 411 933 l 319 1031 l 422 1031 l 478 933 l 411 933 z "},"Ể":{"ha":472,"x_min":79,"x_max":493,"o":"m 79 0 l 79 821 l 440 821 l 440 744 l 192 744 l 192 469 l 393 469 l 393 386 l 192 386 l 192 75 l 440 75 l 440 0 l 79 0 m 138 869 l 229 971 l 289 971 l 381 869 l 317 869 l 260 924 l 204 869 l 138 869 m 392 931 l 392 944 q 403 965 392 958 q 425 979 414 972 q 436 997 436 986 l 436 1003 q 431 1019 436 1013 q 414 1025 425 1025 q 393 1004 397 1025 l 347 1013 q 367 1050 350 1036 q 418 1064 385 1064 q 476 1051 460 1064 q 493 1004 493 1039 l 493 1001 q 482 971 493 979 q 459 958 471 963 q 447 942 447 953 l 447 931 l 392 931 z "},"Ễ":{"ha":472,"x_min":79,"x_max":440,"o":"m 79 0 l 79 821 l 440 821 l 440 744 l 192 744 l 192 469 l 393 469 l 393 386 l 192 386 l 192 75 l 440 75 l 440 0 l 79 0 m 138 869 l 229 971 l 289 971 l 381 869 l 317 869 l 260 924 l 204 869 l 138 869 m 304 993 q 277 999 289 993 q 253 1013 265 1004 q 231 1024 242 1018 q 210 1029 221 1029 q 189 1020 197 1029 q 179 994 181 1011 l 149 994 q 167 1055 150 1033 q 210 1076 183 1076 q 237 1073 224 1076 q 264 1060 250 1069 q 284 1049 274 1053 q 304 1044 294 1044 q 326 1053 318 1044 q 336 1075 333 1061 l 371 1075 q 359 1031 369 1050 q 334 1003 349 1013 q 304 993 319 993 z "},"Ë":{"ha":472,"x_min":79,"x_max":440,"o":"m 79 0 l 79 821 l 440 821 l 440 744 l 192 744 l 192 469 l 393 469 l 393 386 l 192 386 l 192 75 l 440 75 l 440 0 l 79 0 m 189 886 q 152 901 167 886 q 138 936 138 915 q 152 970 138 957 q 189 983 167 983 q 224 970 210 983 q 239 936 239 957 q 224 901 239 915 q 189 886 210 886 m 332 886 q 296 901 311 886 q 281 936 281 915 q 296 970 281 957 q 332 983 311 983 q 368 970 354 983 q 382 936 382 957 q 368 901 382 915 q 332 886 354 886 z "},"Ė":{"ha":472,"x_min":79,"x_max":440,"o":"m 79 0 l 79 821 l 440 821 l 440 744 l 192 744 l 192 469 l 393 469 l 393 386 l 192 386 l 192 75 l 440 75 l 440 0 l 79 0 m 268 888 q 226 905 244 888 q 208 946 208 922 q 226 988 208 971 q 269 1004 244 1004 q 312 988 294 1004 q 329 946 329 971 q 312 905 331 922 q 268 888 293 888 z "},"Ẹ":{"ha":472,"x_min":79,"x_max":440,"o":"m 79 0 l 79 821 l 440 821 l 440 744 l 192 744 l 192 469 l 393 469 l 393 386 l 192 386 l 192 75 l 440 75 l 440 0 l 79 0 m 261 -158 q 224 -143 239 -158 q 210 -108 210 -128 q 224 -73 210 -87 q 261 -58 239 -58 q 298 -73 282 -58 q 314 -108 314 -87 q 298 -143 314 -128 q 261 -158 282 -158 z "},"Ф":{"ha":679,"x_min":50,"x_max":631,"o":"m 288 -22 l 288 92 l 250 92 q 100 135 150 92 q 50 278 50 178 l 50 551 q 95 680 50 636 q 236 724 140 724 l 288 724 l 288 821 l 393 821 l 393 724 l 440 724 q 584 682 538 724 q 631 549 631 640 l 631 281 q 578 132 631 172 q 426 92 526 92 l 393 92 l 393 -22 l 288 -22 m 264 151 l 288 151 q 288 406 288 279 q 288 660 288 533 l 265 660 q 185 631 213 660 q 157 539 157 603 l 157 272 q 184 180 157 208 q 264 151 211 151 m 393 151 l 411 151 q 494 177 465 151 q 522 272 522 203 l 522 538 q 494 633 522 607 q 411 660 465 660 l 393 660 q 393 406 393 533 q 393 151 393 279 z "},"È":{"ha":472,"x_min":79,"x_max":440,"o":"m 79 0 l 79 821 l 440 821 l 440 744 l 192 744 l 192 469 l 393 469 l 393 386 l 192 386 l 192 75 l 440 75 l 440 0 l 79 0 m 258 881 l 115 997 l 221 997 l 329 881 l 258 881 z "},"Ẻ":{"ha":472,"x_min":79,"x_max":440,"o":"m 79 0 l 79 821 l 440 821 l 440 744 l 192 744 l 192 469 l 393 469 l 393 386 l 192 386 l 192 75 l 440 75 l 440 0 l 79 0 m 228 871 l 228 892 q 244 922 228 911 q 275 941 260 932 q 290 968 290 950 l 290 975 q 282 999 290 988 q 254 1010 274 1010 q 222 978 228 1010 l 171 988 q 197 1036 175 1019 q 260 1053 219 1053 q 330 1037 307 1053 q 353 975 353 1021 l 353 972 q 336 929 353 942 q 303 910 319 917 q 286 886 286 903 l 286 871 l 228 871 z "},"Л":{"ha":596,"x_min":19,"x_max":540,"o":"m 19 0 l 19 58 q 66 85 46 58 q 90 163 86 113 l 135 821 l 540 821 l 540 0 l 433 0 l 433 743 l 240 743 l 196 133 q 191 91 194 114 q 177 49 188 68 q 145 15 167 29 q 85 0 124 1 l 19 0 z "},"М":{"ha":739,"x_min":79,"x_max":658,"o":"m 79 0 l 79 821 l 210 821 l 369 190 l 532 821 l 658 821 l 658 0 l 564 0 l 564 650 l 407 0 l 332 0 l 175 650 l 175 0 l 79 0 z "},"Ē":{"ha":472,"x_min":79,"x_max":440,"o":"m 79 0 l 79 821 l 440 821 l 440 744 l 192 744 l 192 469 l 393 469 l 393 386 l 192 386 l 192 75 l 440 75 l 440 0 l 79 0 m 126 901 l 126 958 l 392 958 l 392 901 l 126 901 z "},"Н":{"ha":585,"x_min":79,"x_max":506,"o":"m 79 0 l 79 821 l 186 821 l 186 468 l 399 468 l 399 821 l 506 821 l 506 0 l 399 0 l 399 388 l 186 388 l 186 0 l 79 0 z "},"Ŋ":{"ha":583,"x_min":79,"x_max":504,"o":"m 343 -246 q 314 -246 331 -246 q 285 -244 297 -246 l 285 -168 l 329 -169 q 389 -153 372 -169 q 406 -89 406 -137 l 407 1 l 176 576 l 175 0 l 79 0 l 81 821 l 175 821 l 407 218 l 408 821 l 504 821 l 503 -57 q 490 -170 503 -129 q 442 -228 476 -211 q 343 -246 407 -246 z "},"Ę":{"ha":472,"x_min":79,"x_max":440,"o":"m 79 0 l 79 821 l 440 821 l 440 744 l 192 744 l 192 469 l 393 469 l 393 386 l 192 386 l 192 75 l 440 75 l 440 0 l 79 0 m 333 -192 q 263 -167 292 -192 q 233 -108 233 -143 q 263 -39 233 -69 q 329 1 292 -8 l 379 0 q 323 -42 342 -15 q 304 -94 304 -68 q 322 -135 304 -121 q 358 -149 340 -149 q 378 -146 369 -149 q 392 -140 388 -143 l 407 -174 q 381 -185 399 -178 q 333 -192 364 -192 z "},"Р":{"ha":536,"x_min":79,"x_max":503,"o":"m 79 0 l 79 821 l 344 821 q 460 787 418 821 q 503 683 503 753 l 503 535 q 490 443 503 486 q 439 374 476 400 q 331 347 401 347 l 192 347 l 192 0 l 79 0 m 192 410 l 296 410 q 371 443 346 410 q 396 549 396 476 l 396 640 q 373 731 396 703 q 315 760 350 760 l 192 760 l 192 410 z "},"Э":{"ha":538,"x_min":53,"x_max":482,"o":"m 267 -17 q 154 -2 203 -17 q 79 58 106 13 q 53 197 53 103 l 53 268 l 160 268 l 160 160 q 174 89 160 113 q 212 58 188 65 q 265 50 236 50 q 321 58 297 50 q 358 89 344 65 q 371 160 371 113 l 371 369 l 165 369 l 165 443 l 371 443 l 371 650 q 358 721 371 697 q 321 753 344 744 q 265 761 297 761 q 211 754 235 761 q 174 724 188 747 q 160 653 160 701 l 160 522 l 53 522 l 53 647 q 79 763 53 722 q 153 817 106 803 q 265 832 201 832 q 378 817 329 832 q 454 763 426 803 q 482 647 482 724 l 482 196 q 454 58 482 104 q 378 -2 426 13 q 267 -17 329 -17 z "},"С":{"ha":554,"x_min":67,"x_max":494,"o":"m 282 -17 q 171 -2 219 -17 q 94 58 122 13 q 67 196 67 104 l 67 649 q 94 765 67 725 q 172 818 122 804 q 283 832 221 832 q 394 817 347 832 q 467 764 440 803 q 494 649 494 725 l 494 499 l 388 499 l 388 651 q 374 726 388 701 q 336 758 360 750 q 282 765 313 765 q 228 758 251 765 q 191 726 204 750 q 178 651 178 701 l 178 163 q 191 88 178 113 q 228 56 204 64 q 282 49 251 49 q 337 56 314 49 q 374 88 360 64 q 388 163 388 113 l 388 296 l 494 296 l 494 196 q 467 58 494 103 q 393 -2 440 13 q 282 -17 346 -17 z "},"Ð":{"ha":606,"x_min":24,"x_max":539,"o":"m 99 0 l 99 821 l 368 821 q 460 805 422 821 q 519 753 499 789 q 539 657 539 717 l 539 178 q 516 69 539 108 q 452 15 493 31 q 354 0 411 0 l 99 0 m 24 368 l 24 435 l 285 435 l 285 368 l 24 368 m 210 58 l 332 58 q 406 82 379 58 q 432 171 432 106 l 432 644 q 406 733 432 710 q 332 757 379 757 l 210 757 l 210 58 z "},"Ẽ":{"ha":472,"x_min":79,"x_max":440,"o":"m 79 0 l 79 821 l 440 821 l 440 744 l 192 744 l 192 469 l 393 469 l 393 386 l 192 386 l 192 75 l 440 75 l 440 0 l 79 0 m 318 888 q 284 894 299 888 q 250 913 269 901 q 222 929 238 921 q 190 938 207 938 q 163 925 174 938 q 149 889 151 913 l 111 889 q 134 962 113 933 q 192 990 156 990 q 229 983 213 990 q 263 964 246 975 q 291 949 278 956 q 318 942 304 942 q 347 953 336 942 q 363 988 358 965 l 403 988 q 389 933 401 956 q 358 899 376 911 q 318 888 339 888 z "},"F":{"ha":463,"x_min":79,"x_max":440,"o":"m 79 0 l 79 821 l 440 821 l 440 744 l 192 744 l 192 469 l 393 469 l 393 386 l 192 386 l 192 0 l 79 0 z "},"G":{"ha":557,"x_min":67,"x_max":494,"o":"m 251 -15 q 160 -1 201 -15 q 92 55 118 13 q 67 183 67 97 l 67 649 q 94 763 67 724 q 170 817 122 803 q 281 832 218 832 q 391 817 343 832 q 467 763 439 801 q 494 649 494 724 l 494 540 l 390 540 l 390 651 q 376 724 390 700 q 338 756 363 749 q 282 764 314 764 q 226 756 250 764 q 188 724 201 749 q 174 651 174 700 l 174 163 q 188 88 174 113 q 226 56 201 64 q 282 49 250 49 q 360 78 329 49 q 390 163 390 107 l 390 331 l 294 331 l 294 394 l 494 394 l 494 0 l 414 0 l 408 75 q 399 59 404 67 q 390 46 394 51 q 339 2 372 19 q 251 -15 306 -15 z "},"Ğ":{"ha":557,"x_min":67,"x_max":494,"o":"m 251 -15 q 160 -1 201 -15 q 92 55 118 13 q 67 183 67 97 l 67 649 q 94 763 67 724 q 170 817 122 803 q 281 832 218 832 q 391 817 343 832 q 467 763 439 801 q 494 649 494 724 l 494 540 l 390 540 l 390 651 q 376 724 390 700 q 338 756 363 749 q 282 764 314 764 q 226 756 250 764 q 188 724 201 749 q 174 651 174 700 l 174 163 q 188 88 174 113 q 226 56 201 64 q 282 49 250 49 q 360 78 329 49 q 390 163 390 107 l 390 331 l 294 331 l 294 394 l 494 394 l 494 0 l 414 0 l 408 75 q 399 59 404 67 q 390 46 394 51 q 339 2 372 19 q 251 -15 306 -15 m 278 875 q 192 897 222 875 q 149 948 161 918 q 136 1003 138 978 l 197 1003 q 224 947 201 965 q 278 929 247 929 q 335 947 313 929 q 361 1003 357 964 l 422 1003 q 406 943 421 972 q 360 894 392 914 q 278 875 329 875 z "},"Ģ":{"ha":557,"x_min":67,"x_max":494,"o":"m 251 -15 q 160 -1 201 -15 q 92 55 118 13 q 67 183 67 97 l 67 649 q 94 763 67 724 q 170 817 122 803 q 281 832 218 832 q 391 817 343 832 q 467 763 439 801 q 494 649 494 724 l 494 540 l 390 540 l 390 651 q 376 724 390 700 q 338 756 363 749 q 282 764 314 764 q 226 756 250 764 q 188 724 201 749 q 174 651 174 700 l 174 163 q 188 88 174 113 q 226 56 201 64 q 282 49 250 49 q 360 78 329 49 q 390 163 390 107 l 390 331 l 294 331 l 294 394 l 494 394 l 494 0 l 414 0 l 408 75 q 399 59 404 67 q 390 46 394 51 q 339 2 372 19 q 251 -15 306 -15 m 219 -236 q 247 -186 236 -210 q 258 -146 258 -162 q 251 -131 258 -137 q 235 -117 243 -125 q 228 -93 228 -108 q 242 -65 228 -78 q 278 -53 257 -53 q 316 -67 301 -53 q 331 -101 331 -82 q 320 -142 331 -118 q 295 -192 310 -167 q 264 -236 281 -217 l 219 -236 z "},"Ġ":{"ha":557,"x_min":67,"x_max":494,"o":"m 251 -15 q 160 -1 201 -15 q 92 55 118 13 q 67 183 67 97 l 67 649 q 94 763 67 724 q 170 817 122 803 q 281 832 218 832 q 391 817 343 832 q 467 763 439 801 q 494 649 494 724 l 494 540 l 390 540 l 390 651 q 376 724 390 700 q 338 756 363 749 q 282 764 314 764 q 226 756 250 764 q 188 724 201 749 q 174 651 174 700 l 174 163 q 188 88 174 113 q 226 56 201 64 q 282 49 250 49 q 360 78 329 49 q 390 163 390 107 l 390 331 l 294 331 l 294 394 l 494 394 l 494 0 l 414 0 l 408 75 q 399 59 404 67 q 390 46 394 51 q 339 2 372 19 q 251 -15 306 -15 m 288 888 q 246 905 264 888 q 228 946 228 922 q 246 988 228 971 q 289 1004 264 1004 q 331 988 314 1004 q 349 946 349 971 q 331 905 350 922 q 288 888 313 888 z "},"Г":{"ha":440,"x_min":56,"x_max":418,"o":"m 56 0 l 56 821 l 418 821 l 418 743 l 167 743 l 167 0 l 56 0 z "},"ẞ":{"ha":1085,"x_min":72,"x_max":1011,"o":"m 788 -10 q 676 12 722 -10 q 605 86 629 33 q 581 232 581 139 l 581 279 q 635 279 607 279 q 690 279 663 279 l 690 225 q 703 124 690 160 q 738 75 715 89 q 792 61 761 61 q 869 92 839 61 q 899 206 899 124 q 881 295 899 265 q 827 343 863 325 q 736 383 792 361 q 656 429 690 403 q 603 498 622 456 q 585 604 585 540 q 605 727 585 679 q 672 799 625 775 q 794 822 718 822 q 949 774 894 822 q 1003 638 1003 726 l 1003 544 q 950 544 976 544 q 897 544 924 544 l 897 608 q 872 706 897 674 q 796 738 847 738 q 717 706 740 738 q 694 607 694 674 q 715 526 694 556 q 767 480 735 496 q 835 450 799 464 q 936 401 897 426 q 993 335 975 375 q 1011 219 1011 294 q 983 84 1011 135 q 904 12 954 33 q 788 -10 854 -10 m 281 -10 q 169 12 215 -10 q 97 86 122 33 q 72 232 72 139 l 72 279 q 128 279 100 279 q 183 279 156 279 l 183 225 q 196 124 183 160 q 231 75 208 89 q 283 61 254 61 q 362 92 332 61 q 392 206 392 124 q 374 295 392 265 q 320 343 356 325 q 229 383 285 361 q 149 429 183 403 q 97 498 115 456 q 78 604 78 540 q 98 727 78 679 q 164 799 118 775 q 288 822 210 822 q 442 774 388 822 q 496 638 496 726 l 496 544 q 442 544 468 544 q 390 544 415 544 l 390 608 q 365 706 390 674 q 289 738 340 738 q 211 706 235 738 q 188 607 188 674 q 207 526 188 556 q 259 480 226 496 q 328 450 292 464 q 429 401 390 426 q 486 335 468 375 q 504 219 504 294 q 476 84 504 135 q 397 12 447 33 q 281 -10 347 -10 z "},"Ѓ":{"ha":440,"x_min":56,"x_max":418,"o":"m 56 0 l 56 821 l 418 821 l 418 743 l 167 743 l 167 0 l 56 0 m 149 881 l 260 1000 l 364 1000 l 214 881 l 149 881 z "},"H":{"ha":585,"x_min":79,"x_max":506,"o":"m 79 0 l 79 821 l 186 821 l 186 468 l 399 468 l 399 821 l 506 821 l 506 0 l 399 0 l 399 388 l 186 388 l 186 0 l 79 0 z "},"Х":{"ha":461,"x_min":21,"x_max":440,"o":"m 21 0 l 150 419 l 31 821 l 138 821 l 231 494 l 329 821 l 440 821 l 314 418 l 438 0 l 331 0 l 232 326 l 133 0 l 21 0 z "},"Ъ":{"ha":556,"x_min":11,"x_max":501,"o":"m 97 0 l 97 743 l 11 743 l 11 821 l 203 821 l 203 604 l 336 604 q 428 588 392 604 q 483 533 464 571 q 501 433 501 496 l 501 207 q 490 106 501 146 q 458 42 479 65 q 403 10 436 19 q 325 0 369 0 l 97 0 m 203 58 l 303 58 q 363 75 343 58 q 389 126 382 92 q 396 211 396 160 l 396 408 q 390 474 396 446 q 365 520 385 503 q 301 538 346 538 l 203 538 l 203 58 z "},"Ħ":{"ha":585,"x_min":31,"x_max":575,"o":"m 31 658 l 31 710 l 575 710 l 575 658 l 31 658 m 79 0 l 79 821 l 186 821 l 186 468 l 399 468 l 399 821 l 506 821 l 506 0 l 399 0 l 399 388 l 186 388 l 186 0 l 79 0 z "},"I":{"ha":265,"x_min":79,"x_max":186,"o":"m 79 0 l 79 821 l 186 821 l 186 0 l 79 0 z "},"І":{"ha":265,"x_min":79,"x_max":186,"o":"m 79 0 l 79 821 l 186 821 l 186 0 l 79 0 z "},"Я":{"ha":578,"x_min":36,"x_max":497,"o":"m 497 0 l 386 0 l 386 371 l 300 371 q 263 358 278 371 q 240 322 249 344 q 224 275 231 300 l 153 0 l 36 0 l 118 282 q 156 368 135 340 q 224 399 178 396 l 224 399 q 110 442 150 401 q 69 553 69 482 l 69 683 q 113 787 69 753 q 228 821 156 821 l 497 821 l 497 0 m 386 446 l 386 760 l 260 760 q 200 738 225 760 q 175 665 175 715 l 175 557 q 201 471 175 496 q 279 446 228 446 l 386 446 z "},"Í":{"ha":265,"x_min":63,"x_max":276,"o":"m 79 0 l 79 821 l 186 821 l 186 0 l 79 0 m 61 881 l 172 1000 l 276 1000 l 126 881 l 61 881 z "},"Ǐ":{"ha":265,"x_min":-24,"x_max":289,"o":"m 79 0 l 79 821 l 186 821 l 186 0 l 79 0 m 99 875 l -24 994 l 49 994 l 133 925 l 218 994 l 289 994 l 165 875 l 99 875 z "},"Î":{"ha":265,"x_min":-28,"x_max":293,"o":"m 79 0 l 79 821 l 186 821 l 186 0 l 79 0 m -28 875 l 100 1003 l 165 1003 l 293 875 l 224 875 l 133 953 l 44 875 l -28 875 z "},"Ï":{"ha":265,"x_min":11,"x_max":256,"o":"m 79 0 l 79 821 l 186 821 l 186 0 l 79 0 m 63 886 q 26 901 40 886 q 11 936 11 915 q 26 970 11 957 q 63 983 40 983 q 98 970 83 983 q 113 936 113 957 q 98 901 113 915 q 63 886 83 886 m 206 886 q 169 901 185 886 q 154 936 154 915 q 169 970 154 957 q 206 983 185 983 q 242 970 228 983 q 256 936 256 957 q 242 901 256 915 q 206 886 228 886 z "},"İ":{"ha":265,"x_min":79,"x_max":204,"o":"m 79 0 l 79 821 l 186 821 l 186 0 l 79 0 m 142 888 q 100 905 118 888 q 82 946 82 922 q 100 988 82 971 q 143 1004 118 1004 q 185 988 168 1004 q 203 946 203 971 q 185 905 204 922 q 142 888 167 888 z "},"Ị":{"ha":265,"x_min":79,"x_max":186,"o":"m 79 0 l 79 821 l 186 821 l 186 0 l 79 0 m 132 -158 q 95 -143 110 -158 q 81 -108 81 -128 q 95 -73 81 -87 q 132 -58 110 -58 q 169 -73 153 -58 q 185 -108 185 -87 q 169 -143 185 -128 q 132 -158 153 -158 z "},"Е":{"ha":472,"x_min":79,"x_max":440,"o":"m 79 0 l 79 821 l 440 821 l 440 744 l 192 744 l 192 469 l 393 469 l 393 386 l 192 386 l 192 75 l 440 75 l 440 0 l 79 0 z "},"Ѐ":{"ha":472,"x_min":79,"x_max":440,"o":"m 79 0 l 79 821 l 440 821 l 440 744 l 192 744 l 192 469 l 393 469 l 393 386 l 192 386 l 192 75 l 440 75 l 440 0 l 79 0 m 263 881 l 119 997 l 225 997 l 333 881 l 263 881 z "},"Ì":{"ha":265,"x_min":-11,"x_max":203,"o":"m 79 0 l 79 821 l 186 821 l 186 0 l 79 0 m 132 881 l -11 997 l 94 997 l 203 881 l 132 881 z "},"Ỉ":{"ha":265,"x_min":44,"x_max":226,"o":"m 79 0 l 79 821 l 186 821 l 186 0 l 79 0 m 101 871 l 101 892 q 117 922 101 911 q 149 941 133 932 q 164 968 164 950 l 164 975 q 156 999 164 988 q 128 1010 147 1010 q 96 978 101 1010 l 44 988 q 71 1036 49 1019 q 133 1053 93 1053 q 203 1037 181 1053 q 226 975 226 1021 l 226 972 q 210 929 226 942 q 176 910 193 917 q 160 886 160 903 l 160 871 l 101 871 z "},"И":{"ha":536,"x_min":56,"x_max":481,"o":"m 56 0 l 56 821 l 151 821 l 151 218 l 385 821 l 481 821 l 481 0 l 385 0 l 385 578 l 153 0 l 56 0 z "},"Ѝ":{"ha":536,"x_min":56,"x_max":481,"o":"m 56 0 l 56 821 l 151 821 l 151 218 l 385 821 l 481 821 l 481 0 l 385 0 l 385 578 l 153 0 l 56 0 m 267 881 l 124 997 l 229 997 l 338 881 l 267 881 z "},"Й":{"ha":536,"x_min":56,"x_max":481,"o":"m 56 0 l 56 821 l 151 821 l 151 218 l 385 821 l 481 821 l 481 0 l 385 0 l 385 578 l 153 0 l 56 0 m 267 875 q 181 897 211 875 q 138 948 150 918 q 125 1003 126 978 l 186 1003 q 213 947 190 965 q 267 929 236 929 q 324 947 301 929 q 350 1003 346 964 l 411 1003 q 395 943 410 972 q 349 894 381 914 q 267 875 318 875 z "},"Ī":{"ha":265,"x_min":0,"x_max":265,"o":"m 79 0 l 79 821 l 186 821 l 186 0 l 79 0 m 0 901 l 0 958 l 265 958 l 265 901 l 0 901 z "},"Ё":{"ha":472,"x_min":79,"x_max":440,"o":"m 79 0 l 79 821 l 440 821 l 440 744 l 192 744 l 192 469 l 393 469 l 393 386 l 192 386 l 192 75 l 440 75 l 440 0 l 79 0 m 193 886 q 156 901 171 886 q 142 936 142 915 q 156 970 142 957 q 193 983 171 983 q 228 970 214 983 q 243 936 243 957 q 228 901 243 915 q 193 886 214 886 m 336 886 q 300 901 315 886 q 285 936 285 915 q 300 970 285 957 q 336 983 315 983 q 372 970 358 983 q 386 936 386 957 q 372 901 386 915 q 336 886 358 886 z "},"Į":{"ha":265,"x_min":40,"x_max":213,"o":"m 79 0 l 79 821 l 186 821 l 186 0 l 79 0 m 140 -192 q 69 -167 99 -192 q 40 -108 40 -143 q 69 -39 40 -69 q 136 1 99 -8 l 186 0 q 130 -42 149 -15 q 111 -94 111 -68 q 129 -135 111 -121 q 165 -149 147 -149 q 185 -146 176 -149 q 199 -140 194 -143 l 214 -174 q 188 -185 206 -178 q 140 -192 171 -192 z "},"Ĩ":{"ha":265,"x_min":-15,"x_max":276,"o":"m 79 0 l 79 821 l 186 821 l 186 0 l 79 0 m 192 888 q 158 894 172 888 q 124 913 143 901 q 96 929 111 921 q 64 938 81 938 q 36 925 47 938 q 22 889 25 913 l -15 889 q 8 962 -14 933 q 65 990 29 990 q 103 983 86 990 q 136 964 119 975 q 165 949 151 956 q 192 942 178 942 q 221 953 210 942 q 236 988 232 965 l 276 988 q 263 933 275 956 q 231 899 250 911 q 192 888 213 888 z "},"Ю":{"ha":819,"x_min":56,"x_max":764,"o":"m 550 -17 q 439 -2 488 -17 q 363 58 390 13 q 335 197 335 104 l 335 388 l 163 388 l 163 0 l 56 0 l 56 821 l 163 821 l 163 468 l 335 468 l 335 647 q 363 765 335 725 q 440 818 390 804 q 551 832 489 832 q 663 817 615 832 q 738 763 711 803 q 764 647 764 724 l 764 197 q 738 58 764 104 q 663 -2 711 13 q 550 -17 614 -17 m 551 49 q 606 56 582 49 q 643 88 629 64 q 657 158 657 111 l 657 654 q 643 726 657 703 q 606 756 629 749 q 551 764 582 764 q 497 756 521 764 q 460 726 474 749 q 446 654 446 703 l 446 158 q 460 88 446 111 q 497 56 474 64 q 551 49 521 49 z "},"J":{"ha":313,"x_min":10,"x_max":239,"o":"m 68 -1 q 40 -1 57 -1 q 10 0 22 -1 l 10 76 l 54 75 q 115 90 97 74 q 132 154 132 107 l 132 821 l 239 821 l 239 186 q 224 74 239 115 q 173 15 210 32 q 68 -1 136 -1 z "},"Ј":{"ha":313,"x_min":10,"x_max":239,"o":"m 68 -1 q 40 -1 57 -1 q 10 0 22 -1 l 10 76 l 54 75 q 115 90 97 74 q 132 154 132 107 l 132 821 l 239 821 l 239 186 q 224 74 239 115 q 173 15 210 32 q 68 -1 136 -1 z "},"K":{"ha":533,"x_min":79,"x_max":518,"o":"m 400 0 l 203 426 l 394 821 l 511 821 l 310 425 l 518 0 l 400 0 m 79 0 l 79 821 l 186 821 l 186 0 l 79 0 z "},"К":{"ha":543,"x_min":56,"x_max":515,"o":"m 56 0 l 56 821 l 163 821 l 163 453 l 214 453 l 393 821 l 510 821 l 314 425 l 515 0 l 396 0 l 219 379 l 163 379 l 163 0 l 56 0 z "},"Ķ":{"ha":533,"x_min":79,"x_max":518,"o":"m 400 0 l 203 426 l 394 821 l 511 821 l 310 425 l 518 0 l 400 0 m 79 0 l 79 821 l 186 821 l 186 0 l 79 0 m 225 -236 q 253 -186 242 -210 q 264 -146 264 -162 q 256 -131 264 -137 q 241 -117 249 -125 q 233 -93 233 -108 q 248 -65 233 -78 q 283 -53 263 -53 q 322 -67 307 -53 q 336 -101 336 -82 q 326 -142 336 -118 q 301 -192 315 -167 q 269 -236 286 -217 l 225 -236 z "},"Ќ":{"ha":543,"x_min":56,"x_max":515,"o":"m 56 0 l 56 821 l 163 821 l 163 453 l 214 453 l 393 821 l 510 821 l 314 425 l 515 0 l 396 0 l 219 379 l 163 379 l 163 0 l 56 0 m 200 881 l 311 1000 l 415 1000 l 265 881 l 200 881 z "},"L":{"ha":413,"x_min":79,"x_max":403,"o":"m 79 0 l 79 821 l 186 821 l 186 75 l 403 75 l 403 0 l 79 0 z "},"Ĺ":{"ha":413,"x_min":79,"x_max":403,"o":"m 79 0 l 79 821 l 186 821 l 186 75 l 403 75 l 403 0 l 79 0 m 86 881 l 197 1000 l 301 1000 l 151 881 l 86 881 z "},"Ľ":{"ha":428,"x_min":79,"x_max":403,"o":"m 79 0 l 79 821 l 186 821 l 186 75 l 403 75 l 403 0 l 79 0 m 306 660 l 333 844 l 401 844 l 346 660 l 306 660 z "},"Ļ":{"ha":413,"x_min":79,"x_max":403,"o":"m 79 0 l 79 821 l 186 821 l 186 75 l 403 75 l 403 0 l 79 0 m 179 -236 q 207 -186 196 -210 q 218 -146 218 -162 q 210 -131 218 -137 q 195 -117 203 -125 q 188 -93 188 -108 q 202 -65 188 -78 q 238 -53 217 -53 q 276 -67 261 -53 q 290 -101 290 -82 q 280 -142 290 -118 q 255 -192 269 -167 q 224 -236 240 -217 l 179 -236 z "},"Љ":{"ha":892,"x_min":19,"x_max":836,"o":"m 19 0 l 19 58 q 66 85 46 58 q 90 163 86 113 l 135 821 l 540 821 l 540 0 l 433 0 l 433 743 l 240 743 l 196 133 q 191 91 194 114 q 177 49 188 68 q 145 15 167 29 q 85 0 124 1 l 19 0 m 540 58 l 640 58 q 700 75 681 58 q 726 126 719 92 q 733 211 733 160 l 733 410 q 727 474 733 446 q 701 520 721 503 q 639 538 682 538 l 540 538 l 540 58 m 433 0 l 433 819 l 539 819 l 539 604 l 672 604 q 763 588 726 604 q 817 533 799 571 q 836 433 836 496 l 836 207 q 825 106 836 146 q 792 42 814 65 q 738 10 771 19 q 660 0 706 0 l 433 0 z "},"Ł":{"ha":507,"x_min":50,"x_max":456,"o":"m 132 0 l 132 235 l 50 197 l 50 251 l 132 289 l 132 818 l 238 818 l 238 336 l 364 393 l 364 340 l 238 282 l 238 75 l 456 75 l 456 0 l 132 0 z "},"M":{"ha":739,"x_min":79,"x_max":658,"o":"m 79 0 l 79 821 l 210 821 l 369 190 l 532 821 l 658 821 l 658 0 l 564 0 l 564 650 l 407 0 l 332 0 l 175 650 l 175 0 l 79 0 z "},"N":{"ha":582,"x_min":79,"x_max":503,"o":"m 79 0 l 79 821 l 174 821 l 407 218 l 407 821 l 503 821 l 503 0 l 407 0 l 175 576 l 175 0 l 79 0 z "},"Ń":{"ha":582,"x_min":79,"x_max":503,"o":"m 79 0 l 79 821 l 174 821 l 407 218 l 407 821 l 503 821 l 503 0 l 407 0 l 175 576 l 175 0 l 79 0 m 225 881 l 336 1000 l 440 1000 l 290 881 l 225 881 z "},"Ň":{"ha":582,"x_min":79,"x_max":503,"o":"m 79 0 l 79 821 l 174 821 l 407 218 l 407 821 l 503 821 l 503 0 l 407 0 l 175 576 l 175 0 l 79 0 m 263 875 l 140 994 l 213 994 l 297 925 l 382 994 l 453 994 l 329 875 l 263 875 z "},"Ņ":{"ha":582,"x_min":79,"x_max":503,"o":"m 79 0 l 79 821 l 174 821 l 407 218 l 407 821 l 503 821 l 503 0 l 407 0 l 175 576 l 175 0 l 79 0 m 231 -236 q 258 -186 247 -210 q 269 -146 269 -162 q 262 -131 269 -137 q 247 -117 254 -125 q 239 -93 239 -108 q 253 -65 239 -78 q 289 -53 268 -53 q 327 -67 313 -53 q 342 -101 342 -82 q 331 -142 342 -118 q 306 -192 321 -167 q 275 -236 292 -217 l 231 -236 z "},"Њ":{"ha":839,"x_min":56,"x_max":781,"o":"m 56 0 l 56 821 l 163 821 l 163 468 l 375 468 l 375 821 l 483 821 l 483 604 l 615 604 q 707 588 671 604 q 762 533 743 571 q 781 433 781 496 l 781 207 q 769 106 781 146 q 737 42 758 65 q 682 10 715 19 q 604 0 649 0 l 375 0 l 375 386 l 163 386 l 163 0 l 56 0 m 483 60 l 582 60 q 642 76 622 60 q 668 126 661 92 q 675 208 675 160 l 675 392 q 669 471 675 439 q 644 520 664 503 q 581 538 624 538 l 483 538 l 483 60 z "},"Ñ":{"ha":582,"x_min":79,"x_max":503,"o":"m 79 0 l 79 821 l 174 821 l 407 218 l 407 821 l 503 821 l 503 0 l 407 0 l 175 576 l 175 0 l 79 0 m 354 888 q 320 894 335 888 q 286 913 306 901 q 258 929 274 921 q 226 938 243 938 q 199 925 210 938 q 185 889 188 913 l 147 889 q 170 962 149 933 q 228 990 192 990 q 265 983 249 990 q 299 964 282 975 q 327 949 314 956 q 354 942 340 942 q 383 953 372 942 q 399 988 394 965 l 439 988 q 425 933 438 956 q 394 899 413 911 q 354 888 375 888 z "},"O":{"ha":561,"x_min":67,"x_max":494,"o":"m 279 -17 q 169 -2 217 -17 q 94 58 122 13 q 67 196 67 104 l 67 649 q 94 765 67 725 q 170 818 122 804 q 281 832 218 832 q 391 817 343 832 q 467 764 439 803 q 494 649 494 725 l 494 196 q 467 58 494 103 q 390 -2 439 13 q 279 -17 342 -17 m 279 49 q 335 57 311 49 q 374 90 360 65 q 388 163 388 114 l 388 651 q 374 723 388 699 q 335 756 360 747 q 279 764 311 764 q 224 756 247 764 q 186 723 200 747 q 172 651 172 699 l 172 163 q 186 90 172 114 q 224 57 200 65 q 279 49 247 49 z "},"О":{"ha":561,"x_min":67,"x_max":494,"o":"m 279 -17 q 169 -2 217 -17 q 94 58 122 13 q 67 196 67 104 l 67 649 q 94 765 67 725 q 170 818 122 804 q 281 832 218 832 q 391 817 343 832 q 467 764 439 803 q 494 649 494 725 l 494 196 q 467 58 494 103 q 390 -2 439 13 q 279 -17 342 -17 m 279 49 q 335 57 311 49 q 374 90 360 65 q 388 163 388 114 l 388 651 q 374 723 388 699 q 335 756 360 747 q 279 764 311 764 q 224 756 247 764 q 186 723 200 747 q 172 651 172 699 l 172 163 q 186 90 172 114 q 224 57 200 65 q 279 49 247 49 z "},"Œ":{"ha":792,"x_min":67,"x_max":760,"o":"m 279 -17 q 170 -2 218 -17 q 94 58 122 13 q 67 196 67 104 l 67 649 q 94 765 67 725 q 171 818 122 804 q 281 832 219 832 q 386 817 340 832 q 458 764 432 803 q 485 649 485 725 l 485 196 q 458 58 485 103 q 386 -2 432 13 q 279 -17 340 -17 m 281 49 q 337 57 313 49 q 374 90 361 65 q 388 163 388 114 l 388 651 q 374 723 388 699 q 336 756 361 747 q 281 764 311 764 q 224 756 249 764 q 186 723 200 747 q 172 651 172 699 l 172 163 q 186 90 172 114 q 224 57 200 65 q 281 49 249 49 m 389 0 l 389 821 l 760 821 l 760 744 l 494 744 l 494 469 l 713 469 l 713 386 l 494 386 l 494 75 l 760 75 l 760 0 l 389 0 z "},"Ó":{"ha":561,"x_min":67,"x_max":494,"o":"m 279 -17 q 169 -2 217 -17 q 94 58 122 13 q 67 196 67 104 l 67 649 q 94 765 67 725 q 170 818 122 804 q 281 832 218 832 q 391 817 343 832 q 467 764 439 803 q 494 649 494 725 l 494 196 q 467 58 494 103 q 390 -2 439 13 q 279 -17 342 -17 m 279 49 q 335 57 311 49 q 374 90 360 65 q 388 163 388 114 l 388 651 q 374 723 388 699 q 335 756 360 747 q 279 764 311 764 q 224 756 247 764 q 186 723 200 747 q 172 651 172 699 l 172 163 q 186 90 172 114 q 224 57 200 65 q 279 49 247 49 m 210 881 l 321 1000 l 425 1000 l 275 881 l 210 881 z "},"Ǒ":{"ha":561,"x_min":67,"x_max":494,"o":"m 279 -17 q 169 -2 217 -17 q 94 58 122 13 q 67 196 67 104 l 67 649 q 94 765 67 725 q 170 818 122 804 q 281 832 218 832 q 391 817 343 832 q 467 764 439 803 q 494 649 494 725 l 494 196 q 467 58 494 103 q 390 -2 439 13 q 279 -17 342 -17 m 279 49 q 335 57 311 49 q 374 90 360 65 q 388 163 388 114 l 388 651 q 374 723 388 699 q 335 756 360 747 q 279 764 311 764 q 224 756 247 764 q 186 723 200 747 q 172 651 172 699 l 172 163 q 186 90 172 114 q 224 57 200 65 q 279 49 247 49 m 247 875 l 125 994 l 197 994 l 282 925 l 367 994 l 438 994 l 314 875 l 247 875 z "},"Ô":{"ha":561,"x_min":67,"x_max":494,"o":"m 279 -17 q 169 -2 217 -17 q 94 58 122 13 q 67 196 67 104 l 67 649 q 94 765 67 725 q 170 818 122 804 q 281 832 218 832 q 391 817 343 832 q 467 764 439 803 q 494 649 494 725 l 494 196 q 467 58 494 103 q 390 -2 439 13 q 279 -17 342 -17 m 279 49 q 335 57 311 49 q 374 90 360 65 q 388 163 388 114 l 388 651 q 374 723 388 699 q 335 756 360 747 q 279 764 311 764 q 224 756 247 764 q 186 723 200 747 q 172 651 172 699 l 172 163 q 186 90 172 114 q 224 57 200 65 q 279 49 247 49 m 121 875 l 249 1003 l 314 1003 l 442 875 l 372 875 l 282 953 l 193 875 l 121 875 z "},"Ố":{"ha":561,"x_min":67,"x_max":560,"o":"m 279 -17 q 169 -2 217 -17 q 94 58 122 13 q 67 196 67 104 l 67 649 q 94 765 67 725 q 170 818 122 804 q 281 832 218 832 q 391 817 343 832 q 467 764 439 803 q 494 649 494 725 l 494 196 q 467 58 494 103 q 390 -2 439 13 q 279 -17 342 -17 m 279 49 q 335 57 311 49 q 374 90 360 65 q 388 163 388 114 l 388 651 q 374 723 388 699 q 335 756 360 747 q 279 764 311 764 q 224 756 247 764 q 186 723 200 747 q 172 651 172 699 l 172 163 q 186 90 172 114 q 224 57 200 65 q 279 49 247 49 m 160 869 l 251 971 l 311 971 l 403 869 l 339 869 l 282 924 l 226 869 l 160 869 m 401 935 l 457 1032 l 560 1032 l 468 935 l 401 935 z "},"Ộ":{"ha":561,"x_min":67,"x_max":494,"o":"m 279 -17 q 169 -2 217 -17 q 94 58 122 13 q 67 196 67 104 l 67 649 q 94 765 67 725 q 170 818 122 804 q 281 832 218 832 q 391 817 343 832 q 467 764 439 803 q 494 649 494 725 l 494 196 q 467 58 494 103 q 390 -2 439 13 q 279 -17 342 -17 m 279 49 q 335 57 311 49 q 374 90 360 65 q 388 163 388 114 l 388 651 q 374 723 388 699 q 335 756 360 747 q 279 764 311 764 q 224 756 247 764 q 186 723 200 747 q 172 651 172 699 l 172 163 q 186 90 172 114 q 224 57 200 65 q 279 49 247 49 m 281 -158 q 244 -143 258 -158 q 229 -108 229 -128 q 244 -73 229 -87 q 281 -58 258 -58 q 317 -73 301 -58 q 333 -108 333 -87 q 317 -143 333 -128 q 281 -158 301 -158 m 121 875 l 249 1003 l 314 1003 l 442 875 l 372 875 l 282 953 l 193 875 l 121 875 z "},"Ồ":{"ha":561,"x_min":67,"x_max":500,"o":"m 279 -17 q 169 -2 217 -17 q 94 58 122 13 q 67 196 67 104 l 67 649 q 94 765 67 725 q 170 818 122 804 q 281 832 218 832 q 391 817 343 832 q 467 764 439 803 q 494 649 494 725 l 494 196 q 467 58 494 103 q 390 -2 439 13 q 279 -17 342 -17 m 279 49 q 335 57 311 49 q 374 90 360 65 q 388 163 388 114 l 388 651 q 374 723 388 699 q 335 756 360 747 q 279 764 311 764 q 224 756 247 764 q 186 723 200 747 q 172 651 172 699 l 172 163 q 186 90 172 114 q 224 57 200 65 q 279 49 247 49 m 160 869 l 251 971 l 311 971 l 403 869 l 339 869 l 282 924 l 226 869 l 160 869 m 433 933 l 342 1031 l 444 1031 l 500 933 l 433 933 z "},"Ổ":{"ha":561,"x_min":67,"x_max":515,"o":"m 279 -17 q 169 -2 217 -17 q 94 58 122 13 q 67 196 67 104 l 67 649 q 94 765 67 725 q 170 818 122 804 q 281 832 218 832 q 391 817 343 832 q 467 764 439 803 q 494 649 494 725 l 494 196 q 467 58 494 103 q 390 -2 439 13 q 279 -17 342 -17 m 279 49 q 335 57 311 49 q 374 90 360 65 q 388 163 388 114 l 388 651 q 374 723 388 699 q 335 756 360 747 q 279 764 311 764 q 224 756 247 764 q 186 723 200 747 q 172 651 172 699 l 172 163 q 186 90 172 114 q 224 57 200 65 q 279 49 247 49 m 160 869 l 251 971 l 311 971 l 403 869 l 339 869 l 282 924 l 226 869 l 160 869 m 414 931 l 414 944 q 425 965 414 958 q 447 979 436 972 q 458 997 458 986 l 458 1003 q 453 1019 458 1013 q 436 1025 447 1025 q 415 1004 419 1025 l 369 1013 q 390 1050 372 1036 q 440 1064 407 1064 q 499 1051 482 1064 q 515 1004 515 1039 l 515 1001 q 504 971 515 979 q 481 958 493 963 q 469 942 469 953 l 469 931 l 414 931 z "},"Ỗ":{"ha":561,"x_min":67,"x_max":494,"o":"m 279 -17 q 169 -2 217 -17 q 94 58 122 13 q 67 196 67 104 l 67 649 q 94 765 67 725 q 170 818 122 804 q 281 832 218 832 q 391 817 343 832 q 467 764 439 803 q 494 649 494 725 l 494 196 q 467 58 494 103 q 390 -2 439 13 q 279 -17 342 -17 m 279 49 q 335 57 311 49 q 374 90 360 65 q 388 163 388 114 l 388 651 q 374 723 388 699 q 335 756 360 747 q 279 764 311 764 q 224 756 247 764 q 186 723 200 747 q 172 651 172 699 l 172 163 q 186 90 172 114 q 224 57 200 65 q 279 49 247 49 m 160 869 l 251 971 l 311 971 l 403 869 l 339 869 l 282 924 l 226 869 l 160 869 m 326 993 q 299 999 311 993 q 275 1013 288 1004 q 253 1024 264 1018 q 232 1029 243 1029 q 211 1020 219 1029 q 201 994 203 1011 l 171 994 q 189 1055 172 1033 q 232 1076 206 1076 q 259 1073 246 1076 q 286 1060 272 1069 q 306 1049 296 1053 q 326 1044 317 1044 q 348 1053 340 1044 q 358 1075 356 1061 l 393 1075 q 381 1031 392 1050 q 356 1003 371 1013 q 326 993 342 993 z "},"Ö":{"ha":561,"x_min":67,"x_max":494,"o":"m 279 -17 q 169 -2 217 -17 q 94 58 122 13 q 67 196 67 104 l 67 649 q 94 765 67 725 q 170 818 122 804 q 281 832 218 832 q 391 817 343 832 q 467 764 439 803 q 494 649 494 725 l 494 196 q 467 58 494 103 q 390 -2 439 13 q 279 -17 342 -17 m 279 49 q 335 57 311 49 q 374 90 360 65 q 388 163 388 114 l 388 651 q 374 723 388 699 q 335 756 360 747 q 279 764 311 764 q 224 756 247 764 q 186 723 200 747 q 172 651 172 699 l 172 163 q 186 90 172 114 q 224 57 200 65 q 279 49 247 49 m 210 886 q 173 901 188 886 q 158 936 158 915 q 173 970 158 957 q 210 983 188 983 q 245 970 231 983 q 260 936 260 957 q 245 901 260 915 q 210 886 231 886 m 353 886 q 317 901 332 886 q 301 936 301 915 q 317 970 301 957 q 353 983 332 983 q 389 970 375 983 q 403 936 403 957 q 389 901 403 915 q 353 886 375 886 z "},"Ọ":{"ha":561,"x_min":67,"x_max":494,"o":"m 279 -17 q 169 -2 217 -17 q 94 58 122 13 q 67 196 67 104 l 67 649 q 94 765 67 725 q 170 818 122 804 q 281 832 218 832 q 391 817 343 832 q 467 764 439 803 q 494 649 494 725 l 494 196 q 467 58 494 103 q 390 -2 439 13 q 279 -17 342 -17 m 279 49 q 335 57 311 49 q 374 90 360 65 q 388 163 388 114 l 388 651 q 374 723 388 699 q 335 756 360 747 q 279 764 311 764 q 224 756 247 764 q 186 723 200 747 q 172 651 172 699 l 172 163 q 186 90 172 114 q 224 57 200 65 q 279 49 247 49 m 281 -158 q 244 -143 258 -158 q 229 -108 229 -128 q 244 -73 229 -87 q 281 -58 258 -58 q 317 -73 301 -58 q 333 -108 333 -87 q 317 -143 333 -128 q 281 -158 301 -158 z "},"Ò":{"ha":561,"x_min":67,"x_max":494,"o":"m 279 -17 q 169 -2 217 -17 q 94 58 122 13 q 67 196 67 104 l 67 649 q 94 765 67 725 q 170 818 122 804 q 281 832 218 832 q 391 817 343 832 q 467 764 439 803 q 494 649 494 725 l 494 196 q 467 58 494 103 q 390 -2 439 13 q 279 -17 342 -17 m 279 49 q 335 57 311 49 q 374 90 360 65 q 388 163 388 114 l 388 651 q 374 723 388 699 q 335 756 360 747 q 279 764 311 764 q 224 756 247 764 q 186 723 200 747 q 172 651 172 699 l 172 163 q 186 90 172 114 q 224 57 200 65 q 279 49 247 49 m 279 881 l 136 997 l 242 997 l 350 881 l 279 881 z "},"Ỏ":{"ha":561,"x_min":67,"x_max":494,"o":"m 279 -17 q 169 -2 217 -17 q 94 58 122 13 q 67 196 67 104 l 67 649 q 94 765 67 725 q 170 818 122 804 q 281 832 218 832 q 391 817 343 832 q 467 764 439 803 q 494 649 494 725 l 494 196 q 467 58 494 103 q 390 -2 439 13 q 279 -17 342 -17 m 279 49 q 335 57 311 49 q 374 90 360 65 q 388 163 388 114 l 388 651 q 374 723 388 699 q 335 756 360 747 q 279 764 311 764 q 224 756 247 764 q 186 723 200 747 q 172 651 172 699 l 172 163 q 186 90 172 114 q 224 57 200 65 q 279 49 247 49 m 249 871 l 249 892 q 265 922 249 911 q 296 941 281 932 q 311 968 311 950 l 311 975 q 303 999 311 988 q 275 1010 294 1010 q 243 978 249 1010 l 192 988 q 218 1036 196 1019 q 281 1053 240 1053 q 351 1037 328 1053 q 374 975 374 1021 l 374 972 q 357 929 374 942 q 324 910 340 917 q 307 886 307 903 l 307 871 l 249 871 z "},"Ơ":{"ha":561,"x_min":67,"x_max":507,"o":"m 279 -17 q 169 -2 217 -17 q 94 58 122 13 q 67 196 67 104 l 67 649 q 94 765 67 725 q 170 818 122 804 q 281 832 218 832 q 391 817 343 832 q 467 764 439 803 q 494 649 494 725 l 494 196 q 467 58 494 103 q 390 -2 439 13 q 279 -17 342 -17 m 279 49 q 335 57 311 49 q 374 90 360 65 q 388 163 388 114 l 388 651 q 374 723 388 699 q 335 756 360 747 q 279 764 311 764 q 224 756 247 764 q 186 723 200 747 q 172 651 172 699 l 172 163 q 186 90 172 114 q 224 57 200 65 q 279 49 247 49 m 353 771 l 350 821 l 369 821 q 435 883 435 821 l 435 907 l 507 907 l 507 888 q 468 799 507 828 q 353 771 429 769 z "},"Ớ":{"ha":561,"x_min":67,"x_max":507,"o":"m 279 -17 q 169 -2 217 -17 q 94 58 122 13 q 67 196 67 104 l 67 649 q 94 765 67 725 q 170 818 122 804 q 281 832 218 832 q 391 817 343 832 q 467 764 439 803 q 494 649 494 725 l 494 196 q 467 58 494 103 q 390 -2 439 13 q 279 -17 342 -17 m 279 49 q 335 57 311 49 q 374 90 360 65 q 388 163 388 114 l 388 651 q 374 723 388 699 q 335 756 360 747 q 279 764 311 764 q 224 756 247 764 q 186 723 200 747 q 172 651 172 699 l 172 163 q 186 90 172 114 q 224 57 200 65 q 279 49 247 49 m 353 771 l 350 821 l 369 821 q 435 883 435 821 l 435 907 l 507 907 l 507 888 q 468 799 507 828 q 353 771 429 769 m 210 881 l 321 1000 l 425 1000 l 275 881 l 210 881 z "},"Ợ":{"ha":561,"x_min":67,"x_max":507,"o":"m 279 -17 q 169 -2 217 -17 q 94 58 122 13 q 67 196 67 104 l 67 649 q 94 765 67 725 q 170 818 122 804 q 281 832 218 832 q 391 817 343 832 q 467 764 439 803 q 494 649 494 725 l 494 196 q 467 58 494 103 q 390 -2 439 13 q 279 -17 342 -17 m 279 49 q 335 57 311 49 q 374 90 360 65 q 388 163 388 114 l 388 651 q 374 723 388 699 q 335 756 360 747 q 279 764 311 764 q 224 756 247 764 q 186 723 200 747 q 172 651 172 699 l 172 163 q 186 90 172 114 q 224 57 200 65 q 279 49 247 49 m 353 771 l 350 821 l 369 821 q 435 883 435 821 l 435 907 l 507 907 l 507 888 q 468 799 507 828 q 353 771 429 769 m 281 -158 q 244 -143 258 -158 q 229 -108 229 -128 q 244 -73 229 -87 q 281 -58 258 -58 q 317 -73 301 -58 q 333 -108 333 -87 q 317 -143 333 -128 q 281 -158 301 -158 z "},"Ờ":{"ha":561,"x_min":67,"x_max":507,"o":"m 279 -17 q 169 -2 217 -17 q 94 58 122 13 q 67 196 67 104 l 67 649 q 94 765 67 725 q 170 818 122 804 q 281 832 218 832 q 391 817 343 832 q 467 764 439 803 q 494 649 494 725 l 494 196 q 467 58 494 103 q 390 -2 439 13 q 279 -17 342 -17 m 279 49 q 335 57 311 49 q 374 90 360 65 q 388 163 388 114 l 388 651 q 374 723 388 699 q 335 756 360 747 q 279 764 311 764 q 224 756 247 764 q 186 723 200 747 q 172 651 172 699 l 172 163 q 186 90 172 114 q 224 57 200 65 q 279 49 247 49 m 353 771 l 350 821 l 369 821 q 435 883 435 821 l 435 907 l 507 907 l 507 888 q 468 799 507 828 q 353 771 429 769 m 279 881 l 136 997 l 242 997 l 350 881 l 279 881 z "},"Ở":{"ha":561,"x_min":67,"x_max":507,"o":"m 279 -17 q 169 -2 217 -17 q 94 58 122 13 q 67 196 67 104 l 67 649 q 94 765 67 725 q 170 818 122 804 q 281 832 218 832 q 391 817 343 832 q 467 764 439 803 q 494 649 494 725 l 494 196 q 467 58 494 103 q 390 -2 439 13 q 279 -17 342 -17 m 279 49 q 335 57 311 49 q 374 90 360 65 q 388 163 388 114 l 388 651 q 374 723 388 699 q 335 756 360 747 q 279 764 311 764 q 224 756 247 764 q 186 723 200 747 q 172 651 172 699 l 172 163 q 186 90 172 114 q 224 57 200 65 q 279 49 247 49 m 353 771 l 350 821 l 369 821 q 435 883 435 821 l 435 907 l 507 907 l 507 888 q 468 799 507 828 q 353 771 429 769 m 249 871 l 249 892 q 265 922 249 911 q 296 941 281 932 q 311 968 311 950 l 311 975 q 303 999 311 988 q 275 1010 294 1010 q 243 978 249 1010 l 192 988 q 218 1036 196 1019 q 281 1053 240 1053 q 351 1037 328 1053 q 374 975 374 1021 l 374 972 q 357 929 374 942 q 324 910 340 917 q 307 886 307 903 l 307 871 l 249 871 z "},"Ỡ":{"ha":561,"x_min":67,"x_max":507,"o":"m 279 -17 q 169 -2 217 -17 q 94 58 122 13 q 67 196 67 104 l 67 649 q 94 765 67 725 q 170 818 122 804 q 281 832 218 832 q 391 817 343 832 q 467 764 439 803 q 494 649 494 725 l 494 196 q 467 58 494 103 q 390 -2 439 13 q 279 -17 342 -17 m 279 49 q 335 57 311 49 q 374 90 360 65 q 388 163 388 114 l 388 651 q 374 723 388 699 q 335 756 360 747 q 279 764 311 764 q 224 756 247 764 q 186 723 200 747 q 172 651 172 699 l 172 163 q 186 90 172 114 q 224 57 200 65 q 279 49 247 49 m 353 771 l 350 821 l 369 821 q 435 883 435 821 l 435 907 l 507 907 l 507 888 q 468 799 507 828 q 353 771 429 769 m 340 888 q 306 894 321 888 q 272 913 292 901 q 244 929 260 921 q 213 938 229 938 q 185 925 196 938 q 171 889 174 913 l 133 889 q 156 962 135 933 q 214 990 178 990 q 251 983 235 990 q 285 964 268 975 q 313 949 300 956 q 340 942 326 942 q 369 953 358 942 q 385 988 381 965 l 425 988 q 411 933 424 956 q 380 899 399 911 q 340 888 361 888 z "},"Ő":{"ha":561,"x_min":67,"x_max":494,"o":"m 279 -17 q 169 -2 217 -17 q 94 58 122 13 q 67 196 67 104 l 67 649 q 94 765 67 725 q 170 818 122 804 q 281 832 218 832 q 391 817 343 832 q 467 764 439 803 q 494 649 494 725 l 494 196 q 467 58 494 103 q 390 -2 439 13 q 279 -17 342 -17 m 279 49 q 335 57 311 49 q 374 90 360 65 q 388 163 388 114 l 388 651 q 374 723 388 699 q 335 756 360 747 q 279 764 311 764 q 224 756 247 764 q 186 723 200 747 q 172 651 172 699 l 172 163 q 186 90 172 114 q 224 57 200 65 q 279 49 247 49 m 192 874 l 226 1006 l 315 1006 l 236 874 l 192 874 m 299 874 l 344 1006 l 433 1006 l 350 874 l 299 874 z "},"Ō":{"ha":561,"x_min":67,"x_max":494,"o":"m 279 -17 q 169 -2 217 -17 q 94 58 122 13 q 67 196 67 104 l 67 649 q 94 765 67 725 q 170 818 122 804 q 281 832 218 832 q 391 817 343 832 q 467 764 439 803 q 494 649 494 725 l 494 196 q 467 58 494 103 q 390 -2 439 13 q 279 -17 342 -17 m 279 49 q 335 57 311 49 q 374 90 360 65 q 388 163 388 114 l 388 651 q 374 723 388 699 q 335 756 360 747 q 279 764 311 764 q 224 756 247 764 q 186 723 200 747 q 172 651 172 699 l 172 163 q 186 90 172 114 q 224 57 200 65 q 279 49 247 49 m 149 901 l 149 958 l 414 958 l 414 901 l 149 901 z "},"Ω":{"ha":833,"x_min":61,"x_max":796,"o":"m 61 0 l 61 82 l 285 76 l 267 88 q 163 199 201 140 q 107 317 124 257 q 90 431 90 376 q 110 574 90 510 q 172 685 131 638 q 278 758 214 732 q 431 783 343 783 q 583 757 519 783 q 688 684 647 731 q 749 574 729 638 q 768 438 768 511 q 751 319 768 379 q 694 200 733 258 q 589 88 656 142 l 571 76 l 796 82 l 796 0 l 478 0 l 478 63 q 571 151 535 106 q 627 242 607 196 q 656 333 647 288 q 664 419 664 378 q 638 572 664 506 q 560 677 613 639 q 431 715 508 715 q 299 677 353 715 q 219 569 246 639 q 193 408 193 500 q 201 329 193 372 q 230 240 210 286 q 286 149 250 194 q 379 63 322 103 l 379 0 l 61 0 z "},"Ø":{"ha":585,"x_min":44,"x_max":524,"o":"m 44 -19 l 467 821 l 524 821 l 100 -19 l 44 -19 m 292 -17 q 181 -2 229 -17 q 104 58 132 13 q 76 196 76 104 l 76 649 q 105 765 76 725 q 182 818 133 804 q 293 832 231 832 q 404 817 357 832 q 478 764 451 803 q 504 649 504 725 l 504 196 q 478 58 504 103 q 404 -2 451 13 q 292 -17 357 -17 m 293 49 q 347 56 324 49 q 384 88 371 64 q 397 163 397 113 l 397 651 q 384 724 397 700 q 347 756 371 749 q 293 764 324 764 q 238 756 263 764 q 201 724 214 749 q 188 651 188 700 l 188 163 q 201 88 188 113 q 238 56 214 64 q 293 49 263 49 z "},"Õ":{"ha":561,"x_min":67,"x_max":494,"o":"m 279 -17 q 169 -2 217 -17 q 94 58 122 13 q 67 196 67 104 l 67 649 q 94 765 67 725 q 170 818 122 804 q 281 832 218 832 q 391 817 343 832 q 467 764 439 803 q 494 649 494 725 l 494 196 q 467 58 494 103 q 390 -2 439 13 q 279 -17 342 -17 m 279 49 q 335 57 311 49 q 374 90 360 65 q 388 163 388 114 l 388 651 q 374 723 388 699 q 335 756 360 747 q 279 764 311 764 q 224 756 247 764 q 186 723 200 747 q 172 651 172 699 l 172 163 q 186 90 172 114 q 224 57 200 65 q 279 49 247 49 m 340 888 q 306 894 321 888 q 272 913 292 901 q 244 929 260 921 q 213 938 229 938 q 185 925 196 938 q 171 889 174 913 l 133 889 q 156 962 135 933 q 214 990 178 990 q 251 983 235 990 q 285 964 268 975 q 313 949 300 956 q 340 942 326 942 q 369 953 358 942 q 385 988 381 965 l 425 988 q 411 933 424 956 q 380 899 399 911 q 340 888 361 888 z "},"P":{"ha":536,"x_min":79,"x_max":503,"o":"m 79 0 l 79 821 l 344 821 q 460 787 418 821 q 503 683 503 753 l 503 535 q 490 443 503 486 q 439 374 476 400 q 331 347 401 347 l 192 347 l 192 0 l 79 0 m 192 410 l 296 410 q 371 443 346 410 q 396 549 396 476 l 396 640 q 373 731 396 703 q 315 760 350 760 l 192 760 l 192 410 z "},"П":{"ha":528,"x_min":56,"x_max":472,"o":"m 56 0 l 56 821 l 472 821 l 472 0 l 360 0 l 360 743 l 168 743 l 168 0 l 56 0 z "},"Q":{"ha":565,"x_min":67,"x_max":499,"o":"m 415 -165 l 328 -12 q 305 -13 317 -12 q 279 -14 293 -14 q 170 1 218 -14 q 94 60 122 15 q 67 197 67 106 l 67 649 q 95 765 67 725 q 173 818 124 804 q 285 832 222 832 q 397 817 350 832 q 472 764 444 803 q 499 649 499 725 l 499 199 q 476 72 499 115 q 414 11 454 29 l 490 -121 l 415 -165 m 285 51 q 340 59 317 51 q 378 91 364 67 q 392 164 392 115 l 392 651 q 378 724 392 700 q 340 756 364 749 q 285 764 315 764 q 228 756 253 764 q 191 724 204 749 q 178 651 178 700 l 178 164 q 191 91 178 115 q 228 59 204 67 q 285 51 253 51 z "},"R":{"ha":578,"x_min":79,"x_max":542,"o":"m 79 0 l 79 821 l 349 821 q 465 787 422 821 q 507 683 507 753 l 507 553 q 467 442 507 482 q 354 399 426 401 l 354 399 q 422 368 400 396 q 460 282 443 340 l 542 0 l 425 0 l 354 275 q 338 322 347 300 q 314 358 328 344 q 276 371 300 371 l 190 371 l 190 0 l 79 0 m 190 446 l 299 446 q 376 471 350 446 q 401 557 401 496 l 401 665 q 377 738 401 715 q 318 760 353 760 l 190 760 l 190 446 z "},"Ŕ":{"ha":578,"x_min":79,"x_max":542,"o":"m 79 0 l 79 821 l 349 821 q 465 787 422 821 q 507 683 507 753 l 507 553 q 467 442 507 482 q 354 399 426 401 l 354 399 q 422 368 400 396 q 460 282 443 340 l 542 0 l 425 0 l 354 275 q 338 322 347 300 q 314 358 328 344 q 276 371 300 371 l 190 371 l 190 0 l 79 0 m 190 446 l 299 446 q 376 471 350 446 q 401 557 401 496 l 401 665 q 377 738 401 715 q 318 760 353 760 l 190 760 l 190 446 m 217 881 l 328 1000 l 432 1000 l 282 881 l 217 881 z "},"Ř":{"ha":578,"x_min":79,"x_max":542,"o":"m 79 0 l 79 821 l 349 821 q 465 787 422 821 q 507 683 507 753 l 507 553 q 467 442 507 482 q 354 399 426 401 l 354 399 q 422 368 400 396 q 460 282 443 340 l 542 0 l 425 0 l 354 275 q 338 322 347 300 q 314 358 328 344 q 276 371 300 371 l 190 371 l 190 0 l 79 0 m 190 446 l 299 446 q 376 471 350 446 q 401 557 401 496 l 401 665 q 377 738 401 715 q 318 760 353 760 l 190 760 l 190 446 m 254 875 l 132 994 l 204 994 l 289 925 l 374 994 l 444 994 l 321 875 l 254 875 z "},"Ŗ":{"ha":578,"x_min":79,"x_max":542,"o":"m 79 0 l 79 821 l 349 821 q 465 787 422 821 q 507 683 507 753 l 507 553 q 467 442 507 482 q 354 399 426 401 l 354 399 q 422 368 400 396 q 460 282 443 340 l 542 0 l 425 0 l 354 275 q 338 322 347 300 q 314 358 328 344 q 276 371 300 371 l 190 371 l 190 0 l 79 0 m 190 446 l 299 446 q 376 471 350 446 q 401 557 401 496 l 401 665 q 377 738 401 715 q 318 760 353 760 l 190 760 l 190 446 m 239 -236 q 267 -186 256 -210 q 278 -146 278 -162 q 270 -131 278 -137 q 255 -117 263 -125 q 247 -93 247 -108 q 262 -65 247 -78 q 297 -53 276 -53 q 335 -67 321 -53 q 350 -101 350 -82 q 340 -142 350 -118 q 315 -192 329 -167 q 283 -236 300 -217 l 239 -236 z "},"S":{"ha":525,"x_min":47,"x_max":478,"o":"m 257 -10 q 144 12 192 -10 q 72 86 97 33 q 47 232 47 139 l 47 279 q 103 279 75 279 q 157 279 131 279 l 157 225 q 169 124 157 160 q 206 75 182 89 q 258 61 229 61 q 336 92 306 61 q 367 206 367 124 q 349 295 367 265 q 294 343 331 325 q 204 383 258 361 q 124 429 158 403 q 71 498 89 456 q 53 604 53 540 q 73 727 53 679 q 139 799 93 775 q 263 822 185 822 q 415 774 361 822 q 469 638 469 726 l 469 544 q 417 544 443 544 q 364 544 390 544 l 364 608 q 339 706 364 674 q 263 738 314 738 q 185 706 208 738 q 161 607 161 674 q 181 526 161 556 q 234 480 201 496 q 303 450 267 464 q 403 401 365 426 q 460 335 442 375 q 478 219 478 294 q 450 84 478 135 q 373 12 422 33 q 257 -10 324 -10 z "},"Ś":{"ha":525,"x_min":47,"x_max":478,"o":"m 257 -10 q 144 12 192 -10 q 72 86 97 33 q 47 232 47 139 l 47 279 q 103 279 75 279 q 157 279 131 279 l 157 225 q 169 124 157 160 q 206 75 182 89 q 258 61 229 61 q 336 92 306 61 q 367 206 367 124 q 349 295 367 265 q 294 343 331 325 q 204 383 258 361 q 124 429 158 403 q 71 498 89 456 q 53 604 53 540 q 73 727 53 679 q 139 799 93 775 q 263 822 185 822 q 415 774 361 822 q 469 638 469 726 l 469 544 q 417 544 443 544 q 364 544 390 544 l 364 608 q 339 706 364 674 q 263 738 314 738 q 185 706 208 738 q 161 607 161 674 q 181 526 161 556 q 234 480 201 496 q 303 450 267 464 q 403 401 365 426 q 460 335 442 375 q 478 219 478 294 q 450 84 478 135 q 373 12 422 33 q 257 -10 324 -10 m 192 881 l 303 1000 l 407 1000 l 257 881 l 192 881 z "},"Š":{"ha":525,"x_min":47,"x_max":478,"o":"m 257 -10 q 144 12 192 -10 q 72 86 97 33 q 47 232 47 139 l 47 279 q 103 279 75 279 q 157 279 131 279 l 157 225 q 169 124 157 160 q 206 75 182 89 q 258 61 229 61 q 336 92 306 61 q 367 206 367 124 q 349 295 367 265 q 294 343 331 325 q 204 383 258 361 q 124 429 158 403 q 71 498 89 456 q 53 604 53 540 q 73 727 53 679 q 139 799 93 775 q 263 822 185 822 q 415 774 361 822 q 469 638 469 726 l 469 544 q 417 544 443 544 q 364 544 390 544 l 364 608 q 339 706 364 674 q 263 738 314 738 q 185 706 208 738 q 161 607 161 674 q 181 526 161 556 q 234 480 201 496 q 303 450 267 464 q 403 401 365 426 q 460 335 442 375 q 478 219 478 294 q 450 84 478 135 q 373 12 422 33 q 257 -10 324 -10 m 229 875 l 107 994 l 179 994 l 264 925 l 349 994 l 419 994 l 296 875 l 229 875 z "},"Ş":{"ha":525,"x_min":47,"x_max":478,"o":"m 257 -10 q 144 12 192 -10 q 72 86 97 33 q 47 232 47 139 l 47 279 q 103 279 75 279 q 157 279 131 279 l 157 225 q 169 124 157 160 q 206 75 182 89 q 258 61 229 61 q 336 92 306 61 q 367 206 367 124 q 349 295 367 265 q 294 343 331 325 q 204 383 258 361 q 124 429 158 403 q 71 498 89 456 q 53 604 53 540 q 73 727 53 679 q 139 799 93 775 q 263 822 185 822 q 415 774 361 822 q 469 638 469 726 l 469 544 q 417 544 443 544 q 364 544 390 544 l 364 608 q 339 706 364 674 q 263 738 314 738 q 185 706 208 738 q 161 607 161 674 q 181 526 161 556 q 234 480 201 496 q 303 450 267 464 q 403 401 365 426 q 460 335 442 375 q 478 219 478 294 q 450 84 478 135 q 373 12 422 33 q 257 -10 324 -10 m 256 -208 q 215 -200 233 -208 q 185 -186 196 -192 l 200 -149 q 224 -161 208 -156 q 251 -167 240 -167 q 290 -155 278 -167 q 303 -125 303 -143 q 292 -99 303 -108 q 264 -89 281 -89 q 246 -92 254 -89 q 231 -101 238 -96 l 197 -83 l 242 0 l 286 0 l 249 -71 l 240 -68 q 263 -59 250 -62 q 289 -56 275 -56 q 344 -78 324 -56 q 364 -124 364 -100 q 336 -184 364 -160 q 256 -208 308 -208 z "},"Ș":{"ha":525,"x_min":47,"x_max":478,"o":"m 257 -10 q 144 12 192 -10 q 72 86 97 33 q 47 232 47 139 l 47 279 q 103 279 75 279 q 157 279 131 279 l 157 225 q 169 124 157 160 q 206 75 182 89 q 258 61 229 61 q 336 92 306 61 q 367 206 367 124 q 349 295 367 265 q 294 343 331 325 q 204 383 258 361 q 124 429 158 403 q 71 498 89 456 q 53 604 53 540 q 73 727 53 679 q 139 799 93 775 q 263 822 185 822 q 415 774 361 822 q 469 638 469 726 l 469 544 q 417 544 443 544 q 364 544 390 544 l 364 608 q 339 706 364 674 q 263 738 314 738 q 185 706 208 738 q 161 607 161 674 q 181 526 161 556 q 234 480 201 496 q 303 450 267 464 q 403 401 365 426 q 460 335 442 375 q 478 219 478 294 q 450 84 478 135 q 373 12 422 33 q 257 -10 324 -10 m 203 -236 q 231 -186 219 -210 q 242 -146 242 -162 q 234 -131 242 -137 q 219 -117 226 -125 q 211 -93 211 -108 q 226 -65 211 -78 q 261 -53 240 -53 q 299 -67 285 -53 q 314 -101 314 -82 q 303 -142 314 -118 q 278 -192 293 -167 q 247 -236 264 -217 l 203 -236 z "},"Ш":{"ha":833,"x_min":56,"x_max":778,"o":"m 56 0 l 56 821 l 167 821 l 167 76 l 361 76 l 361 821 l 472 821 l 472 76 l 667 76 l 667 821 l 778 821 l 778 0 l 56 0 z "},"Щ":{"ha":883,"x_min":56,"x_max":835,"o":"m 747 -117 l 747 0 l 56 0 l 56 821 l 167 821 l 167 76 l 361 76 l 361 821 l 472 821 l 472 76 l 667 76 l 667 821 l 778 821 l 778 53 l 835 53 l 835 -117 l 747 -117 z "},"Ь":{"ha":514,"x_min":56,"x_max":458,"o":"m 56 0 l 56 819 l 161 819 l 161 604 l 294 604 q 386 588 350 604 q 440 533 422 571 q 458 433 458 496 l 458 207 q 448 106 458 146 q 416 42 438 65 q 361 10 394 19 q 282 0 328 0 l 56 0 m 161 58 l 261 58 q 321 75 301 58 q 347 126 340 92 q 353 211 353 160 l 353 410 q 347 474 353 446 q 322 520 342 503 q 258 538 303 538 l 161 538 l 161 58 z "},"T":{"ha":408,"x_min":14,"x_max":394,"o":"m 150 0 l 150 744 l 14 744 l 14 821 l 394 821 l 394 744 l 257 744 l 257 0 l 150 0 z "},"Ŧ":{"ha":426,"x_min":14,"x_max":394,"o":"m 79 549 l 79 610 l 342 610 l 342 549 l 79 549 m 150 0 l 150 744 l 14 744 l 14 821 l 394 821 l 394 744 l 257 744 l 257 0 l 150 0 z "},"Ť":{"ha":408,"x_min":14,"x_max":394,"o":"m 150 0 l 150 744 l 14 744 l 14 821 l 394 821 l 394 744 l 257 744 l 257 0 l 150 0 m 171 875 l 49 994 l 121 994 l 206 925 l 290 994 l 361 994 l 238 875 l 171 875 z "},"Ţ":{"ha":408,"x_min":14,"x_max":394,"o":"m 150 0 l 150 744 l 14 744 l 14 821 l 394 821 l 394 744 l 257 744 l 257 0 l 150 0 m 197 -208 q 156 -200 175 -208 q 126 -186 138 -192 l 142 -149 q 166 -161 150 -156 q 193 -167 182 -167 q 232 -155 219 -167 q 244 -125 244 -143 q 233 -99 244 -108 q 206 -89 222 -89 q 188 -92 196 -89 q 172 -101 179 -96 l 139 -83 l 183 0 l 228 0 l 190 -71 l 182 -68 q 204 -59 192 -62 q 231 -56 217 -56 q 285 -78 265 -56 q 306 -124 306 -100 q 278 -184 306 -160 q 197 -208 250 -208 z "},"Ț":{"ha":408,"x_min":14,"x_max":394,"o":"m 150 0 l 150 744 l 14 744 l 14 821 l 394 821 l 394 744 l 257 744 l 257 0 l 150 0 m 144 -236 q 172 -186 161 -210 q 183 -146 183 -162 q 176 -131 183 -137 q 160 -117 168 -125 q 153 -93 153 -108 q 167 -65 153 -78 q 203 -53 182 -53 q 241 -67 226 -53 q 256 -101 256 -82 q 245 -142 256 -118 q 220 -192 235 -167 q 189 -236 206 -217 l 144 -236 z "},"Т":{"ha":408,"x_min":14,"x_max":394,"o":"m 150 0 l 150 744 l 14 744 l 14 821 l 394 821 l 394 744 l 257 744 l 257 0 l 150 0 z "},"Þ":{"ha":533,"x_min":56,"x_max":478,"o":"m 56 0 l 56 821 l 167 821 l 167 669 l 319 669 q 435 635 393 669 q 478 532 478 601 l 478 383 q 465 291 478 333 q 415 222 451 249 q 307 194 378 194 l 167 194 l 167 0 l 56 0 m 167 257 l 271 257 q 347 290 322 257 q 372 396 372 324 l 372 488 q 349 581 372 553 q 292 608 326 608 l 167 608 l 167 257 z "},"Ц":{"ha":582,"x_min":56,"x_max":532,"o":"m 444 -117 l 444 0 l 56 0 l 56 821 l 168 821 l 168 78 l 364 78 l 364 821 l 476 821 l 476 54 l 532 54 l 532 -117 l 444 -117 z "},"Ћ":{"ha":622,"x_min":19,"x_max":567,"o":"m 161 0 l 161 743 l 19 743 l 19 821 l 411 821 l 411 743 l 269 743 l 269 542 q 317 582 282 563 q 403 601 353 601 q 509 578 474 601 q 556 512 544 554 q 567 417 567 469 l 567 0 l 460 0 l 460 417 q 453 475 460 450 q 426 514 446 500 q 367 528 407 528 q 299 508 322 528 q 269 467 276 488 l 269 0 l 161 0 z "},"U":{"ha":572,"x_min":74,"x_max":497,"o":"m 286 -17 q 203 -10 242 -17 q 135 17 164 -3 q 90 77 107 38 q 74 183 74 117 l 74 821 l 182 821 l 182 158 q 197 91 182 114 q 235 60 211 68 q 286 51 258 51 q 338 60 314 51 q 377 91 363 68 q 392 158 392 114 l 392 821 l 497 821 l 497 183 q 481 78 497 118 q 437 17 465 38 q 369 -10 408 -3 q 286 -17 331 -17 z "},"У":{"ha":458,"x_min":11,"x_max":447,"o":"m 119 -14 q 67 -10 92 -14 q 25 -3 42 -7 l 25 56 q 46 52 33 54 q 72 50 58 50 q 110 56 90 50 q 142 86 131 63 q 154 117 150 100 q 160 158 158 133 l 11 821 l 121 821 l 232 244 l 232 244 l 346 821 l 447 821 l 303 182 q 239 31 279 75 q 119 -14 199 -14 z "},"Ú":{"ha":572,"x_min":74,"x_max":497,"o":"m 286 -17 q 203 -10 242 -17 q 135 17 164 -3 q 90 77 107 38 q 74 183 74 117 l 74 821 l 182 821 l 182 158 q 197 91 182 114 q 235 60 211 68 q 286 51 258 51 q 338 60 314 51 q 377 91 363 68 q 392 158 392 114 l 392 821 l 497 821 l 497 183 q 481 78 497 118 q 437 17 465 38 q 369 -10 408 -3 q 286 -17 331 -17 m 214 881 l 325 1000 l 429 1000 l 279 881 l 214 881 z "},"Ǔ":{"ha":572,"x_min":74,"x_max":497,"o":"m 286 -17 q 203 -10 242 -17 q 135 17 164 -3 q 90 77 107 38 q 74 183 74 117 l 74 821 l 182 821 l 182 158 q 197 91 182 114 q 235 60 211 68 q 286 51 258 51 q 338 60 314 51 q 377 91 363 68 q 392 158 392 114 l 392 821 l 497 821 l 497 183 q 481 78 497 118 q 437 17 465 38 q 369 -10 408 -3 q 286 -17 331 -17 m 251 875 l 129 994 l 201 994 l 286 925 l 371 994 l 442 994 l 318 875 l 251 875 z "},"Û":{"ha":572,"x_min":74,"x_max":497,"o":"m 286 -17 q 203 -10 242 -17 q 135 17 164 -3 q 90 77 107 38 q 74 183 74 117 l 74 821 l 182 821 l 182 158 q 197 91 182 114 q 235 60 211 68 q 286 51 258 51 q 338 60 314 51 q 377 91 363 68 q 392 158 392 114 l 392 821 l 497 821 l 497 183 q 481 78 497 118 q 437 17 465 38 q 369 -10 408 -3 q 286 -17 331 -17 m 125 875 l 253 1003 l 318 1003 l 446 875 l 376 875 l 286 953 l 197 875 l 125 875 z "},"Ü":{"ha":572,"x_min":74,"x_max":497,"o":"m 286 -17 q 203 -10 242 -17 q 135 17 164 -3 q 90 77 107 38 q 74 183 74 117 l 74 821 l 182 821 l 182 158 q 197 91 182 114 q 235 60 211 68 q 286 51 258 51 q 338 60 314 51 q 377 91 363 68 q 392 158 392 114 l 392 821 l 497 821 l 497 183 q 481 78 497 118 q 437 17 465 38 q 369 -10 408 -3 q 286 -17 331 -17 m 214 886 q 177 901 192 886 q 163 936 163 915 q 177 970 163 957 q 214 983 192 983 q 249 970 235 983 q 264 936 264 957 q 249 901 264 915 q 214 886 235 886 m 357 886 q 321 901 336 886 q 306 936 306 915 q 321 970 306 957 q 357 983 336 983 q 393 970 379 983 q 407 936 407 957 q 393 901 407 915 q 357 886 379 886 z "},"Ǘ":{"ha":572,"x_min":74,"x_max":497,"o":"m 286 -17 q 203 -10 242 -17 q 135 17 164 -3 q 90 77 107 38 q 74 183 74 117 l 74 821 l 182 821 l 182 158 q 197 91 182 114 q 235 60 211 68 q 286 51 258 51 q 338 60 314 51 q 377 91 363 68 q 392 158 392 114 l 392 821 l 497 821 l 497 183 q 481 78 497 118 q 437 17 465 38 q 369 -10 408 -3 q 286 -17 331 -17 m 214 886 q 177 901 192 886 q 163 936 163 915 q 177 970 163 957 q 214 983 192 983 q 249 970 235 983 q 264 936 264 957 q 249 901 264 915 q 214 886 235 886 m 357 886 q 321 901 336 886 q 306 936 306 915 q 321 970 306 957 q 357 983 336 983 q 393 970 379 983 q 407 936 407 957 q 393 901 407 915 q 357 886 379 886 m 214 1014 l 325 1133 l 429 1133 l 279 1014 l 214 1014 z "},"Ǚ":{"ha":572,"x_min":74,"x_max":497,"o":"m 286 -17 q 203 -10 242 -17 q 135 17 164 -3 q 90 77 107 38 q 74 183 74 117 l 74 821 l 182 821 l 182 158 q 197 91 182 114 q 235 60 211 68 q 286 51 258 51 q 338 60 314 51 q 377 91 363 68 q 392 158 392 114 l 392 821 l 497 821 l 497 183 q 481 78 497 118 q 437 17 465 38 q 369 -10 408 -3 q 286 -17 331 -17 m 214 886 q 177 901 192 886 q 163 936 163 915 q 177 970 163 957 q 214 983 192 983 q 249 970 235 983 q 264 936 264 957 q 249 901 264 915 q 214 886 235 886 m 357 886 q 321 901 336 886 q 306 936 306 915 q 321 970 306 957 q 357 983 336 983 q 393 970 379 983 q 407 936 407 957 q 393 901 407 915 q 357 886 379 886 m 251 1008 l 129 1128 l 201 1128 l 286 1058 l 371 1128 l 442 1128 l 318 1008 l 251 1008 z "},"Ǜ":{"ha":572,"x_min":74,"x_max":497,"o":"m 286 -17 q 203 -10 242 -17 q 135 17 164 -3 q 90 77 107 38 q 74 183 74 117 l 74 821 l 182 821 l 182 158 q 197 91 182 114 q 235 60 211 68 q 286 51 258 51 q 338 60 314 51 q 377 91 363 68 q 392 158 392 114 l 392 821 l 497 821 l 497 183 q 481 78 497 118 q 437 17 465 38 q 369 -10 408 -3 q 286 -17 331 -17 m 214 886 q 177 901 192 886 q 163 936 163 915 q 177 970 163 957 q 214 983 192 983 q 249 970 235 983 q 264 936 264 957 q 249 901 264 915 q 214 886 235 886 m 357 886 q 321 901 336 886 q 306 936 306 915 q 321 970 306 957 q 357 983 336 983 q 393 970 379 983 q 407 936 407 957 q 393 901 407 915 q 357 886 379 886 m 283 1014 l 140 1131 l 246 1131 l 354 1014 l 283 1014 z "},"Ǖ":{"ha":572,"x_min":74,"x_max":497,"o":"m 286 -17 q 203 -10 242 -17 q 135 17 164 -3 q 90 77 107 38 q 74 183 74 117 l 74 821 l 182 821 l 182 158 q 197 91 182 114 q 235 60 211 68 q 286 51 258 51 q 338 60 314 51 q 377 91 363 68 q 392 158 392 114 l 392 821 l 497 821 l 497 183 q 481 78 497 118 q 437 17 465 38 q 369 -10 408 -3 q 286 -17 331 -17 m 214 886 q 177 901 192 886 q 163 936 163 915 q 177 970 163 957 q 214 983 192 983 q 249 970 235 983 q 264 936 264 957 q 249 901 264 915 q 214 886 235 886 m 357 886 q 321 901 336 886 q 306 936 306 915 q 321 970 306 957 q 357 983 336 983 q 393 970 379 983 q 407 936 407 957 q 393 901 407 915 q 357 886 379 886 m 153 1035 l 153 1092 l 418 1092 l 418 1035 l 153 1035 z "},"Ụ":{"ha":572,"x_min":74,"x_max":497,"o":"m 286 -17 q 203 -10 242 -17 q 135 17 164 -3 q 90 77 107 38 q 74 183 74 117 l 74 821 l 182 821 l 182 158 q 197 91 182 114 q 235 60 211 68 q 286 51 258 51 q 338 60 314 51 q 377 91 363 68 q 392 158 392 114 l 392 821 l 497 821 l 497 183 q 481 78 497 118 q 437 17 465 38 q 369 -10 408 -3 q 286 -17 331 -17 m 285 -158 q 248 -143 263 -158 q 233 -108 233 -128 q 248 -73 233 -87 q 285 -58 263 -58 q 322 -73 306 -58 q 338 -108 338 -87 q 322 -143 338 -128 q 285 -158 306 -158 z "},"Ù":{"ha":572,"x_min":74,"x_max":497,"o":"m 286 -17 q 203 -10 242 -17 q 135 17 164 -3 q 90 77 107 38 q 74 183 74 117 l 74 821 l 182 821 l 182 158 q 197 91 182 114 q 235 60 211 68 q 286 51 258 51 q 338 60 314 51 q 377 91 363 68 q 392 158 392 114 l 392 821 l 497 821 l 497 183 q 481 78 497 118 q 437 17 465 38 q 369 -10 408 -3 q 286 -17 331 -17 m 283 881 l 140 997 l 246 997 l 354 881 l 283 881 z "},"Ủ":{"ha":572,"x_min":74,"x_max":497,"o":"m 286 -17 q 203 -10 242 -17 q 135 17 164 -3 q 90 77 107 38 q 74 183 74 117 l 74 821 l 182 821 l 182 158 q 197 91 182 114 q 235 60 211 68 q 286 51 258 51 q 338 60 314 51 q 377 91 363 68 q 392 158 392 114 l 392 821 l 497 821 l 497 183 q 481 78 497 118 q 437 17 465 38 q 369 -10 408 -3 q 286 -17 331 -17 m 254 871 l 254 892 q 270 922 254 911 q 301 941 286 932 q 317 968 317 950 l 317 975 q 308 999 317 988 q 281 1010 300 1010 q 249 978 254 1010 l 197 988 q 224 1036 201 1019 q 286 1053 246 1053 q 356 1037 333 1053 q 379 975 379 1021 l 379 972 q 363 929 379 942 q 329 910 346 917 q 313 886 313 903 l 313 871 l 254 871 z "},"Ư":{"ha":572,"x_min":74,"x_max":567,"o":"m 286 -17 q 203 -10 242 -17 q 135 17 164 -3 q 90 77 107 38 q 74 183 74 117 l 74 821 l 182 821 l 182 158 q 197 91 182 114 q 235 60 211 68 q 286 51 258 51 q 338 60 314 51 q 377 91 363 68 q 392 158 392 114 l 392 821 l 497 821 l 497 183 q 481 78 497 118 q 437 17 465 38 q 369 -10 408 -3 q 286 -17 331 -17 m 413 771 l 410 821 l 429 821 q 494 883 494 821 l 494 907 l 567 907 l 567 888 q 528 799 567 828 q 413 771 489 769 z "},"Ứ":{"ha":572,"x_min":74,"x_max":567,"o":"m 286 -17 q 203 -10 242 -17 q 135 17 164 -3 q 90 77 107 38 q 74 183 74 117 l 74 821 l 182 821 l 182 158 q 197 91 182 114 q 235 60 211 68 q 286 51 258 51 q 338 60 314 51 q 377 91 363 68 q 392 158 392 114 l 392 821 l 497 821 l 497 183 q 481 78 497 118 q 437 17 465 38 q 369 -10 408 -3 q 286 -17 331 -17 m 413 771 l 410 821 l 429 821 q 494 883 494 821 l 494 907 l 567 907 l 567 888 q 528 799 567 828 q 413 771 489 769 m 214 881 l 325 1000 l 429 1000 l 279 881 l 214 881 z "},"Ự":{"ha":572,"x_min":74,"x_max":567,"o":"m 286 -17 q 203 -10 242 -17 q 135 17 164 -3 q 90 77 107 38 q 74 183 74 117 l 74 821 l 182 821 l 182 158 q 197 91 182 114 q 235 60 211 68 q 286 51 258 51 q 338 60 314 51 q 377 91 363 68 q 392 158 392 114 l 392 821 l 497 821 l 497 183 q 481 78 497 118 q 437 17 465 38 q 369 -10 408 -3 q 286 -17 331 -17 m 413 771 l 410 821 l 429 821 q 494 883 494 821 l 494 907 l 567 907 l 567 888 q 528 799 567 828 q 413 771 489 769 m 285 -158 q 248 -143 263 -158 q 233 -108 233 -128 q 248 -73 233 -87 q 285 -58 263 -58 q 322 -73 306 -58 q 338 -108 338 -87 q 322 -143 338 -128 q 285 -158 306 -158 z "},"Ừ":{"ha":572,"x_min":74,"x_max":567,"o":"m 286 -17 q 203 -10 242 -17 q 135 17 164 -3 q 90 77 107 38 q 74 183 74 117 l 74 821 l 182 821 l 182 158 q 197 91 182 114 q 235 60 211 68 q 286 51 258 51 q 338 60 314 51 q 377 91 363 68 q 392 158 392 114 l 392 821 l 497 821 l 497 183 q 481 78 497 118 q 437 17 465 38 q 369 -10 408 -3 q 286 -17 331 -17 m 413 771 l 410 821 l 429 821 q 494 883 494 821 l 494 907 l 567 907 l 567 888 q 528 799 567 828 q 413 771 489 769 m 283 881 l 140 997 l 246 997 l 354 881 l 283 881 z "},"Ử":{"ha":572,"x_min":74,"x_max":567,"o":"m 286 -17 q 203 -10 242 -17 q 135 17 164 -3 q 90 77 107 38 q 74 183 74 117 l 74 821 l 182 821 l 182 158 q 197 91 182 114 q 235 60 211 68 q 286 51 258 51 q 338 60 314 51 q 377 91 363 68 q 392 158 392 114 l 392 821 l 497 821 l 497 183 q 481 78 497 118 q 437 17 465 38 q 369 -10 408 -3 q 286 -17 331 -17 m 413 771 l 410 821 l 429 821 q 494 883 494 821 l 494 907 l 567 907 l 567 888 q 528 799 567 828 q 413 771 489 769 m 254 871 l 254 892 q 270 922 254 911 q 301 941 286 932 q 317 968 317 950 l 317 975 q 308 999 317 988 q 281 1010 300 1010 q 249 978 254 1010 l 197 988 q 224 1036 201 1019 q 286 1053 246 1053 q 356 1037 333 1053 q 379 975 379 1021 l 379 972 q 363 929 379 942 q 329 910 346 917 q 313 886 313 903 l 313 871 l 254 871 z "},"Ữ":{"ha":572,"x_min":74,"x_max":567,"o":"m 286 -17 q 203 -10 242 -17 q 135 17 164 -3 q 90 77 107 38 q 74 183 74 117 l 74 821 l 182 821 l 182 158 q 197 91 182 114 q 235 60 211 68 q 286 51 258 51 q 338 60 314 51 q 377 91 363 68 q 392 158 392 114 l 392 821 l 497 821 l 497 183 q 481 78 497 118 q 437 17 465 38 q 369 -10 408 -3 q 286 -17 331 -17 m 413 771 l 410 821 l 429 821 q 494 883 494 821 l 494 907 l 567 907 l 567 888 q 528 799 567 828 q 413 771 489 769 m 344 888 q 310 894 325 888 q 276 913 296 901 q 249 929 264 921 q 217 938 233 938 q 189 925 200 938 q 175 889 178 913 l 138 889 q 160 962 139 933 q 218 990 182 990 q 256 983 239 990 q 289 964 272 975 q 317 949 304 956 q 344 942 331 942 q 374 953 363 942 q 389 988 385 965 l 429 988 q 415 933 428 956 q 384 899 403 911 q 344 888 365 888 z "},"Ű":{"ha":572,"x_min":74,"x_max":497,"o":"m 286 -17 q 203 -10 242 -17 q 135 17 164 -3 q 90 77 107 38 q 74 183 74 117 l 74 821 l 182 821 l 182 158 q 197 91 182 114 q 235 60 211 68 q 286 51 258 51 q 338 60 314 51 q 377 91 363 68 q 392 158 392 114 l 392 821 l 497 821 l 497 183 q 481 78 497 118 q 437 17 465 38 q 369 -10 408 -3 q 286 -17 331 -17 m 197 874 l 232 1006 l 321 1006 l 242 874 l 197 874 m 304 874 l 350 1006 l 439 1006 l 356 874 l 304 874 z "},"Ū":{"ha":572,"x_min":74,"x_max":497,"o":"m 286 -17 q 203 -10 242 -17 q 135 17 164 -3 q 90 77 107 38 q 74 183 74 117 l 74 821 l 182 821 l 182 158 q 197 91 182 114 q 235 60 211 68 q 286 51 258 51 q 338 60 314 51 q 377 91 363 68 q 392 158 392 114 l 392 821 l 497 821 l 497 183 q 481 78 497 118 q 437 17 465 38 q 369 -10 408 -3 q 286 -17 331 -17 m 153 901 l 153 958 l 418 958 l 418 901 l 153 901 z "},"Ų":{"ha":572,"x_min":74,"x_max":497,"o":"m 286 -17 q 203 -10 242 -17 q 135 17 164 -3 q 90 77 107 38 q 74 183 74 117 l 74 821 l 182 821 l 182 158 q 197 91 182 114 q 235 60 211 68 q 286 51 258 51 q 338 60 314 51 q 377 91 363 68 q 392 158 392 114 l 392 821 l 497 821 l 497 183 q 481 78 497 118 q 437 17 465 38 q 369 -10 408 -3 q 286 -17 331 -17 m 301 -192 q 231 -167 260 -192 q 201 -108 201 -143 q 231 -39 201 -69 q 297 1 260 -8 l 347 0 q 291 -42 310 -15 q 272 -94 272 -68 q 290 -135 272 -121 q 326 -149 308 -149 q 347 -146 338 -149 q 360 -140 356 -143 l 375 -174 q 349 -185 367 -178 q 301 -192 332 -192 z "},"Ů":{"ha":572,"x_min":74,"x_max":497,"o":"m 286 -17 q 203 -10 242 -17 q 135 17 164 -3 q 90 77 107 38 q 74 183 74 117 l 74 821 l 182 821 l 182 158 q 197 91 182 114 q 235 60 211 68 q 286 51 258 51 q 338 60 314 51 q 377 91 363 68 q 392 158 392 114 l 392 821 l 497 821 l 497 183 q 481 78 497 118 q 437 17 465 38 q 369 -10 408 -3 q 286 -17 331 -17 m 285 856 q 204 887 236 856 q 172 961 172 918 q 204 1037 172 1006 q 285 1068 236 1068 q 367 1037 335 1068 q 399 961 399 1006 q 365 887 399 918 q 285 856 331 856 m 285 903 q 331 919 314 903 q 347 961 347 936 q 331 1005 347 989 q 285 1021 314 1021 q 240 1005 257 1021 q 224 961 224 989 q 240 919 224 936 q 285 903 257 903 z "},"Ў":{"ha":458,"x_min":11,"x_max":447,"o":"m 119 -14 q 67 -10 92 -14 q 25 -3 42 -7 l 25 56 q 46 52 33 54 q 72 50 58 50 q 110 56 90 50 q 142 86 131 63 q 154 117 150 100 q 160 158 158 133 l 11 821 l 121 821 l 232 244 l 232 244 l 346 821 l 447 821 l 303 182 q 239 31 279 75 q 119 -14 199 -14 m 228 875 q 142 897 172 875 q 99 948 111 918 q 86 1003 88 978 l 147 1003 q 174 947 151 965 q 228 929 197 929 q 285 947 263 929 q 311 1003 307 964 l 372 1003 q 356 943 371 972 q 310 894 342 914 q 228 875 279 875 z "},"Ũ":{"ha":572,"x_min":74,"x_max":497,"o":"m 286 -17 q 203 -10 242 -17 q 135 17 164 -3 q 90 77 107 38 q 74 183 74 117 l 74 821 l 182 821 l 182 158 q 197 91 182 114 q 235 60 211 68 q 286 51 258 51 q 338 60 314 51 q 377 91 363 68 q 392 158 392 114 l 392 821 l 497 821 l 497 183 q 481 78 497 118 q 437 17 465 38 q 369 -10 408 -3 q 286 -17 331 -17 m 344 888 q 310 894 325 888 q 276 913 296 901 q 249 929 264 921 q 217 938 233 938 q 189 925 200 938 q 175 889 178 913 l 138 889 q 160 962 139 933 q 218 990 182 990 q 256 983 239 990 q 289 964 272 975 q 317 949 304 956 q 344 942 331 942 q 374 953 363 942 q 389 988 385 965 l 429 988 q 415 933 428 956 q 384 899 403 911 q 344 888 365 888 z "},"V":{"ha":490,"x_min":25,"x_max":465,"o":"m 174 0 l 25 821 l 135 821 l 247 129 l 244 129 l 360 821 l 465 821 l 315 0 l 174 0 z "},"В":{"ha":569,"x_min":79,"x_max":510,"o":"m 79 0 l 79 821 l 343 821 q 457 787 414 821 q 500 683 500 753 l 500 586 q 489 517 500 547 q 458 469 478 488 q 413 444 439 451 q 368 436 388 438 l 368 438 q 419 431 394 438 q 463 408 444 425 q 497 358 485 389 q 510 286 510 328 l 510 169 q 487 63 510 100 q 424 13 464 26 q 328 0 383 0 l 79 0 m 188 60 l 307 60 q 357 68 336 60 q 390 102 378 76 q 401 176 401 128 l 401 285 q 372 369 401 349 q 296 390 342 390 l 188 390 l 188 60 m 188 460 l 293 460 q 369 488 343 460 q 396 574 396 517 l 396 665 q 372 737 396 714 q 313 760 347 760 l 188 760 l 188 460 z "},"W":{"ha":781,"x_min":25,"x_max":756,"o":"m 153 0 l 25 821 l 135 821 l 232 144 l 347 821 l 433 821 l 547 146 l 646 821 l 756 821 l 626 0 l 503 0 l 390 583 l 279 0 l 153 0 z "},"Ẃ":{"ha":781,"x_min":25,"x_max":756,"o":"m 153 0 l 25 821 l 135 821 l 232 144 l 347 821 l 433 821 l 547 146 l 646 821 l 756 821 l 626 0 l 503 0 l 390 583 l 279 0 l 153 0 m 319 881 l 431 1000 l 535 1000 l 385 881 l 319 881 z "},"Ŵ":{"ha":781,"x_min":25,"x_max":756,"o":"m 153 0 l 25 821 l 135 821 l 232 144 l 347 821 l 433 821 l 547 146 l 646 821 l 756 821 l 626 0 l 503 0 l 390 583 l 279 0 l 153 0 m 229 875 l 357 1003 l 422 1003 l 550 875 l 481 875 l 390 953 l 301 875 l 229 875 z "},"Ẅ":{"ha":781,"x_min":25,"x_max":756,"o":"m 153 0 l 25 821 l 135 821 l 232 144 l 347 821 l 433 821 l 547 146 l 646 821 l 756 821 l 626 0 l 503 0 l 390 583 l 279 0 l 153 0 m 319 886 q 283 901 297 886 q 268 936 268 915 q 283 970 268 957 q 319 983 297 983 q 355 970 340 983 q 369 936 369 957 q 355 901 369 915 q 319 886 340 886 m 463 886 q 426 901 442 886 q 411 936 411 915 q 426 970 411 957 q 463 983 442 983 q 499 970 485 983 q 513 936 513 957 q 499 901 513 915 q 463 886 485 886 z "},"Ẁ":{"ha":781,"x_min":25,"x_max":756,"o":"m 153 0 l 25 821 l 135 821 l 232 144 l 347 821 l 433 821 l 547 146 l 646 821 l 756 821 l 626 0 l 503 0 l 390 583 l 279 0 l 153 0 m 389 881 l 246 997 l 351 997 l 460 881 l 389 881 z "},"X":{"ha":461,"x_min":21,"x_max":440,"o":"m 21 0 l 150 419 l 31 821 l 138 821 l 231 494 l 329 821 l 440 821 l 314 418 l 438 0 l 331 0 l 232 326 l 133 0 l 21 0 z "},"Y":{"ha":464,"x_min":19,"x_max":443,"o":"m 174 0 l 174 357 l 19 821 l 129 821 l 225 508 l 232 474 l 239 508 l 342 821 l 443 821 l 281 351 l 281 0 l 174 0 z "},"Ý":{"ha":464,"x_min":19,"x_max":443,"o":"m 174 0 l 174 357 l 19 821 l 129 821 l 225 508 l 232 474 l 239 508 l 342 821 l 443 821 l 281 351 l 281 0 l 174 0 m 164 881 l 275 1000 l 379 1000 l 229 881 l 164 881 z "},"Ѣ":{"ha":579,"x_min":21,"x_max":524,"o":"m 121 0 l 121 819 l 226 819 l 226 604 l 360 604 q 451 588 414 604 q 506 533 488 571 q 524 433 524 496 l 524 207 q 513 106 524 146 q 481 42 503 65 q 426 10 460 19 q 347 0 393 0 l 121 0 m 226 58 l 326 58 q 385 75 365 58 q 412 126 406 92 q 418 211 418 160 l 418 410 q 413 474 418 446 q 388 520 407 503 q 324 538 368 538 l 226 538 l 226 58 m 21 700 l 21 758 l 435 758 l 435 700 l 21 700 z "},"Ŷ":{"ha":464,"x_min":19,"x_max":443,"o":"m 174 0 l 174 357 l 19 821 l 129 821 l 225 508 l 232 474 l 239 508 l 342 821 l 443 821 l 281 351 l 281 0 l 174 0 m 75 875 l 203 1003 l 268 1003 l 396 875 l 326 875 l 236 953 l 147 875 l 75 875 z "},"Ÿ":{"ha":464,"x_min":19,"x_max":443,"o":"m 174 0 l 174 357 l 19 821 l 129 821 l 225 508 l 232 474 l 239 508 l 342 821 l 443 821 l 281 351 l 281 0 l 174 0 m 164 886 q 127 901 142 886 q 113 936 113 915 q 127 970 113 957 q 164 983 142 983 q 199 970 185 983 q 214 936 214 957 q 199 901 214 915 q 164 886 185 886 m 307 886 q 271 901 286 886 q 256 936 256 915 q 271 970 256 957 q 307 983 286 983 q 343 970 329 983 q 357 936 357 957 q 343 901 357 915 q 307 886 329 886 z "},"Ỵ":{"ha":464,"x_min":19,"x_max":443,"o":"m 174 0 l 174 357 l 19 821 l 129 821 l 225 508 l 232 474 l 239 508 l 342 821 l 443 821 l 281 351 l 281 0 l 174 0 m 231 -158 q 194 -143 208 -158 q 179 -108 179 -128 q 194 -73 179 -87 q 231 -58 208 -58 q 267 -73 251 -58 q 283 -108 283 -87 q 267 -143 283 -128 q 231 -158 251 -158 z "},"Ы":{"ha":714,"x_min":56,"x_max":658,"o":"m 56 0 l 56 819 l 161 819 l 161 604 l 294 604 q 386 588 350 604 q 440 533 422 571 q 458 433 458 496 l 458 207 q 448 106 458 146 q 416 42 438 65 q 361 10 394 19 q 282 0 328 0 l 56 0 m 161 58 l 261 58 q 321 75 301 58 q 347 126 340 92 q 353 211 353 160 l 353 410 q 347 474 353 446 q 322 520 342 503 q 258 538 303 538 l 161 538 l 161 58 m 551 0 l 551 821 l 658 821 l 658 0 l 551 0 z "},"Ỳ":{"ha":464,"x_min":19,"x_max":443,"o":"m 174 0 l 174 357 l 19 821 l 129 821 l 225 508 l 232 474 l 239 508 l 342 821 l 443 821 l 281 351 l 281 0 l 174 0 m 233 881 l 90 997 l 196 997 l 304 881 l 233 881 z "},"Ỷ":{"ha":464,"x_min":19,"x_max":443,"o":"m 174 0 l 174 357 l 19 821 l 129 821 l 225 508 l 232 474 l 239 508 l 342 821 l 443 821 l 281 351 l 281 0 l 174 0 m 204 871 l 204 892 q 220 922 204 911 q 251 941 236 932 q 267 968 267 950 l 267 975 q 258 999 267 988 q 231 1010 250 1010 q 199 978 204 1010 l 147 988 q 174 1036 151 1019 q 236 1053 196 1053 q 306 1037 283 1053 q 329 975 329 1021 l 329 972 q 313 929 329 942 q 279 910 296 917 q 263 886 263 903 l 263 871 l 204 871 z "},"Ї":{"ha":265,"x_min":11,"x_max":256,"o":"m 79 0 l 79 821 l 186 821 l 186 0 l 79 0 m 63 886 q 26 901 40 886 q 11 936 11 915 q 26 970 11 957 q 63 983 40 983 q 98 970 83 983 q 113 936 113 957 q 98 901 113 915 q 63 886 83 886 m 206 886 q 169 901 185 886 q 154 936 154 915 q 169 970 154 957 q 206 983 185 983 q 242 970 228 983 q 256 936 256 957 q 242 901 256 915 q 206 886 228 886 z "},"Ỹ":{"ha":464,"x_min":19,"x_max":443,"o":"m 174 0 l 174 357 l 19 821 l 129 821 l 225 508 l 232 474 l 239 508 l 342 821 l 443 821 l 281 351 l 281 0 l 174 0 m 294 888 q 260 894 275 888 q 226 913 246 901 q 199 929 214 921 q 167 938 183 938 q 139 925 150 938 q 125 889 128 913 l 88 889 q 110 962 89 933 q 168 990 132 990 q 206 983 189 990 q 239 964 222 975 q 267 949 254 956 q 294 942 281 942 q 324 953 313 942 q 339 988 335 965 l 379 988 q 365 933 378 956 q 334 899 353 911 q 294 888 315 888 z "},"Ѫ":{"ha":915,"x_min":33,"x_max":878,"o":"m 50 0 l 135 329 q 160 390 144 361 q 200 438 175 419 q 263 457 225 457 l 361 458 l 33 746 l 33 821 l 878 821 l 878 746 l 551 460 l 650 457 q 717 438 692 457 q 756 391 742 419 q 779 329 771 363 l 864 0 l 746 0 l 674 310 q 649 381 665 347 q 599 425 632 414 l 513 425 l 513 0 l 401 0 l 401 425 l 315 425 q 266 382 282 414 q 240 314 250 350 l 168 0 l 50 0 m 456 492 l 751 746 l 158 746 l 456 492 z "},"Z":{"ha":392,"x_min":24,"x_max":368,"o":"m 24 0 l 24 72 l 246 744 l 39 744 l 39 821 l 368 821 l 368 761 l 139 76 l 368 76 l 368 0 l 24 0 z "},"Ź":{"ha":392,"x_min":24,"x_max":368,"o":"m 24 0 l 24 72 l 246 744 l 39 744 l 39 821 l 368 821 l 368 761 l 139 76 l 368 76 l 368 0 l 24 0 m 140 881 l 251 1000 l 356 1000 l 206 881 l 140 881 z "},"Ž":{"ha":392,"x_min":24,"x_max":368,"o":"m 24 0 l 24 72 l 246 744 l 39 744 l 39 821 l 368 821 l 368 761 l 139 76 l 368 76 l 368 0 l 24 0 m 178 875 l 56 994 l 128 994 l 213 925 l 297 994 l 368 994 l 244 875 l 178 875 z "},"Ż":{"ha":392,"x_min":24,"x_max":368,"o":"m 24 0 l 24 72 l 246 744 l 39 744 l 39 821 l 368 821 l 368 761 l 139 76 l 368 76 l 368 0 l 24 0 m 221 888 q 179 905 197 888 q 161 946 161 922 q 179 988 161 971 q 222 1004 197 1004 q 265 988 247 1004 q 282 946 282 971 q 265 905 283 922 q 221 888 246 888 z "},"З":{"ha":553,"x_min":44,"x_max":488,"o":"m 265 -10 q 139 16 188 -10 q 67 88 90 42 q 44 193 44 133 l 44 279 l 154 279 l 154 214 q 181 108 154 146 q 264 68 208 69 q 346 103 317 68 q 375 197 375 139 l 375 275 q 338 361 375 332 q 235 392 300 390 l 157 392 l 157 457 l 235 457 q 294 467 267 457 q 338 497 321 478 q 363 534 356 514 q 369 578 369 554 l 369 628 q 345 713 369 678 q 264 747 321 747 q 183 710 207 747 q 158 613 158 672 l 158 568 l 49 568 l 49 633 q 101 775 49 725 q 265 825 154 825 q 432 778 381 825 q 483 640 483 731 l 483 593 q 447 478 483 521 q 350 421 411 435 q 452 367 417 413 q 488 250 488 321 l 488 193 q 466 85 488 131 q 396 15 444 39 q 265 -10 347 -10 z "},"Ж":{"ha":876,"x_min":47,"x_max":831,"o":"m 47 0 l 253 425 l 54 821 l 176 821 l 344 456 l 383 456 l 383 819 l 492 819 l 492 456 l 533 456 l 700 821 l 825 821 l 625 425 l 831 0 l 708 0 l 533 393 l 492 393 l 492 0 l 383 0 l 383 393 l 343 393 l 168 0 l 47 0 z "},"a":{"ha":503,"x_min":50,"x_max":447,"o":"m 192 -10 q 126 -1 158 -10 q 72 40 94 8 q 50 140 50 72 l 50 214 q 91 324 50 282 q 208 399 132 365 q 283 437 254 419 q 326 476 313 454 q 340 533 340 497 l 340 565 q 328 612 340 596 q 297 635 317 628 q 253 642 276 642 q 180 610 197 642 q 163 515 163 579 l 163 457 l 67 457 l 67 525 q 81 616 67 576 q 135 678 94 656 q 253 701 175 701 q 376 684 335 701 q 433 633 418 667 q 447 550 447 600 l 447 0 l 342 0 l 342 83 q 284 14 326 38 q 192 -10 242 -10 m 233 61 q 315 101 290 61 q 339 208 339 140 l 339 417 q 298 380 326 396 q 240 347 269 364 q 176 296 199 322 q 153 222 153 269 l 153 163 q 165 96 153 118 q 197 67 178 74 q 233 61 215 61 z "},"а":{"ha":503,"x_min":50,"x_max":447,"o":"m 192 -10 q 126 -1 158 -10 q 72 40 94 8 q 50 140 50 72 l 50 214 q 91 324 50 282 q 208 399 132 365 q 283 437 254 419 q 326 476 313 454 q 340 533 340 497 l 340 565 q 328 612 340 596 q 297 635 317 628 q 253 642 276 642 q 180 610 197 642 q 163 515 163 579 l 163 457 l 67 457 l 67 525 q 81 616 67 576 q 135 678 94 656 q 253 701 175 701 q 376 684 335 701 q 433 633 418 667 q 447 550 447 600 l 447 0 l 342 0 l 342 83 q 284 14 326 38 q 192 -10 242 -10 m 233 61 q 315 101 290 61 q 339 208 339 140 l 339 417 q 298 380 326 396 q 240 347 269 364 q 176 296 199 322 q 153 222 153 269 l 153 163 q 165 96 153 118 q 197 67 178 74 q 233 61 215 61 z "},"á":{"ha":503,"x_min":50,"x_max":447,"o":"m 192 -10 q 126 -1 158 -10 q 72 40 94 8 q 50 140 50 72 l 50 214 q 91 324 50 282 q 208 399 132 365 q 283 437 254 419 q 326 476 313 454 q 340 533 340 497 l 340 565 q 328 612 340 596 q 297 635 317 628 q 253 642 276 642 q 180 610 197 642 q 163 515 163 579 l 163 457 l 67 457 l 67 525 q 81 616 67 576 q 135 678 94 656 q 253 701 175 701 q 376 684 335 701 q 433 633 418 667 q 447 550 447 600 l 447 0 l 342 0 l 342 83 q 284 14 326 38 q 192 -10 242 -10 m 233 61 q 315 101 290 61 q 339 208 339 140 l 339 417 q 298 380 326 396 q 240 347 269 364 q 176 296 199 322 q 153 222 153 269 l 153 163 q 165 96 153 118 q 197 67 178 74 q 233 61 215 61 m 201 758 l 281 890 l 388 890 l 268 758 l 201 758 z "},"ă":{"ha":503,"x_min":50,"x_max":447,"o":"m 192 -10 q 126 -1 158 -10 q 72 40 94 8 q 50 140 50 72 l 50 214 q 91 324 50 282 q 208 399 132 365 q 283 437 254 419 q 326 476 313 454 q 340 533 340 497 l 340 565 q 328 612 340 596 q 297 635 317 628 q 253 642 276 642 q 180 610 197 642 q 163 515 163 579 l 163 457 l 67 457 l 67 525 q 81 616 67 576 q 135 678 94 656 q 253 701 175 701 q 376 684 335 701 q 433 633 418 667 q 447 550 447 600 l 447 0 l 342 0 l 342 83 q 284 14 326 38 q 192 -10 242 -10 m 233 61 q 315 101 290 61 q 339 208 339 140 l 339 417 q 298 380 326 396 q 240 347 269 364 q 176 296 199 322 q 153 222 153 269 l 153 163 q 165 96 153 118 q 197 67 178 74 q 233 61 215 61 m 257 758 q 171 780 201 758 q 128 831 140 801 q 115 886 117 861 l 176 886 q 203 831 181 849 q 257 813 226 813 q 314 830 292 813 q 340 886 336 847 l 401 886 q 385 826 400 856 q 340 778 371 797 q 257 758 308 758 z "},"ắ":{"ha":503,"x_min":50,"x_max":447,"o":"m 192 -10 q 126 -1 158 -10 q 72 40 94 8 q 50 140 50 72 l 50 214 q 91 324 50 282 q 208 399 132 365 q 283 437 254 419 q 326 476 313 454 q 340 533 340 497 l 340 565 q 328 612 340 596 q 297 635 317 628 q 253 642 276 642 q 180 610 197 642 q 163 515 163 579 l 163 457 l 67 457 l 67 525 q 81 616 67 576 q 135 678 94 656 q 253 701 175 701 q 376 684 335 701 q 433 633 418 667 q 447 550 447 600 l 447 0 l 342 0 l 342 83 q 284 14 326 38 q 192 -10 242 -10 m 233 61 q 315 101 290 61 q 339 208 339 140 l 339 417 q 298 380 326 396 q 240 347 269 364 q 176 296 199 322 q 153 222 153 269 l 153 163 q 165 96 153 118 q 197 67 178 74 q 233 61 215 61 m 257 758 q 171 780 201 758 q 128 831 140 801 q 115 886 117 861 l 176 886 q 203 831 181 849 q 257 813 226 813 q 314 830 292 813 q 340 886 336 847 l 401 886 q 385 826 400 856 q 340 778 371 797 q 257 758 308 758 m 201 908 l 281 1040 l 388 1040 l 268 908 l 201 908 z "},"ặ":{"ha":503,"x_min":50,"x_max":447,"o":"m 192 -10 q 126 -1 158 -10 q 72 40 94 8 q 50 140 50 72 l 50 214 q 91 324 50 282 q 208 399 132 365 q 283 437 254 419 q 326 476 313 454 q 340 533 340 497 l 340 565 q 328 612 340 596 q 297 635 317 628 q 253 642 276 642 q 180 610 197 642 q 163 515 163 579 l 163 457 l 67 457 l 67 525 q 81 616 67 576 q 135 678 94 656 q 253 701 175 701 q 376 684 335 701 q 433 633 418 667 q 447 550 447 600 l 447 0 l 342 0 l 342 83 q 284 14 326 38 q 192 -10 242 -10 m 233 61 q 315 101 290 61 q 339 208 339 140 l 339 417 q 298 380 326 396 q 240 347 269 364 q 176 296 199 322 q 153 222 153 269 l 153 163 q 165 96 153 118 q 197 67 178 74 q 233 61 215 61 m 251 -158 q 215 -143 229 -158 q 200 -108 200 -128 q 215 -73 200 -87 q 251 -58 229 -58 q 288 -73 272 -58 q 304 -108 304 -87 q 288 -143 304 -128 q 251 -158 272 -158 m 257 758 q 171 780 201 758 q 128 831 140 801 q 115 886 117 861 l 176 886 q 203 831 181 849 q 257 813 226 813 q 314 830 292 813 q 340 886 336 847 l 401 886 q 385 826 400 856 q 340 778 371 797 q 257 758 308 758 z "},"ằ":{"ha":503,"x_min":50,"x_max":447,"o":"m 192 -10 q 126 -1 158 -10 q 72 40 94 8 q 50 140 50 72 l 50 214 q 91 324 50 282 q 208 399 132 365 q 283 437 254 419 q 326 476 313 454 q 340 533 340 497 l 340 565 q 328 612 340 596 q 297 635 317 628 q 253 642 276 642 q 180 610 197 642 q 163 515 163 579 l 163 457 l 67 457 l 67 525 q 81 616 67 576 q 135 678 94 656 q 253 701 175 701 q 376 684 335 701 q 433 633 418 667 q 447 550 447 600 l 447 0 l 342 0 l 342 83 q 284 14 326 38 q 192 -10 242 -10 m 233 61 q 315 101 290 61 q 339 208 339 140 l 339 417 q 298 380 326 396 q 240 347 269 364 q 176 296 199 322 q 153 222 153 269 l 153 163 q 165 96 153 118 q 197 67 178 74 q 233 61 215 61 m 257 758 q 171 780 201 758 q 128 831 140 801 q 115 886 117 861 l 176 886 q 203 831 181 849 q 257 813 226 813 q 314 830 292 813 q 340 886 336 847 l 401 886 q 385 826 400 856 q 340 778 371 797 q 257 758 308 758 m 253 908 l 133 1040 l 240 1040 l 319 908 l 253 908 z "},"ẳ":{"ha":503,"x_min":50,"x_max":447,"o":"m 192 -10 q 126 -1 158 -10 q 72 40 94 8 q 50 140 50 72 l 50 214 q 91 324 50 282 q 208 399 132 365 q 283 437 254 419 q 326 476 313 454 q 340 533 340 497 l 340 565 q 328 612 340 596 q 297 635 317 628 q 253 642 276 642 q 180 610 197 642 q 163 515 163 579 l 163 457 l 67 457 l 67 525 q 81 616 67 576 q 135 678 94 656 q 253 701 175 701 q 376 684 335 701 q 433 633 418 667 q 447 550 447 600 l 447 0 l 342 0 l 342 83 q 284 14 326 38 q 192 -10 242 -10 m 233 61 q 315 101 290 61 q 339 208 339 140 l 339 417 q 298 380 326 396 q 240 347 269 364 q 176 296 199 322 q 153 222 153 269 l 153 163 q 165 96 153 118 q 197 67 178 74 q 233 61 215 61 m 257 758 q 171 780 201 758 q 128 831 140 801 q 115 886 117 861 l 176 886 q 203 831 181 849 q 257 813 226 813 q 314 830 292 813 q 340 886 336 847 l 401 886 q 385 826 400 856 q 340 778 371 797 q 257 758 308 758 m 228 911 l 228 932 q 244 962 228 951 q 275 981 260 972 q 290 1008 290 990 l 290 1015 q 282 1039 290 1028 q 254 1050 274 1050 q 222 1018 228 1050 l 171 1028 q 197 1076 175 1060 q 260 1093 219 1093 q 330 1077 307 1093 q 353 1015 353 1061 l 353 1013 q 336 969 353 982 q 303 950 319 957 q 286 926 286 943 l 286 911 l 228 911 z "},"ẵ":{"ha":503,"x_min":50,"x_max":447,"o":"m 192 -10 q 126 -1 158 -10 q 72 40 94 8 q 50 140 50 72 l 50 214 q 91 324 50 282 q 208 399 132 365 q 283 437 254 419 q 326 476 313 454 q 340 533 340 497 l 340 565 q 328 612 340 596 q 297 635 317 628 q 253 642 276 642 q 180 610 197 642 q 163 515 163 579 l 163 457 l 67 457 l 67 525 q 81 616 67 576 q 135 678 94 656 q 253 701 175 701 q 376 684 335 701 q 433 633 418 667 q 447 550 447 600 l 447 0 l 342 0 l 342 83 q 284 14 326 38 q 192 -10 242 -10 m 233 61 q 315 101 290 61 q 339 208 339 140 l 339 417 q 298 380 326 396 q 240 347 269 364 q 176 296 199 322 q 153 222 153 269 l 153 163 q 165 96 153 118 q 197 67 178 74 q 233 61 215 61 m 257 758 q 171 780 201 758 q 128 831 140 801 q 115 886 117 861 l 176 886 q 203 831 181 849 q 257 813 226 813 q 314 830 292 813 q 340 886 336 847 l 401 886 q 385 826 400 856 q 340 778 371 797 q 257 758 308 758 m 319 918 q 285 925 300 918 q 251 943 271 932 q 224 960 239 951 q 192 968 208 968 q 164 956 175 968 q 150 919 153 943 l 113 919 q 135 992 114 964 q 193 1021 157 1021 q 231 1013 214 1021 q 264 994 247 1006 q 292 979 279 986 q 319 972 306 972 q 349 984 338 972 q 364 1018 360 996 l 404 1018 q 390 964 403 986 q 359 930 378 942 q 319 918 340 918 z "},"ǎ":{"ha":503,"x_min":50,"x_max":447,"o":"m 192 -10 q 126 -1 158 -10 q 72 40 94 8 q 50 140 50 72 l 50 214 q 91 324 50 282 q 208 399 132 365 q 283 437 254 419 q 326 476 313 454 q 340 533 340 497 l 340 565 q 328 612 340 596 q 297 635 317 628 q 253 642 276 642 q 180 610 197 642 q 163 515 163 579 l 163 457 l 67 457 l 67 525 q 81 616 67 576 q 135 678 94 656 q 253 701 175 701 q 376 684 335 701 q 433 633 418 667 q 447 550 447 600 l 447 0 l 342 0 l 342 83 q 284 14 326 38 q 192 -10 242 -10 m 233 61 q 315 101 290 61 q 339 208 339 140 l 339 417 q 298 380 326 396 q 240 347 269 364 q 176 296 199 322 q 153 222 153 269 l 153 163 q 165 96 153 118 q 197 67 178 74 q 233 61 215 61 m 225 758 l 99 892 l 168 892 l 258 808 l 351 892 l 418 892 l 292 758 l 225 758 z "},"â":{"ha":503,"x_min":50,"x_max":447,"o":"m 192 -10 q 126 -1 158 -10 q 72 40 94 8 q 50 140 50 72 l 50 214 q 91 324 50 282 q 208 399 132 365 q 283 437 254 419 q 326 476 313 454 q 340 533 340 497 l 340 565 q 328 612 340 596 q 297 635 317 628 q 253 642 276 642 q 180 610 197 642 q 163 515 163 579 l 163 457 l 67 457 l 67 525 q 81 616 67 576 q 135 678 94 656 q 253 701 175 701 q 376 684 335 701 q 433 633 418 667 q 447 550 447 600 l 447 0 l 342 0 l 342 83 q 284 14 326 38 q 192 -10 242 -10 m 233 61 q 315 101 290 61 q 339 208 339 140 l 339 417 q 298 380 326 396 q 240 347 269 364 q 176 296 199 322 q 153 222 153 269 l 153 163 q 165 96 153 118 q 197 67 178 74 q 233 61 215 61 m 99 758 l 225 892 l 290 892 l 417 758 l 350 758 l 258 842 l 168 758 l 99 758 z "},"ấ":{"ha":503,"x_min":50,"x_max":599,"o":"m 192 -10 q 126 -1 158 -10 q 72 40 94 8 q 50 140 50 72 l 50 214 q 91 324 50 282 q 208 399 132 365 q 283 437 254 419 q 326 476 313 454 q 340 533 340 497 l 340 565 q 328 612 340 596 q 297 635 317 628 q 253 642 276 642 q 180 610 197 642 q 163 515 163 579 l 163 457 l 67 457 l 67 525 q 81 616 67 576 q 135 678 94 656 q 253 701 175 701 q 376 684 335 701 q 433 633 418 667 q 447 550 447 600 l 447 0 l 342 0 l 342 83 q 284 14 326 38 q 192 -10 242 -10 m 233 61 q 315 101 290 61 q 339 208 339 140 l 339 417 q 298 380 326 396 q 240 347 269 364 q 176 296 199 322 q 153 222 153 269 l 153 163 q 165 96 153 118 q 197 67 178 74 q 233 61 215 61 m 99 758 l 225 892 l 290 892 l 417 758 l 350 758 l 258 842 l 168 758 l 99 758 m 413 832 l 492 964 l 599 964 l 479 832 l 413 832 z "},"ậ":{"ha":503,"x_min":50,"x_max":447,"o":"m 192 -10 q 126 -1 158 -10 q 72 40 94 8 q 50 140 50 72 l 50 214 q 91 324 50 282 q 208 399 132 365 q 283 437 254 419 q 326 476 313 454 q 340 533 340 497 l 340 565 q 328 612 340 596 q 297 635 317 628 q 253 642 276 642 q 180 610 197 642 q 163 515 163 579 l 163 457 l 67 457 l 67 525 q 81 616 67 576 q 135 678 94 656 q 253 701 175 701 q 376 684 335 701 q 433 633 418 667 q 447 550 447 600 l 447 0 l 342 0 l 342 83 q 284 14 326 38 q 192 -10 242 -10 m 233 61 q 315 101 290 61 q 339 208 339 140 l 339 417 q 298 380 326 396 q 240 347 269 364 q 176 296 199 322 q 153 222 153 269 l 153 163 q 165 96 153 118 q 197 67 178 74 q 233 61 215 61 m 251 -158 q 215 -143 229 -158 q 200 -108 200 -128 q 215 -73 200 -87 q 251 -58 229 -58 q 288 -73 272 -58 q 304 -108 304 -87 q 288 -143 304 -128 q 251 -158 272 -158 m 99 758 l 225 892 l 290 892 l 417 758 l 350 758 l 258 842 l 168 758 l 99 758 z "},"ầ":{"ha":503,"x_min":50,"x_max":531,"o":"m 192 -10 q 126 -1 158 -10 q 72 40 94 8 q 50 140 50 72 l 50 214 q 91 324 50 282 q 208 399 132 365 q 283 437 254 419 q 326 476 313 454 q 340 533 340 497 l 340 565 q 328 612 340 596 q 297 635 317 628 q 253 642 276 642 q 180 610 197 642 q 163 515 163 579 l 163 457 l 67 457 l 67 525 q 81 616 67 576 q 135 678 94 656 q 253 701 175 701 q 376 684 335 701 q 433 633 418 667 q 447 550 447 600 l 447 0 l 342 0 l 342 83 q 284 14 326 38 q 192 -10 242 -10 m 233 61 q 315 101 290 61 q 339 208 339 140 l 339 417 q 298 380 326 396 q 240 347 269 364 q 176 296 199 322 q 153 222 153 269 l 153 163 q 165 96 153 118 q 197 67 178 74 q 233 61 215 61 m 99 758 l 225 892 l 290 892 l 417 758 l 350 758 l 258 842 l 168 758 l 99 758 m 464 832 l 344 964 l 451 964 l 531 832 l 464 832 z "},"ẩ":{"ha":503,"x_min":50,"x_max":564,"o":"m 192 -10 q 126 -1 158 -10 q 72 40 94 8 q 50 140 50 72 l 50 214 q 91 324 50 282 q 208 399 132 365 q 283 437 254 419 q 326 476 313 454 q 340 533 340 497 l 340 565 q 328 612 340 596 q 297 635 317 628 q 253 642 276 642 q 180 610 197 642 q 163 515 163 579 l 163 457 l 67 457 l 67 525 q 81 616 67 576 q 135 678 94 656 q 253 701 175 701 q 376 684 335 701 q 433 633 418 667 q 447 550 447 600 l 447 0 l 342 0 l 342 83 q 284 14 326 38 q 192 -10 242 -10 m 233 61 q 315 101 290 61 q 339 208 339 140 l 339 417 q 298 380 326 396 q 240 347 269 364 q 176 296 199 322 q 153 222 153 269 l 153 163 q 165 96 153 118 q 197 67 178 74 q 233 61 215 61 m 99 758 l 225 892 l 290 892 l 417 758 l 350 758 l 258 842 l 168 758 l 99 758 m 439 835 l 439 856 q 455 885 439 875 q 486 905 471 896 q 501 932 501 914 l 501 939 q 493 963 501 951 q 465 974 485 974 q 433 942 439 974 l 382 951 q 408 1000 386 983 q 471 1017 431 1017 q 541 1001 518 1017 q 564 939 564 985 l 564 936 q 547 893 564 906 q 514 874 531 881 q 497 850 497 867 l 497 835 l 439 835 z "},"ẫ":{"ha":503,"x_min":50,"x_max":447,"o":"m 192 -10 q 126 -1 158 -10 q 72 40 94 8 q 50 140 50 72 l 50 214 q 91 324 50 282 q 208 399 132 365 q 283 437 254 419 q 326 476 313 454 q 340 533 340 497 l 340 565 q 328 612 340 596 q 297 635 317 628 q 253 642 276 642 q 180 610 197 642 q 163 515 163 579 l 163 457 l 67 457 l 67 525 q 81 616 67 576 q 135 678 94 656 q 253 701 175 701 q 376 684 335 701 q 433 633 418 667 q 447 550 447 600 l 447 0 l 342 0 l 342 83 q 284 14 326 38 q 192 -10 242 -10 m 233 61 q 315 101 290 61 q 339 208 339 140 l 339 417 q 298 380 326 396 q 240 347 269 364 q 176 296 199 322 q 153 222 153 269 l 153 163 q 165 96 153 118 q 197 67 178 74 q 233 61 215 61 m 99 758 l 225 892 l 290 892 l 417 758 l 350 758 l 258 842 l 168 758 l 99 758 m 319 922 q 285 929 300 922 q 251 947 271 936 q 224 964 239 956 q 192 972 208 972 q 164 960 175 972 q 150 924 153 947 l 113 924 q 135 997 114 968 q 193 1025 157 1025 q 231 1017 214 1025 q 264 999 247 1010 q 292 983 279 990 q 319 976 306 976 q 349 988 338 976 q 364 1022 360 1000 l 404 1022 q 390 968 403 990 q 359 934 378 946 q 319 922 340 922 z "},"´":{"ha":210,"x_min":0,"x_max":186,"o":"m 0 758 l 79 890 l 186 890 l 67 758 l 0 758 z "},"́":{"ha":0,"x_min":0,"x_max":186,"o":"m 0 758 l 79 890 l 186 890 l 67 758 l 0 758 z "},"ä":{"ha":503,"x_min":50,"x_max":447,"o":"m 192 -10 q 126 -1 158 -10 q 72 40 94 8 q 50 140 50 72 l 50 214 q 91 324 50 282 q 208 399 132 365 q 283 437 254 419 q 326 476 313 454 q 340 533 340 497 l 340 565 q 328 612 340 596 q 297 635 317 628 q 253 642 276 642 q 180 610 197 642 q 163 515 163 579 l 163 457 l 67 457 l 67 525 q 81 616 67 576 q 135 678 94 656 q 253 701 175 701 q 376 684 335 701 q 433 633 418 667 q 447 550 447 600 l 447 0 l 342 0 l 342 83 q 284 14 326 38 q 192 -10 242 -10 m 233 61 q 315 101 290 61 q 339 208 339 140 l 339 417 q 298 380 326 396 q 240 347 269 364 q 176 296 199 322 q 153 222 153 269 l 153 163 q 165 96 153 118 q 197 67 178 74 q 233 61 215 61 m 188 769 q 151 784 165 769 q 136 819 136 799 q 151 853 136 840 q 188 867 165 867 q 223 853 208 867 q 238 819 238 840 q 223 784 238 799 q 188 769 208 769 m 331 769 q 294 784 310 769 q 279 819 279 799 q 294 853 279 840 q 331 867 310 867 q 367 853 353 867 q 381 819 381 840 q 367 784 381 799 q 331 769 353 769 z "},"ạ":{"ha":503,"x_min":50,"x_max":447,"o":"m 192 -10 q 126 -1 158 -10 q 72 40 94 8 q 50 140 50 72 l 50 214 q 91 324 50 282 q 208 399 132 365 q 283 437 254 419 q 326 476 313 454 q 340 533 340 497 l 340 565 q 328 612 340 596 q 297 635 317 628 q 253 642 276 642 q 180 610 197 642 q 163 515 163 579 l 163 457 l 67 457 l 67 525 q 81 616 67 576 q 135 678 94 656 q 253 701 175 701 q 376 684 335 701 q 433 633 418 667 q 447 550 447 600 l 447 0 l 342 0 l 342 83 q 284 14 326 38 q 192 -10 242 -10 m 233 61 q 315 101 290 61 q 339 208 339 140 l 339 417 q 298 380 326 396 q 240 347 269 364 q 176 296 199 322 q 153 222 153 269 l 153 163 q 165 96 153 118 q 197 67 178 74 q 233 61 215 61 m 251 -158 q 215 -143 229 -158 q 200 -108 200 -128 q 215 -73 200 -87 q 251 -58 229 -58 q 288 -73 272 -58 q 304 -108 304 -87 q 288 -143 304 -128 q 251 -158 272 -158 z "},"æ":{"ha":779,"x_min":50,"x_max":733,"o":"m 192 -7 q 149 -3 174 -7 q 103 14 125 0 q 65 58 81 28 q 50 144 50 89 l 50 218 q 92 326 50 286 q 200 394 135 365 q 280 435 249 417 q 326 474 311 453 q 340 525 340 494 l 340 565 q 328 612 340 596 q 297 635 317 628 q 253 642 276 642 q 180 610 197 642 q 163 515 163 579 l 163 457 l 67 457 l 67 525 q 81 616 67 576 q 135 678 94 656 q 253 701 175 701 q 363 682 325 701 q 413 628 400 663 q 426 550 426 594 l 426 49 l 363 115 q 295 20 342 47 q 192 -7 249 -7 m 233 64 q 315 102 290 64 q 339 208 339 140 l 339 417 q 297 380 326 396 q 236 344 267 364 q 174 294 196 319 q 153 225 153 268 l 153 167 q 165 100 153 122 q 197 71 178 78 q 233 64 215 64 m 538 -3 q 455 4 490 -3 q 397 31 419 11 q 364 89 375 50 q 353 193 353 128 l 353 528 q 397 658 353 615 q 538 700 442 700 q 687 663 640 700 q 733 528 733 626 l 733 349 l 447 349 l 447 154 q 455 92 447 114 q 482 61 463 69 q 538 53 501 53 q 592 62 572 53 q 620 94 613 71 q 628 160 628 118 l 628 247 l 733 247 l 733 199 q 722 94 733 133 q 686 33 710 54 q 625 5 663 13 q 538 -3 588 -3 m 447 400 l 628 400 l 628 539 q 610 617 628 593 q 538 642 592 642 q 466 617 485 642 q 447 539 447 593 l 447 400 z "},"à":{"ha":503,"x_min":50,"x_max":447,"o":"m 192 -10 q 126 -1 158 -10 q 72 40 94 8 q 50 140 50 72 l 50 214 q 91 324 50 282 q 208 399 132 365 q 283 437 254 419 q 326 476 313 454 q 340 533 340 497 l 340 565 q 328 612 340 596 q 297 635 317 628 q 253 642 276 642 q 180 610 197 642 q 163 515 163 579 l 163 457 l 67 457 l 67 525 q 81 616 67 576 q 135 678 94 656 q 253 701 175 701 q 376 684 335 701 q 433 633 418 667 q 447 550 447 600 l 447 0 l 342 0 l 342 83 q 284 14 326 38 q 192 -10 242 -10 m 233 61 q 315 101 290 61 q 339 208 339 140 l 339 417 q 298 380 326 396 q 240 347 269 364 q 176 296 199 322 q 153 222 153 269 l 153 163 q 165 96 153 118 q 197 67 178 74 q 233 61 215 61 m 253 758 l 133 890 l 240 890 l 319 758 l 253 758 z "},"ả":{"ha":503,"x_min":50,"x_max":447,"o":"m 192 -10 q 126 -1 158 -10 q 72 40 94 8 q 50 140 50 72 l 50 214 q 91 324 50 282 q 208 399 132 365 q 283 437 254 419 q 326 476 313 454 q 340 533 340 497 l 340 565 q 328 612 340 596 q 297 635 317 628 q 253 642 276 642 q 180 610 197 642 q 163 515 163 579 l 163 457 l 67 457 l 67 525 q 81 616 67 576 q 135 678 94 656 q 253 701 175 701 q 376 684 335 701 q 433 633 418 667 q 447 550 447 600 l 447 0 l 342 0 l 342 83 q 284 14 326 38 q 192 -10 242 -10 m 233 61 q 315 101 290 61 q 339 208 339 140 l 339 417 q 298 380 326 396 q 240 347 269 364 q 176 296 199 322 q 153 222 153 269 l 153 163 q 165 96 153 118 q 197 67 178 74 q 233 61 215 61 m 228 761 l 228 782 q 244 812 228 801 q 275 831 260 822 q 290 858 290 840 l 290 865 q 282 889 290 878 q 254 900 274 900 q 222 868 228 900 l 171 878 q 197 926 175 910 q 260 943 219 943 q 330 927 307 943 q 353 865 353 911 l 353 863 q 336 819 353 832 q 303 800 319 807 q 286 776 286 793 l 286 761 l 228 761 z "},"ā":{"ha":503,"x_min":50,"x_max":447,"o":"m 192 -10 q 126 -1 158 -10 q 72 40 94 8 q 50 140 50 72 l 50 214 q 91 324 50 282 q 208 399 132 365 q 283 437 254 419 q 326 476 313 454 q 340 533 340 497 l 340 565 q 328 612 340 596 q 297 635 317 628 q 253 642 276 642 q 180 610 197 642 q 163 515 163 579 l 163 457 l 67 457 l 67 525 q 81 616 67 576 q 135 678 94 656 q 253 701 175 701 q 376 684 335 701 q 433 633 418 667 q 447 550 447 600 l 447 0 l 342 0 l 342 83 q 284 14 326 38 q 192 -10 242 -10 m 233 61 q 315 101 290 61 q 339 208 339 140 l 339 417 q 298 380 326 396 q 240 347 269 364 q 176 296 199 322 q 153 222 153 269 l 153 163 q 165 96 153 118 q 197 67 178 74 q 233 61 215 61 m 125 783 l 125 840 l 390 840 l 390 783 l 125 783 z "},"&":{"ha":661,"x_min":53,"x_max":608,"o":"m 263 -8 q 141 21 188 -8 q 74 101 94 50 q 53 221 53 151 q 84 351 53 299 q 175 419 115 403 q 150 473 161 439 q 139 551 139 507 q 183 664 142 624 q 313 704 225 704 q 392 699 354 704 q 456 685 429 693 q 493 672 483 678 l 493 593 q 465 601 489 594 q 407 614 440 608 q 338 619 374 619 q 272 603 294 619 q 242 560 249 586 q 241 503 235 533 q 263 447 247 474 q 284 419 269 438 q 317 378 299 400 q 353 333 335 356 q 387 295 372 311 q 408 271 401 279 l 410 413 l 608 413 l 608 343 l 483 343 q 483 283 483 307 q 482 242 483 258 q 479 206 481 225 q 552 139 517 169 q 608 97 588 108 l 608 -3 q 540 33 585 0 q 446 111 494 67 q 403 37 432 63 q 337 1 374 11 q 263 -8 300 -8 m 267 67 q 349 94 318 67 q 385 167 379 121 q 290 270 336 218 q 215 358 243 322 q 160 317 181 347 q 139 228 139 288 q 173 108 138 149 q 267 67 208 67 z "},"ą":{"ha":503,"x_min":50,"x_max":474,"o":"m 192 -10 q 126 -1 158 -10 q 72 40 94 8 q 50 140 50 72 l 50 214 q 91 324 50 282 q 208 399 132 365 q 283 437 254 419 q 326 476 313 454 q 340 533 340 497 l 340 565 q 328 612 340 596 q 297 635 317 628 q 253 642 276 642 q 180 610 197 642 q 163 515 163 579 l 163 457 l 67 457 l 67 525 q 81 616 67 576 q 135 678 94 656 q 253 701 175 701 q 376 684 335 701 q 433 633 418 667 q 447 550 447 600 l 447 0 l 342 0 l 342 83 q 284 14 326 38 q 192 -10 242 -10 m 233 61 q 315 101 290 61 q 339 208 339 140 l 339 417 q 298 380 326 396 q 240 347 269 364 q 176 296 199 322 q 153 222 153 269 l 153 163 q 165 96 153 118 q 197 67 178 74 q 233 61 215 61 m 401 -192 q 331 -167 360 -192 q 301 -108 301 -143 q 331 -39 301 -69 q 397 1 360 -8 l 447 0 q 391 -42 410 -15 q 372 -94 372 -68 q 390 -135 372 -121 q 426 -149 408 -149 q 447 -146 438 -149 q 460 -140 456 -143 l 475 -174 q 449 -185 467 -178 q 401 -192 432 -192 z "},"≈":{"ha":689,"x_min":58,"x_max":631,"o":"m 476 443 q 388 459 431 444 q 301 488 344 474 q 206 504 257 503 q 144 485 168 506 q 118 442 121 465 l 58 442 q 82 513 61 483 q 137 560 103 543 q 211 575 171 576 q 299 560 257 574 q 385 533 342 546 q 478 518 429 519 q 540 535 519 517 q 564 575 561 553 l 631 575 q 603 491 628 521 q 545 451 579 461 q 476 443 511 442 m 476 151 q 388 168 431 153 q 301 198 344 183 q 206 214 257 213 q 144 195 168 215 q 118 150 121 175 l 58 150 q 82 223 61 193 q 137 269 103 253 q 211 285 171 286 q 299 269 257 283 q 385 242 342 256 q 478 228 429 229 q 540 244 519 226 q 564 285 561 263 l 631 285 q 603 201 628 231 q 545 161 579 171 q 476 151 511 151 z "},"å":{"ha":503,"x_min":50,"x_max":447,"o":"m 192 -10 q 126 -1 158 -10 q 72 40 94 8 q 50 140 50 72 l 50 214 q 91 324 50 282 q 208 399 132 365 q 283 437 254 419 q 326 476 313 454 q 340 533 340 497 l 340 565 q 328 612 340 596 q 297 635 317 628 q 253 642 276 642 q 180 610 197 642 q 163 515 163 579 l 163 457 l 67 457 l 67 525 q 81 616 67 576 q 135 678 94 656 q 253 701 175 701 q 376 684 335 701 q 433 633 418 667 q 447 550 447 600 l 447 0 l 342 0 l 342 83 q 284 14 326 38 q 192 -10 242 -10 m 233 61 q 315 101 290 61 q 339 208 339 140 l 339 417 q 298 380 326 396 q 240 347 269 364 q 176 296 199 322 q 153 222 153 269 l 153 163 q 165 96 153 118 q 197 67 178 74 q 233 61 215 61 m 257 754 q 176 785 208 754 q 144 860 144 817 q 176 935 144 904 q 257 967 208 967 q 339 935 307 967 q 371 860 371 904 q 337 785 371 817 q 257 754 303 754 m 257 801 q 303 818 286 801 q 319 860 319 835 q 303 903 319 888 q 257 919 286 919 q 213 903 229 919 q 196 860 196 888 q 213 818 196 835 q 257 801 229 801 z "},"^":{"ha":557,"x_min":58,"x_max":499,"o":"m 58 688 l 251 950 l 307 950 l 499 688 l 407 688 l 278 861 l 153 688 l 58 688 z "},"~":{"ha":689,"x_min":58,"x_max":631,"o":"m 476 707 q 388 722 431 708 q 301 751 344 736 q 206 768 257 767 q 144 749 168 769 q 118 706 121 729 l 58 706 q 82 778 61 747 q 137 824 103 808 q 211 839 171 840 q 299 825 257 839 q 385 797 342 811 q 478 782 429 783 q 540 799 519 781 q 564 839 561 817 l 631 839 q 603 756 628 785 q 545 716 579 726 q 476 707 511 706 z "},"*":{"ha":776,"x_min":61,"x_max":694,"o":"m 239 135 l 150 200 l 349 414 l 61 461 l 99 576 l 361 446 l 321 735 l 435 735 l 397 446 l 658 574 l 694 467 l 408 414 l 608 201 l 518 138 l 381 390 l 239 135 z "},"@":{"ha":1003,"x_min":67,"x_max":931,"o":"m 489 -92 q 235 -40 326 -92 q 105 110 143 11 q 67 349 67 208 q 168 699 67 574 q 493 824 269 824 q 718 782 619 824 q 874 649 817 740 q 931 411 931 558 q 908 247 931 318 q 845 135 886 175 q 743 94 804 94 q 670 117 700 94 q 625 172 640 139 q 607 240 610 206 l 633 239 q 563 149 607 175 q 460 124 518 124 q 355 154 394 124 q 315 264 315 185 q 328 333 315 304 q 379 384 342 361 q 489 428 417 407 q 545 449 522 436 q 579 474 568 463 q 590 494 588 483 q 593 517 593 504 q 573 569 593 550 q 504 588 553 588 q 428 567 450 588 q 406 503 406 546 l 406 461 l 329 461 l 329 506 q 344 581 329 551 q 397 624 360 610 q 504 639 435 639 q 612 623 574 639 q 665 576 650 607 q 679 494 679 544 l 679 250 q 701 167 679 192 q 757 142 724 142 q 812 167 786 142 q 853 249 838 192 q 869 401 869 306 q 830 598 869 514 q 709 728 790 682 q 503 775 628 775 q 295 734 378 775 q 171 599 213 693 q 129 346 129 506 q 156 149 129 225 q 233 31 183 72 q 349 -26 282 -10 q 499 -43 417 -42 q 569 -39 525 -43 q 661 -27 613 -35 q 753 -8 710 -19 q 824 17 797 3 l 824 -35 q 749 -58 797 -44 q 634 -82 700 -72 q 489 -92 568 -92 m 485 183 q 547 200 522 183 q 585 240 572 217 q 599 283 599 263 l 599 413 q 549 398 578 407 q 496 378 521 389 q 438 349 460 363 q 405 316 415 335 q 394 267 394 297 q 415 203 394 224 q 485 183 435 183 z "},"ã":{"ha":503,"x_min":50,"x_max":447,"o":"m 192 -10 q 126 -1 158 -10 q 72 40 94 8 q 50 140 50 72 l 50 214 q 91 324 50 282 q 208 399 132 365 q 283 437 254 419 q 326 476 313 454 q 340 533 340 497 l 340 565 q 328 612 340 596 q 297 635 317 628 q 253 642 276 642 q 180 610 197 642 q 163 515 163 579 l 163 457 l 67 457 l 67 525 q 81 616 67 576 q 135 678 94 656 q 253 701 175 701 q 376 684 335 701 q 433 633 418 667 q 447 550 447 600 l 447 0 l 342 0 l 342 83 q 284 14 326 38 q 192 -10 242 -10 m 233 61 q 315 101 290 61 q 339 208 339 140 l 339 417 q 298 380 326 396 q 240 347 269 364 q 176 296 199 322 q 153 222 153 269 l 153 163 q 165 96 153 118 q 197 67 178 74 q 233 61 215 61 m 319 768 q 285 775 300 768 q 251 793 271 782 q 224 810 239 801 q 192 818 208 818 q 164 806 175 818 q 150 769 153 793 l 113 769 q 135 842 114 814 q 193 871 157 871 q 231 863 214 871 q 264 844 247 856 q 292 829 279 836 q 319 822 306 822 q 349 834 338 822 q 364 868 360 846 l 404 868 q 390 814 403 836 q 359 780 378 792 q 319 768 340 768 z "},"b":{"ha":513,"x_min":68,"x_max":461,"o":"m 285 -10 q 190 13 221 -10 q 146 63 158 36 l 143 0 l 68 0 l 68 875 l 172 875 l 172 632 q 219 681 188 664 q 301 699 251 699 q 397 678 363 699 q 446 620 431 658 q 461 528 461 582 l 461 189 q 453 100 461 138 q 424 38 444 63 q 370 2 404 14 q 285 -10 336 -10 m 264 63 q 318 73 300 63 q 344 100 336 83 q 354 139 353 117 q 356 183 356 161 l 356 513 q 354 557 356 536 q 344 594 353 578 q 317 621 335 611 q 264 631 299 631 q 193 605 213 631 q 174 526 174 579 l 174 208 q 175 157 174 182 q 185 110 176 132 q 211 76 193 89 q 264 63 229 63 z "},"\\":{"ha":725,"x_min":58,"x_max":614,"o":"m 535 -62 l 58 876 l 139 876 l 614 -62 l 535 -62 z "},"|":{"ha":339,"x_min":122,"x_max":217,"o":"m 122 -336 l 122 876 l 217 876 l 217 -336 l 122 -336 z "},"б":{"ha":507,"x_min":53,"x_max":456,"o":"m 250 -10 q 140 8 183 -10 q 74 67 96 26 q 53 174 53 108 l 53 671 q 69 781 53 740 q 120 841 85 822 q 211 860 156 860 q 271 863 239 860 q 331 872 303 867 q 380 885 360 878 q 406 897 400 892 l 406 849 q 379 814 406 832 q 296 796 353 796 l 275 796 q 208 785 233 796 q 170 750 182 775 q 157 682 158 725 l 157 589 q 202 633 169 614 q 290 653 235 653 q 382 635 346 653 q 437 579 418 617 q 456 479 456 542 l 456 199 q 444 98 456 138 q 410 34 433 58 q 347 0 386 10 q 250 -10 307 -10 m 254 54 q 317 71 297 54 q 344 115 338 88 q 350 176 350 143 l 350 468 q 344 526 350 500 q 319 568 339 553 q 256 583 299 583 q 199 574 219 583 q 170 548 179 564 q 159 515 161 532 q 157 482 157 499 l 157 176 q 163 115 157 143 q 190 71 169 88 q 254 54 211 54 z "},"{":{"ha":438,"x_min":81,"x_max":349,"o":"m 349 -190 q 210 -158 263 -185 q 135 -91 158 -132 q 111 0 111 -50 q 125 79 111 44 q 158 143 139 114 q 191 201 176 172 q 206 261 206 229 q 188 309 206 289 q 142 341 169 329 q 81 354 114 353 l 81 386 q 138 399 110 388 q 185 433 167 411 q 203 485 203 456 q 189 542 203 514 q 157 598 175 569 q 125 660 139 626 q 111 735 111 694 q 133 828 111 789 q 208 892 156 868 q 349 922 260 917 l 349 861 q 285 845 314 856 q 240 810 257 835 q 224 735 224 785 q 235 663 224 694 q 261 604 246 632 q 288 547 276 576 q 299 479 299 517 q 289 436 299 458 q 256 396 279 414 q 194 371 233 378 q 272 332 244 358 q 300 265 300 306 q 290 201 300 229 q 265 144 279 172 q 240 83 250 115 q 229 10 229 51 q 247 -69 229 -40 q 293 -112 265 -99 q 349 -129 321 -125 l 349 -190 z "},"}":{"ha":438,"x_min":89,"x_max":357,"o":"m 89 -190 l 89 -129 q 144 -112 117 -125 q 190 -69 172 -99 q 208 10 208 -40 q 198 83 208 51 q 173 144 188 115 q 148 201 158 172 q 138 265 138 229 q 165 332 138 306 q 243 371 193 358 q 182 396 206 378 q 148 436 158 414 q 138 479 138 458 q 149 547 138 517 q 176 604 161 576 q 202 663 190 632 q 214 735 214 694 q 197 810 214 785 q 153 845 181 835 q 89 861 125 856 l 89 922 q 229 892 178 917 q 303 828 281 868 q 326 735 326 789 q 313 660 326 694 q 281 598 299 626 q 249 542 263 569 q 235 485 235 514 q 253 433 235 456 q 299 399 271 411 q 357 386 328 388 l 357 354 q 297 341 325 353 q 250 309 268 329 q 232 261 232 289 q 247 201 232 229 q 279 143 261 172 q 312 79 297 114 q 326 0 326 44 q 303 -91 326 -50 q 226 -158 279 -132 q 89 -190 174 -185 z "},"[":{"ha":408,"x_min":64,"x_max":344,"o":"m 64 -79 l 64 875 l 344 875 l 344 817 l 163 817 l 163 -21 l 344 -21 l 344 -79 l 64 -79 z "},"]":{"ha":408,"x_min":64,"x_max":344,"o":"m 64 -79 l 64 -21 l 244 -21 l 244 817 l 64 817 l 64 875 l 344 875 l 344 -79 l 64 -79 z "},"˘":{"ha":329,"x_min":18,"x_max":304,"o":"m 160 761 q 74 783 104 761 q 31 834 43 804 q 18 889 19 864 l 79 889 q 106 833 83 851 q 160 815 129 815 q 217 833 194 815 q 243 889 239 850 l 304 889 q 288 829 303 858 q 242 781 274 800 q 160 761 211 761 z "},"̆":{"ha":0,"x_min":18,"x_max":304,"o":"m 160 761 q 74 783 104 761 q 31 834 43 804 q 18 889 19 864 l 79 889 q 106 833 83 851 q 160 815 129 815 q 217 833 194 815 q 243 889 239 850 l 304 889 q 288 829 303 858 q 242 781 274 800 q 160 761 211 761 z "},"¦":{"ha":314,"x_min":111,"x_max":204,"o":"m 111 -235 l 111 240 l 204 240 l 204 -235 l 111 -235 m 111 378 l 111 813 l 204 813 l 204 378 l 111 378 z "},"•":{"ha":539,"x_min":81,"x_max":460,"o":"m 271 199 q 175 224 218 199 q 106 293 132 250 q 81 389 81 336 q 106 484 81 442 q 175 552 132 526 q 271 578 218 578 q 366 552 324 578 q 434 484 408 526 q 460 389 460 442 q 434 293 460 336 q 366 224 408 250 q 271 199 324 199 z "},"c":{"ha":489,"x_min":53,"x_max":443,"o":"m 253 -12 q 139 3 183 -12 q 74 63 94 19 q 53 193 53 107 l 53 522 q 99 663 53 625 q 249 700 146 700 q 397 663 350 700 q 443 528 443 626 l 443 436 l 338 436 l 338 533 q 320 612 338 588 q 249 636 303 636 q 177 612 196 636 q 158 533 158 588 l 158 163 q 177 78 158 103 q 251 54 196 54 q 320 78 303 54 q 338 163 338 101 l 338 263 l 443 263 l 443 193 q 422 65 443 110 q 359 4 401 21 q 253 -12 317 -12 z "},"ć":{"ha":489,"x_min":53,"x_max":443,"o":"m 253 -12 q 139 3 183 -12 q 74 63 94 19 q 53 193 53 107 l 53 522 q 99 663 53 625 q 249 700 146 700 q 397 663 350 700 q 443 528 443 626 l 443 436 l 338 436 l 338 533 q 320 612 338 588 q 249 636 303 636 q 177 612 196 636 q 158 533 158 588 l 158 163 q 177 78 158 103 q 251 54 196 54 q 320 78 303 54 q 338 163 338 101 l 338 263 l 443 263 l 443 193 q 422 65 443 110 q 359 4 401 21 q 253 -12 317 -12 m 188 758 l 267 890 l 374 890 l 254 758 l 188 758 z "},"ˇ":{"ha":353,"x_min":7,"x_max":326,"o":"m 133 758 l 7 892 l 76 892 l 167 808 l 260 892 l 326 892 l 200 758 l 133 758 z "},"̌":{"ha":0,"x_min":7,"x_max":326,"o":"m 133 758 l 7 892 l 76 892 l 167 808 l 260 892 l 326 892 l 200 758 l 133 758 z "},"č":{"ha":489,"x_min":53,"x_max":443,"o":"m 253 -12 q 139 3 183 -12 q 74 63 94 19 q 53 193 53 107 l 53 522 q 99 663 53 625 q 249 700 146 700 q 397 663 350 700 q 443 528 443 626 l 443 436 l 338 436 l 338 533 q 320 612 338 588 q 249 636 303 636 q 177 612 196 636 q 158 533 158 588 l 158 163 q 177 78 158 103 q 251 54 196 54 q 320 78 303 54 q 338 163 338 101 l 338 263 l 443 263 l 443 193 q 422 65 443 110 q 359 4 401 21 q 253 -12 317 -12 m 211 758 l 85 892 l 154 892 l 244 808 l 338 892 l 404 892 l 278 758 l 211 758 z "},"ç":{"ha":489,"x_min":53,"x_max":443,"o":"m 253 -12 q 139 3 183 -12 q 74 63 94 19 q 53 193 53 107 l 53 522 q 99 663 53 625 q 249 700 146 700 q 397 663 350 700 q 443 528 443 626 l 443 436 l 338 436 l 338 533 q 320 612 338 588 q 249 636 303 636 q 177 612 196 636 q 158 533 158 588 l 158 163 q 177 78 158 103 q 251 54 196 54 q 320 78 303 54 q 338 163 338 101 l 338 263 l 443 263 l 443 193 q 422 65 443 110 q 359 4 401 21 q 253 -12 317 -12 m 238 -208 q 197 -200 215 -208 q 167 -186 178 -192 l 182 -149 q 206 -161 190 -156 q 233 -167 222 -167 q 272 -155 260 -167 q 285 -125 285 -143 q 274 -99 285 -108 q 246 -89 263 -89 q 228 -92 236 -89 q 213 -101 219 -96 l 179 -83 l 224 0 l 268 0 l 231 -71 l 222 -68 q 244 -59 232 -62 q 271 -56 257 -56 q 326 -78 306 -56 q 346 -124 346 -100 q 318 -184 346 -160 q 238 -208 290 -208 z "},"ċ":{"ha":489,"x_min":53,"x_max":443,"o":"m 253 -12 q 139 3 183 -12 q 74 63 94 19 q 53 193 53 107 l 53 522 q 99 663 53 625 q 249 700 146 700 q 397 663 350 700 q 443 528 443 626 l 443 436 l 338 436 l 338 533 q 320 612 338 588 q 249 636 303 636 q 177 612 196 636 q 158 533 158 588 l 158 163 q 177 78 158 103 q 251 54 196 54 q 320 78 303 54 q 338 163 338 101 l 338 263 l 443 263 l 443 193 q 422 65 443 110 q 359 4 401 21 q 253 -12 317 -12 m 244 769 q 203 787 221 769 q 185 828 185 804 q 203 869 185 853 q 246 886 221 886 q 288 869 271 886 q 306 828 306 853 q 288 787 307 804 q 244 769 269 769 z "},"¸":{"ha":229,"x_min":0,"x_max":179,"o":"m 71 -208 q 30 -200 49 -208 q 0 -186 11 -192 l 15 -149 q 40 -161 24 -156 q 67 -167 56 -167 q 106 -155 93 -167 q 118 -125 118 -143 q 107 -99 118 -108 q 79 -89 96 -89 q 61 -92 69 -89 q 46 -101 53 -96 l 13 -83 l 57 0 l 101 0 l 64 -71 l 56 -68 q 78 -59 65 -62 q 104 -56 90 -56 q 159 -78 139 -56 q 179 -124 179 -100 q 151 -184 179 -160 q 71 -208 124 -208 z "},"̧":{"ha":0,"x_min":0,"x_max":179,"o":"m 71 -208 q 30 -200 49 -208 q 0 -186 11 -192 l 15 -149 q 40 -161 24 -156 q 67 -167 56 -167 q 106 -155 93 -167 q 118 -125 118 -143 q 107 -99 118 -108 q 79 -89 96 -89 q 61 -92 69 -89 q 46 -101 53 -96 l 13 -83 l 57 0 l 101 0 l 64 -71 l 56 -68 q 78 -59 65 -62 q 104 -56 90 -56 q 159 -78 139 -56 q 179 -124 179 -100 q 151 -184 179 -160 q 71 -208 124 -208 z "},"¢":{"ha":489,"x_min":58,"x_max":431,"o":"m 213 -89 l 213 69 q 132 86 167 71 q 78 138 97 101 q 58 246 58 175 l 58 628 q 78 718 58 686 q 132 765 97 750 q 213 782 167 779 l 213 899 l 282 899 l 282 779 q 358 760 325 775 q 411 715 392 746 q 431 628 431 683 l 431 501 l 338 501 l 338 631 q 325 692 338 672 q 292 718 313 711 q 244 725 271 725 q 197 718 218 725 q 164 692 176 711 q 151 631 151 672 l 151 219 q 164 158 151 178 q 197 131 176 138 q 244 124 218 124 q 293 131 272 124 q 326 158 314 138 q 338 219 338 178 l 338 332 l 431 332 l 431 246 q 411 142 431 179 q 358 90 392 106 q 282 71 325 75 l 282 -89 l 213 -89 z "},"ч":{"ha":476,"x_min":38,"x_max":422,"o":"m 322 0 l 322 256 q 276 194 313 218 q 190 169 240 169 q 92 192 125 169 q 48 257 58 215 q 38 354 38 299 l 38 688 l 143 688 l 143 353 q 160 272 143 300 q 228 243 178 243 q 288 263 267 243 q 315 304 308 283 l 315 688 l 422 688 l 422 0 l 322 0 z "},"ˆ":{"ha":346,"x_min":14,"x_max":332,"o":"m 14 758 l 140 892 l 206 892 l 332 758 l 265 758 l 174 842 l 83 758 l 14 758 z "},"̂":{"ha":0,"x_min":14,"x_max":332,"o":"m 14 758 l 140 892 l 206 892 l 332 758 l 265 758 l 174 842 l 83 758 l 14 758 z "},":":{"ha":263,"x_min":69,"x_max":193,"o":"m 131 379 q 88 396 106 379 q 69 438 69 413 q 88 478 69 461 q 131 496 106 496 q 174 478 156 496 q 193 438 193 461 q 174 396 193 413 q 131 379 156 379 m 131 -10 q 88 7 106 -10 q 69 49 69 24 q 88 90 69 72 q 131 107 106 107 q 174 90 156 107 q 193 49 193 72 q 174 7 193 24 q 131 -10 156 -10 z "},",":{"ha":271,"x_min":69,"x_max":201,"o":"m 69 -176 q 102 -106 88 -140 q 117 -46 117 -72 q 108 -11 117 -24 q 90 12 99 1 q 81 43 81 22 q 97 83 81 67 q 142 100 114 100 q 185 82 169 100 q 201 35 201 64 q 189 -33 201 4 q 158 -108 176 -71 q 118 -176 139 -146 l 69 -176 z "},"̦":{"ha":0,"x_min":0,"x_max":111,"o":"m 0 -236 q 28 -186 17 -210 q 39 -146 39 -162 q 31 -131 39 -137 q 16 -117 24 -125 q 8 -93 8 -108 q 23 -65 8 -78 q 58 -53 38 -53 q 97 -67 82 -53 q 111 -101 111 -82 q 101 -142 111 -118 q 76 -192 90 -167 q 44 -236 61 -217 l 0 -236 z "},"̒":{"ha":0,"x_min":-6,"x_max":106,"o":"m 106 936 q 78 886 90 910 q 67 847 67 863 q 75 831 67 838 q 90 817 83 825 q 97 794 97 810 q 83 765 97 778 q 47 753 69 753 q 10 767 25 753 q -6 801 -6 782 q 5 844 -6 819 q 31 893 15 868 q 61 936 46 918 l 106 936 z "},"©":{"ha":833,"x_min":56,"x_max":833,"o":"m 444 43 q 293 73 364 43 q 169 157 222 103 q 85 282 115 211 q 56 433 56 353 q 85 584 56 514 q 169 708 115 654 q 293 791 222 761 q 444 821 364 821 q 596 791 525 821 q 720 708 667 761 q 803 584 774 654 q 833 433 833 514 q 803 282 833 353 q 720 157 774 211 q 596 73 667 103 q 444 43 525 43 m 444 86 q 578 114 517 86 q 688 190 640 142 q 760 300 735 238 q 786 433 786 363 q 740 606 786 528 q 617 729 694 683 q 444 775 540 775 q 312 749 374 775 q 203 675 250 722 q 128 565 156 628 q 101 433 101 503 q 128 300 101 363 q 203 190 156 238 q 312 114 250 142 q 444 86 374 86 m 450 214 q 369 224 401 214 q 323 263 338 233 q 308 346 308 292 l 308 557 q 341 648 308 624 q 446 672 374 672 q 551 649 518 672 q 583 561 583 625 l 583 501 l 511 501 l 511 565 q 498 614 511 599 q 446 629 485 629 q 394 614 407 629 q 381 565 381 599 l 381 326 q 394 272 381 288 q 449 257 408 257 q 498 272 485 257 q 511 326 511 286 l 511 390 l 583 390 l 583 347 q 569 263 583 292 q 524 224 554 235 q 450 214 494 214 z "},"¤":{"ha":667,"x_min":58,"x_max":608,"o":"m 118 150 l 65 204 l 175 314 q 149 363 158 338 q 139 417 139 389 q 174 522 139 474 l 58 638 l 110 690 l 229 572 q 329 600 278 600 q 432 571 382 600 l 549 688 l 601 635 l 486 519 q 521 417 521 472 q 488 318 521 363 l 608 197 l 556 144 l 432 267 q 381 244 407 253 q 329 236 356 236 q 229 263 274 236 l 118 150 m 329 313 q 405 343 374 313 q 436 415 436 374 q 405 492 436 461 q 329 524 374 524 q 253 493 283 524 q 222 415 222 463 q 253 343 222 374 q 329 313 283 313 z "},"d":{"ha":513,"x_min":53,"x_max":446,"o":"m 225 -11 q 142 1 175 -11 q 88 37 108 13 q 60 99 68 61 q 53 189 53 138 l 53 529 q 61 601 53 569 q 89 653 69 632 q 138 687 108 675 q 210 699 167 699 q 297 682 267 699 q 340 642 326 665 l 340 875 l 446 875 l 446 0 l 374 0 l 363 65 q 340 31 356 49 q 297 1 324 14 q 225 -11 269 -11 m 246 53 q 300 65 281 53 q 328 99 319 78 q 338 144 336 119 q 340 194 340 169 l 340 576 q 328 601 338 588 q 299 624 318 614 q 249 633 281 633 q 196 624 214 633 q 169 597 178 614 q 160 558 161 579 q 158 514 158 538 l 158 171 q 162 113 158 140 q 184 69 165 85 q 246 53 203 53 z "},"†":{"ha":514,"x_min":58,"x_max":457,"o":"m 208 -169 l 208 456 l 58 456 l 58 519 l 208 519 l 208 813 l 301 813 l 301 519 l 457 519 l 457 456 l 301 456 l 301 -169 l 208 -169 z "},"‡":{"ha":518,"x_min":58,"x_max":460,"o":"m 210 -169 l 210 207 l 58 207 l 58 278 l 210 278 l 210 465 l 58 465 l 58 535 l 210 535 l 210 838 l 304 838 l 304 535 l 460 535 l 460 465 l 304 465 l 304 278 l 460 278 l 460 207 l 304 207 l 304 -169 l 210 -169 z "},"ď":{"ha":571,"x_min":53,"x_max":579,"o":"m 225 -11 q 142 1 175 -11 q 88 37 108 13 q 60 99 68 61 q 53 189 53 138 l 53 529 q 61 601 53 569 q 89 653 69 632 q 138 687 108 675 q 210 699 167 699 q 297 682 267 699 q 340 642 326 665 l 340 875 l 446 875 l 446 0 l 374 0 l 363 65 q 340 31 356 49 q 297 1 324 14 q 225 -11 269 -11 m 246 53 q 300 65 281 53 q 328 99 319 78 q 338 144 336 119 q 340 194 340 169 l 340 576 q 328 601 338 588 q 299 624 318 614 q 249 633 281 633 q 196 624 214 633 q 169 597 178 614 q 160 558 161 579 q 158 514 158 538 l 158 171 q 162 113 158 140 q 184 69 165 85 q 246 53 203 53 m 483 686 l 511 871 l 579 871 l 524 686 l 483 686 z "},"đ":{"ha":504,"x_min":53,"x_max":494,"o":"m 190 746 l 190 792 l 494 792 l 494 746 l 190 746 m 225 -11 q 142 1 175 -11 q 88 37 108 13 q 60 99 68 61 q 53 189 53 138 l 53 529 q 61 601 53 569 q 89 653 69 632 q 138 687 108 675 q 210 699 167 699 q 297 682 267 699 q 340 642 326 665 l 340 875 l 446 875 l 446 0 l 374 0 l 363 65 q 340 31 356 49 q 297 1 324 14 q 225 -11 269 -11 m 246 53 q 300 65 281 53 q 328 99 319 78 q 338 144 336 119 q 340 194 340 169 l 340 576 q 328 601 338 588 q 299 624 318 614 q 249 633 281 633 q 196 624 214 633 q 169 597 178 614 q 160 558 161 579 q 158 514 158 538 l 158 171 q 162 113 158 140 q 184 69 165 85 q 246 53 203 53 z "},"д":{"ha":708,"x_min":29,"x_max":679,"o":"m 29 -151 l 29 64 l 89 64 q 122 79 106 67 q 152 117 139 92 q 169 185 165 143 l 221 686 l 569 686 l 569 64 l 679 64 l 679 -151 l 589 -151 l 589 -18 l 119 -18 l 119 -151 l 29 -151 m 235 64 l 457 64 l 457 610 l 318 610 l 275 204 q 263 124 271 167 q 235 64 256 82 z "},"°":{"ha":451,"x_min":58,"x_max":394,"o":"m 225 493 q 99 541 139 493 q 58 656 58 589 q 97 772 58 724 q 228 821 135 821 q 327 799 290 821 q 379 740 364 776 q 394 658 394 703 q 353 540 394 586 q 225 493 313 493 m 226 544 q 305 576 276 544 q 333 657 333 607 q 306 738 333 703 q 225 772 279 772 q 148 739 176 772 q 119 656 119 706 q 151 576 119 607 q 226 544 182 544 z "},"¨":{"ha":275,"x_min":0,"x_max":244,"o":"m 51 769 q 15 784 29 769 q 0 819 0 799 q 15 853 0 840 q 51 867 29 867 q 87 853 72 867 q 101 819 101 840 q 87 784 101 799 q 51 769 72 769 m 194 769 q 158 784 174 769 q 143 819 143 799 q 158 853 143 840 q 194 867 174 867 q 231 853 217 867 q 244 819 244 840 q 231 784 244 799 q 194 769 217 769 z "},"̈":{"ha":0,"x_min":0,"x_max":244,"o":"m 51 769 q 15 784 29 769 q 0 819 0 799 q 15 853 0 840 q 51 867 29 867 q 87 853 72 867 q 101 819 101 840 q 87 784 101 799 q 51 769 72 769 m 194 769 q 158 784 174 769 q 143 819 143 799 q 158 853 143 840 q 194 867 174 867 q 231 853 217 867 q 244 819 244 840 q 231 784 244 799 q 194 769 217 769 z "},"÷":{"ha":518,"x_min":64,"x_max":454,"o":"m 64 365 l 64 439 l 454 439 l 454 365 l 64 365 m 258 117 q 218 132 235 117 q 201 171 201 147 q 218 210 201 194 q 258 226 235 226 q 300 210 283 226 q 317 171 317 194 q 300 132 317 147 q 258 117 283 117 m 258 564 q 218 579 235 564 q 201 618 201 594 q 218 658 201 642 q 258 674 235 674 q 299 658 282 674 q 317 618 317 642 q 299 579 317 594 q 258 564 282 564 z "},"∕":{"ha":576,"x_min":24,"x_max":563,"o":"m 24 -182 l 482 983 l 563 983 l 103 -182 l 24 -182 z "},"ђ":{"ha":572,"x_min":22,"x_max":515,"o":"m 364 -129 q 311 -124 333 -129 q 274 -111 289 -118 l 282 -58 q 301 -67 290 -64 q 328 -69 313 -69 q 392 -35 376 -69 q 408 65 408 0 l 408 424 q 388 495 407 468 q 315 522 368 522 q 256 508 275 522 q 228 471 236 493 q 219 426 221 449 q 217 386 218 403 l 217 0 l 110 0 l 110 710 l 22 710 l 22 769 l 110 769 l 110 875 l 217 875 l 217 769 l 347 769 l 347 710 l 217 710 l 217 517 q 264 567 231 546 q 350 589 297 589 q 442 571 406 589 q 497 515 479 553 q 515 415 515 478 l 515 89 q 503 -24 515 18 q 471 -90 492 -67 q 422 -121 450 -112 q 364 -129 394 -129 z "},"$":{"ha":482,"x_min":47,"x_max":433,"o":"m 221 -83 l 221 71 q 114 95 151 74 q 62 160 76 117 q 47 268 47 203 l 47 319 l 147 319 l 147 250 q 151 190 147 218 q 174 147 154 163 q 239 131 193 131 q 299 147 281 131 q 322 186 318 163 q 326 231 326 210 l 326 272 q 314 331 326 307 q 276 372 301 354 q 208 406 250 389 q 133 444 167 424 q 79 498 99 465 q 60 581 60 531 l 60 622 q 97 735 60 693 q 221 782 133 778 l 221 924 l 279 924 l 279 783 q 399 733 364 778 q 433 599 433 689 l 433 542 l 336 542 l 336 613 q 315 700 336 676 q 249 724 294 724 q 180 699 197 724 q 163 636 163 674 l 163 593 q 179 531 163 554 q 227 491 196 507 q 300 458 258 475 q 368 424 339 443 q 415 372 397 404 q 433 285 433 340 l 433 250 q 422 167 433 206 q 377 103 410 129 q 279 72 344 78 l 279 -83 l 221 -83 z "},"˙":{"ha":131,"x_min":0,"x_max":122,"o":"m 60 769 q 18 787 36 769 q 0 828 0 804 q 18 869 0 853 q 61 886 36 886 q 103 869 86 886 q 121 828 121 853 q 103 787 122 804 q 60 769 85 769 z "},"̇":{"ha":0,"x_min":0,"x_max":122,"o":"m 60 769 q 18 787 36 769 q 0 828 0 804 q 18 869 0 853 q 61 886 36 886 q 103 869 86 886 q 121 828 121 853 q 103 787 122 804 q 60 769 85 769 z "},"̣":{"ha":0,"x_min":14,"x_max":118,"o":"m 65 -158 q 28 -143 43 -158 q 14 -108 14 -128 q 28 -73 14 -87 q 65 -58 43 -58 q 102 -73 86 -58 q 118 -108 118 -87 q 102 -143 118 -128 q 65 -158 86 -158 z "},"↓":{"ha":721,"x_min":58,"x_max":664,"o":"m 363 0 l 58 342 l 110 393 l 319 178 l 321 996 l 404 996 l 403 181 l 614 393 l 664 340 l 363 0 z "},"ѕ":{"ha":490,"x_min":44,"x_max":443,"o":"m 243 -12 q 136 3 176 -12 q 76 45 96 18 q 51 108 57 72 q 44 186 44 144 l 44 238 l 151 238 l 151 168 q 155 108 151 135 q 178 65 158 81 q 243 49 197 49 q 303 64 285 49 q 326 103 322 79 q 331 147 331 126 l 331 190 q 318 249 331 225 q 278 290 306 272 q 210 324 251 307 q 133 361 167 340 q 78 415 99 382 q 58 499 58 447 l 58 539 q 101 659 58 617 q 253 701 144 701 q 365 683 324 701 q 424 623 406 664 q 443 515 443 582 l 443 460 l 340 460 l 340 531 q 319 617 340 593 q 253 640 299 640 q 183 615 201 640 q 165 553 165 590 l 165 511 q 183 448 165 472 q 232 408 200 424 q 306 375 264 393 q 376 340 344 360 q 425 289 407 321 q 443 201 443 257 l 443 168 q 428 77 443 118 q 370 12 413 36 q 243 -12 328 -12 z "},"џ":{"ha":515,"x_min":56,"x_max":461,"o":"m 217 -149 l 217 0 l 56 0 l 56 688 l 161 688 l 161 76 l 354 76 l 354 688 l 461 688 l 461 0 l 297 0 l 297 -149 l 217 -149 z "},"e":{"ha":489,"x_min":53,"x_max":443,"o":"m 254 -12 q 139 3 183 -12 q 74 64 94 19 q 53 194 53 108 l 53 528 q 99 663 53 626 q 249 699 146 699 q 397 663 350 699 q 443 528 443 626 l 443 349 l 158 349 l 158 156 q 177 72 158 96 q 251 49 196 49 q 320 72 303 49 q 338 156 338 94 l 338 250 l 443 250 l 443 196 q 422 66 443 111 q 360 4 401 21 q 254 -12 318 -12 m 158 400 l 338 400 l 338 539 q 320 616 338 592 q 249 640 303 640 q 177 616 196 640 q 158 539 158 592 l 158 400 z "},"é":{"ha":489,"x_min":53,"x_max":443,"o":"m 254 -12 q 139 3 183 -12 q 74 64 94 19 q 53 194 53 108 l 53 528 q 99 663 53 626 q 249 699 146 699 q 397 663 350 699 q 443 528 443 626 l 443 349 l 158 349 l 158 156 q 177 72 158 96 q 251 49 196 49 q 320 72 303 49 q 338 156 338 94 l 338 250 l 443 250 l 443 196 q 422 66 443 111 q 360 4 401 21 q 254 -12 318 -12 m 158 400 l 338 400 l 338 539 q 320 616 338 592 q 249 640 303 640 q 177 616 196 640 q 158 539 158 592 l 158 400 m 188 758 l 267 890 l 374 890 l 254 758 l 188 758 z "},"ě":{"ha":489,"x_min":53,"x_max":443,"o":"m 254 -12 q 139 3 183 -12 q 74 64 94 19 q 53 194 53 108 l 53 528 q 99 663 53 626 q 249 699 146 699 q 397 663 350 699 q 443 528 443 626 l 443 349 l 158 349 l 158 156 q 177 72 158 96 q 251 49 196 49 q 320 72 303 49 q 338 156 338 94 l 338 250 l 443 250 l 443 196 q 422 66 443 111 q 360 4 401 21 q 254 -12 318 -12 m 158 400 l 338 400 l 338 539 q 320 616 338 592 q 249 640 303 640 q 177 616 196 640 q 158 539 158 592 l 158 400 m 211 758 l 85 892 l 154 892 l 244 808 l 338 892 l 404 892 l 278 758 l 211 758 z "},"ê":{"ha":489,"x_min":53,"x_max":443,"o":"m 254 -12 q 139 3 183 -12 q 74 64 94 19 q 53 194 53 108 l 53 528 q 99 663 53 626 q 249 699 146 699 q 397 663 350 699 q 443 528 443 626 l 443 349 l 158 349 l 158 156 q 177 72 158 96 q 251 49 196 49 q 320 72 303 49 q 338 156 338 94 l 338 250 l 443 250 l 443 196 q 422 66 443 111 q 360 4 401 21 q 254 -12 318 -12 m 158 400 l 338 400 l 338 539 q 320 616 338 592 q 249 640 303 640 q 177 616 196 640 q 158 539 158 592 l 158 400 m 86 758 l 213 892 l 278 892 l 404 758 l 338 758 l 246 842 l 156 758 l 86 758 z "},"ế":{"ha":489,"x_min":53,"x_max":585,"o":"m 254 -12 q 139 3 183 -12 q 74 64 94 19 q 53 194 53 108 l 53 528 q 99 663 53 626 q 249 699 146 699 q 397 663 350 699 q 443 528 443 626 l 443 349 l 158 349 l 158 156 q 177 72 158 96 q 251 49 196 49 q 320 72 303 49 q 338 156 338 94 l 338 250 l 443 250 l 443 196 q 422 66 443 111 q 360 4 401 21 q 254 -12 318 -12 m 158 400 l 338 400 l 338 539 q 320 616 338 592 q 249 640 303 640 q 177 616 196 640 q 158 539 158 592 l 158 400 m 86 758 l 213 892 l 278 892 l 404 758 l 338 758 l 246 842 l 156 758 l 86 758 m 399 832 l 478 964 l 585 964 l 465 832 l 399 832 z "},"ệ":{"ha":489,"x_min":53,"x_max":443,"o":"m 254 -12 q 139 3 183 -12 q 74 64 94 19 q 53 194 53 108 l 53 528 q 99 663 53 626 q 249 699 146 699 q 397 663 350 699 q 443 528 443 626 l 443 349 l 158 349 l 158 156 q 177 72 158 96 q 251 49 196 49 q 320 72 303 49 q 338 156 338 94 l 338 250 l 443 250 l 443 196 q 422 66 443 111 q 360 4 401 21 q 254 -12 318 -12 m 158 400 l 338 400 l 338 539 q 320 616 338 592 q 249 640 303 640 q 177 616 196 640 q 158 539 158 592 l 158 400 m 244 -158 q 208 -143 222 -158 q 193 -108 193 -128 q 208 -73 193 -87 q 244 -58 222 -58 q 281 -73 265 -58 q 297 -108 297 -87 q 281 -143 297 -128 q 244 -158 265 -158 m 86 758 l 213 892 l 278 892 l 404 758 l 338 758 l 246 842 l 156 758 l 86 758 z "},"ề":{"ha":489,"x_min":53,"x_max":517,"o":"m 254 -12 q 139 3 183 -12 q 74 64 94 19 q 53 194 53 108 l 53 528 q 99 663 53 626 q 249 699 146 699 q 397 663 350 699 q 443 528 443 626 l 443 349 l 158 349 l 158 156 q 177 72 158 96 q 251 49 196 49 q 320 72 303 49 q 338 156 338 94 l 338 250 l 443 250 l 443 196 q 422 66 443 111 q 360 4 401 21 q 254 -12 318 -12 m 158 400 l 338 400 l 338 539 q 320 616 338 592 q 249 640 303 640 q 177 616 196 640 q 158 539 158 592 l 158 400 m 86 758 l 213 892 l 278 892 l 404 758 l 338 758 l 246 842 l 156 758 l 86 758 m 450 832 l 331 964 l 438 964 l 517 832 l 450 832 z "},"ể":{"ha":489,"x_min":53,"x_max":550,"o":"m 254 -12 q 139 3 183 -12 q 74 64 94 19 q 53 194 53 108 l 53 528 q 99 663 53 626 q 249 699 146 699 q 397 663 350 699 q 443 528 443 626 l 443 349 l 158 349 l 158 156 q 177 72 158 96 q 251 49 196 49 q 320 72 303 49 q 338 156 338 94 l 338 250 l 443 250 l 443 196 q 422 66 443 111 q 360 4 401 21 q 254 -12 318 -12 m 158 400 l 338 400 l 338 539 q 320 616 338 592 q 249 640 303 640 q 177 616 196 640 q 158 539 158 592 l 158 400 m 86 758 l 213 892 l 278 892 l 404 758 l 338 758 l 246 842 l 156 758 l 86 758 m 425 835 l 425 856 q 441 885 425 875 q 472 905 457 896 q 488 932 488 914 l 488 939 q 479 963 488 951 q 451 974 471 974 q 419 942 425 974 l 368 951 q 394 1000 372 983 q 457 1017 417 1017 q 527 1001 504 1017 q 550 939 550 985 l 550 936 q 533 893 550 906 q 500 874 517 881 q 483 850 483 867 l 483 835 l 425 835 z "},"ễ":{"ha":489,"x_min":53,"x_max":443,"o":"m 254 -12 q 139 3 183 -12 q 74 64 94 19 q 53 194 53 108 l 53 528 q 99 663 53 626 q 249 699 146 699 q 397 663 350 699 q 443 528 443 626 l 443 349 l 158 349 l 158 156 q 177 72 158 96 q 251 49 196 49 q 320 72 303 49 q 338 156 338 94 l 338 250 l 443 250 l 443 196 q 422 66 443 111 q 360 4 401 21 q 254 -12 318 -12 m 158 400 l 338 400 l 338 539 q 320 616 338 592 q 249 640 303 640 q 177 616 196 640 q 158 539 158 592 l 158 400 m 86 758 l 213 892 l 278 892 l 404 758 l 338 758 l 246 842 l 156 758 l 86 758 m 306 922 q 272 929 286 922 q 238 947 257 936 q 210 964 225 956 q 178 972 194 972 q 150 960 161 972 q 136 924 139 947 l 99 924 q 122 997 100 968 q 179 1025 143 1025 q 217 1017 200 1025 q 250 999 233 1010 q 278 983 265 990 q 306 976 292 976 q 335 988 324 976 q 350 1022 346 1000 l 390 1022 q 376 968 389 990 q 345 934 364 946 q 306 922 326 922 z "},"ë":{"ha":489,"x_min":53,"x_max":443,"o":"m 254 -12 q 139 3 183 -12 q 74 64 94 19 q 53 194 53 108 l 53 528 q 99 663 53 626 q 249 699 146 699 q 397 663 350 699 q 443 528 443 626 l 443 349 l 158 349 l 158 156 q 177 72 158 96 q 251 49 196 49 q 320 72 303 49 q 338 156 338 94 l 338 250 l 443 250 l 443 196 q 422 66 443 111 q 360 4 401 21 q 254 -12 318 -12 m 158 400 l 338 400 l 338 539 q 320 616 338 592 q 249 640 303 640 q 177 616 196 640 q 158 539 158 592 l 158 400 m 174 769 q 137 784 151 769 q 122 819 122 799 q 137 853 122 840 q 174 867 151 867 q 209 853 194 867 q 224 819 224 840 q 209 784 224 799 q 174 769 194 769 m 317 769 q 281 784 296 769 q 265 819 265 799 q 281 853 265 840 q 317 867 296 867 q 353 853 339 867 q 367 819 367 840 q 353 784 367 799 q 317 769 339 769 z "},"ė":{"ha":489,"x_min":53,"x_max":443,"o":"m 254 -12 q 139 3 183 -12 q 74 64 94 19 q 53 194 53 108 l 53 528 q 99 663 53 626 q 249 699 146 699 q 397 663 350 699 q 443 528 443 626 l 443 349 l 158 349 l 158 156 q 177 72 158 96 q 251 49 196 49 q 320 72 303 49 q 338 156 338 94 l 338 250 l 443 250 l 443 196 q 422 66 443 111 q 360 4 401 21 q 254 -12 318 -12 m 158 400 l 338 400 l 338 539 q 320 616 338 592 q 249 640 303 640 q 177 616 196 640 q 158 539 158 592 l 158 400 m 244 769 q 203 787 221 769 q 185 828 185 804 q 203 869 185 853 q 246 886 221 886 q 288 869 271 886 q 306 828 306 853 q 288 787 307 804 q 244 769 269 769 z "},"ẹ":{"ha":489,"x_min":53,"x_max":443,"o":"m 254 -12 q 139 3 183 -12 q 74 64 94 19 q 53 194 53 108 l 53 528 q 99 663 53 626 q 249 699 146 699 q 397 663 350 699 q 443 528 443 626 l 443 349 l 158 349 l 158 156 q 177 72 158 96 q 251 49 196 49 q 320 72 303 49 q 338 156 338 94 l 338 250 l 443 250 l 443 196 q 422 66 443 111 q 360 4 401 21 q 254 -12 318 -12 m 158 400 l 338 400 l 338 539 q 320 616 338 592 q 249 640 303 640 q 177 616 196 640 q 158 539 158 592 l 158 400 m 244 -158 q 208 -143 222 -158 q 193 -108 193 -128 q 208 -73 193 -87 q 244 -58 222 -58 q 281 -73 265 -58 q 297 -108 297 -87 q 281 -143 297 -128 q 244 -158 265 -158 z "},"ф":{"ha":815,"x_min":53,"x_max":763,"o":"m 356 -161 l 356 36 q 306 3 338 15 q 226 -10 275 -10 q 88 42 124 -10 q 53 189 53 94 l 53 461 q 67 561 53 519 q 119 625 81 603 q 229 647 157 647 q 310 634 278 647 q 356 596 342 621 l 356 821 l 460 821 l 460 599 q 505 634 472 621 q 583 647 538 647 q 694 625 656 647 q 748 561 733 603 q 763 461 763 519 l 763 189 q 726 42 763 94 q 588 -10 690 -10 q 509 3 540 -10 q 460 38 478 15 l 460 -161 l 356 -161 m 251 49 q 316 66 293 49 q 347 110 339 83 q 356 164 356 138 l 356 458 q 349 522 356 492 q 321 570 343 551 q 253 589 299 589 q 188 572 208 589 q 163 526 168 556 q 158 458 158 497 l 158 172 q 165 109 158 136 q 192 65 172 82 q 251 49 213 49 m 567 49 q 625 65 606 49 q 651 110 644 82 q 658 172 658 138 l 658 458 q 653 525 658 496 q 628 572 647 554 q 565 589 608 589 q 500 572 522 589 q 469 527 478 554 q 460 468 460 500 l 460 169 q 469 114 460 142 q 501 67 478 86 q 567 49 524 49 z "},"è":{"ha":489,"x_min":53,"x_max":443,"o":"m 254 -12 q 139 3 183 -12 q 74 64 94 19 q 53 194 53 108 l 53 528 q 99 663 53 626 q 249 699 146 699 q 397 663 350 699 q 443 528 443 626 l 443 349 l 158 349 l 158 156 q 177 72 158 96 q 251 49 196 49 q 320 72 303 49 q 338 156 338 94 l 338 250 l 443 250 l 443 196 q 422 66 443 111 q 360 4 401 21 q 254 -12 318 -12 m 158 400 l 338 400 l 338 539 q 320 616 338 592 q 249 640 303 640 q 177 616 196 640 q 158 539 158 592 l 158 400 m 240 758 l 121 890 l 228 890 l 307 758 l 240 758 z "},"ẻ":{"ha":489,"x_min":53,"x_max":443,"o":"m 254 -12 q 139 3 183 -12 q 74 64 94 19 q 53 194 53 108 l 53 528 q 99 663 53 626 q 249 699 146 699 q 397 663 350 699 q 443 528 443 626 l 443 349 l 158 349 l 158 156 q 177 72 158 96 q 251 49 196 49 q 320 72 303 49 q 338 156 338 94 l 338 250 l 443 250 l 443 196 q 422 66 443 111 q 360 4 401 21 q 254 -12 318 -12 m 158 400 l 338 400 l 338 539 q 320 616 338 592 q 249 640 303 640 q 177 616 196 640 q 158 539 158 592 l 158 400 m 214 761 l 214 782 q 230 812 214 801 q 261 831 246 822 q 276 858 276 840 l 276 865 q 268 889 276 878 q 240 900 260 900 q 208 868 214 900 l 157 878 q 183 926 161 910 q 246 943 206 943 q 316 927 293 943 q 339 865 339 911 l 339 863 q 322 819 339 832 q 289 800 306 807 q 272 776 272 793 l 272 761 l 214 761 z "},"л":{"ha":560,"x_min":22,"x_max":506,"o":"m 22 0 l 22 58 q 69 85 49 58 q 93 163 89 113 l 136 686 l 506 686 l 506 0 l 397 0 l 397 610 l 243 610 l 199 133 q 194 92 197 115 q 179 49 190 69 q 146 14 168 28 q 85 0 124 0 l 22 0 z "},"…":{"ha":707,"x_min":69,"x_max":638,"o":"m 131 -10 q 88 7 106 -10 q 69 49 69 24 q 88 90 69 72 q 131 107 106 107 q 174 90 156 107 q 193 49 193 72 q 174 7 193 24 q 131 -10 156 -10 m 360 -8 q 317 8 335 -8 q 299 50 299 25 q 317 91 299 74 q 360 108 335 108 q 403 91 385 108 q 422 50 422 74 q 403 8 422 25 q 360 -8 385 -8 m 575 -8 q 532 8 550 -8 q 514 50 514 25 q 532 91 514 74 q 575 108 550 108 q 619 91 600 108 q 638 50 638 74 q 619 8 638 25 q 575 -8 600 -8 z "},"м":{"ha":668,"x_min":56,"x_max":614,"o":"m 56 0 l 56 688 l 182 688 l 335 136 l 489 688 l 614 688 l 614 0 l 525 0 l 525 521 l 372 0 l 297 0 l 143 521 l 143 0 l 56 0 z "},"ē":{"ha":489,"x_min":53,"x_max":443,"o":"m 254 -12 q 139 3 183 -12 q 74 64 94 19 q 53 194 53 108 l 53 528 q 99 663 53 626 q 249 699 146 699 q 397 663 350 699 q 443 528 443 626 l 443 349 l 158 349 l 158 156 q 177 72 158 96 q 251 49 196 49 q 320 72 303 49 q 338 156 338 94 l 338 250 l 443 250 l 443 196 q 422 66 443 111 q 360 4 401 21 q 254 -12 318 -12 m 158 400 l 338 400 l 338 539 q 320 616 338 592 q 249 640 303 640 q 177 616 196 640 q 158 539 158 592 l 158 400 m 113 783 l 113 840 l 378 840 l 378 783 l 113 783 z "},"—":{"ha":851,"x_min":33,"x_max":818,"o":"m 33 335 l 33 410 l 818 410 l 818 335 l 33 335 z "},"∅":{"ha":569,"x_min":42,"x_max":535,"o":"m 42 83 l 497 783 l 529 783 l 72 83 l 42 83 m 317 -17 q 205 10 254 -17 q 127 94 156 36 q 99 243 99 151 l 99 592 q 162 774 99 715 q 319 832 225 832 q 473 773 411 832 q 535 592 535 714 l 535 243 q 506 92 535 150 q 428 9 478 35 q 317 -17 379 -17 m 317 49 q 397 86 365 49 q 428 194 428 124 l 428 618 q 395 726 428 689 q 317 764 363 764 q 238 726 269 764 q 207 618 207 689 l 207 194 q 238 86 207 124 q 317 49 269 49 z "},"н":{"ha":513,"x_min":56,"x_max":458,"o":"m 56 0 l 56 688 l 161 688 l 161 400 l 354 400 l 354 688 l 458 688 l 458 0 l 354 0 l 354 319 l 161 319 l 161 0 l 56 0 z "},"–":{"ha":531,"x_min":33,"x_max":497,"o":"m 33 335 l 33 410 l 497 410 l 497 335 l 33 335 z "},"ŋ":{"ha":504,"x_min":56,"x_max":449,"o":"m 256 -156 q 231 -154 243 -156 q 207 -150 218 -153 l 207 -94 q 216 -95 208 -94 q 233 -97 224 -96 q 244 -97 242 -97 q 317 -80 292 -97 q 343 -15 343 -62 l 343 506 q 340 562 343 535 q 317 606 336 589 q 253 622 299 622 q 203 611 222 622 q 175 585 185 600 q 161 557 165 571 l 161 0 l 56 0 l 56 688 l 143 688 l 154 611 q 208 677 169 656 q 289 699 246 699 q 395 674 361 699 q 439 608 429 649 q 449 517 449 567 l 449 17 q 422 -92 449 -54 q 353 -144 396 -131 q 256 -156 310 -157 z "},"ę":{"ha":489,"x_min":53,"x_max":443,"o":"m 254 -12 q 139 3 183 -12 q 74 64 94 19 q 53 194 53 108 l 53 528 q 99 663 53 626 q 249 699 146 699 q 397 663 350 699 q 443 528 443 626 l 443 349 l 158 349 l 158 156 q 177 72 158 96 q 251 49 196 49 q 320 72 303 49 q 338 156 338 94 l 338 250 l 443 250 l 443 196 q 422 66 443 111 q 360 4 401 21 q 254 -12 318 -12 m 158 400 l 338 400 l 338 539 q 320 616 338 592 q 249 640 303 640 q 177 616 196 640 q 158 539 158 592 l 158 400 m 269 -192 q 199 -167 228 -192 q 169 -108 169 -143 q 199 -39 169 -69 q 265 1 228 -8 l 315 0 q 259 -42 278 -15 q 240 -94 240 -68 q 258 -135 240 -121 q 294 -149 276 -149 q 315 -146 306 -149 q 328 -140 324 -143 l 343 -174 q 317 -185 335 -178 q 269 -192 300 -192 z "},"=":{"ha":589,"x_min":69,"x_max":519,"o":"m 69 501 l 69 576 l 519 576 l 519 501 l 69 501 m 69 211 l 69 286 l 519 286 l 519 211 l 69 211 z "},"р":{"ha":513,"x_min":68,"x_max":461,"o":"m 68 -161 l 68 688 l 168 688 l 171 629 q 210 676 183 656 q 300 697 238 697 q 396 677 361 697 q 446 619 431 657 q 461 526 461 581 l 461 189 q 447 82 461 126 q 399 14 433 38 q 300 -10 364 -10 q 218 8 249 -10 q 172 49 188 25 l 172 -161 l 68 -161 m 264 53 q 317 63 299 53 q 344 89 335 72 q 354 126 353 106 q 356 171 356 147 l 356 513 q 354 557 356 536 q 344 595 353 578 q 317 622 335 613 q 264 632 299 632 q 212 619 231 632 q 185 588 193 607 q 175 547 176 569 q 174 504 174 524 l 174 164 q 179 107 174 132 q 204 67 185 82 q 264 53 224 53 z "},"э":{"ha":514,"x_min":56,"x_max":458,"o":"m 258 -12 q 135 10 179 -12 q 73 78 90 32 q 56 200 56 125 l 56 240 l 161 240 l 161 167 q 167 105 161 132 q 193 62 172 78 q 258 46 214 46 q 325 63 306 46 q 349 107 344 79 q 353 165 353 135 l 353 319 l 146 319 l 146 389 l 353 389 l 353 521 q 349 578 353 551 q 325 623 344 606 q 258 640 306 640 q 193 624 214 640 q 167 581 172 608 q 161 519 161 554 l 161 464 l 56 464 l 56 513 q 72 613 56 571 q 133 676 89 654 q 258 699 178 699 q 358 685 319 699 q 419 647 397 671 q 450 589 442 622 q 458 515 458 556 l 458 197 q 449 105 458 144 q 418 40 440 65 q 358 1 396 14 q 258 -12 319 -12 z "},"с":{"ha":489,"x_min":53,"x_max":443,"o":"m 253 -12 q 139 3 183 -12 q 74 63 94 19 q 53 193 53 107 l 53 522 q 99 663 53 625 q 249 700 146 700 q 397 663 350 700 q 443 528 443 626 l 443 436 l 338 436 l 338 533 q 320 612 338 588 q 249 636 303 636 q 177 612 196 636 q 158 533 158 588 l 158 163 q 177 78 158 103 q 251 54 196 54 q 320 78 303 54 q 338 163 338 101 l 338 263 l 443 263 l 443 193 q 422 65 443 110 q 359 4 401 21 q 253 -12 317 -12 z "},"ð":{"ha":501,"x_min":53,"x_max":443,"o":"m 243 -11 q 173 -6 207 -11 q 112 18 139 0 q 69 76 85 36 q 53 185 53 115 l 53 506 q 76 617 53 581 q 141 667 100 654 q 233 679 182 679 q 292 672 263 679 q 336 642 322 664 q 326 752 335 706 q 291 824 317 799 q 208 849 265 849 q 142 843 172 849 q 85 832 111 838 l 85 901 q 142 913 108 906 q 225 921 176 921 q 344 899 300 921 q 408 831 388 876 q 436 713 429 785 q 443 542 443 642 l 443 224 q 433 125 443 168 q 401 52 424 82 q 340 6 378 22 q 243 -11 301 -11 m 243 47 q 303 68 283 47 q 331 120 324 89 q 338 183 338 151 l 338 549 q 329 576 338 560 q 301 607 321 593 q 243 621 281 621 q 187 607 206 621 q 163 569 168 593 q 158 511 158 546 l 158 144 q 167 92 158 111 q 190 63 175 72 q 219 51 204 54 q 243 47 233 47 m 194 726 l 165 761 l 404 961 l 433 925 l 194 726 z "},"ẽ":{"ha":489,"x_min":53,"x_max":443,"o":"m 254 -12 q 139 3 183 -12 q 74 64 94 19 q 53 194 53 108 l 53 528 q 99 663 53 626 q 249 699 146 699 q 397 663 350 699 q 443 528 443 626 l 443 349 l 158 349 l 158 156 q 177 72 158 96 q 251 49 196 49 q 320 72 303 49 q 338 156 338 94 l 338 250 l 443 250 l 443 196 q 422 66 443 111 q 360 4 401 21 q 254 -12 318 -12 m 158 400 l 338 400 l 338 539 q 320 616 338 592 q 249 640 303 640 q 177 616 196 640 q 158 539 158 592 l 158 400 m 306 768 q 272 775 286 768 q 238 793 257 782 q 210 810 225 801 q 178 818 194 818 q 150 806 161 818 q 136 769 139 793 l 99 769 q 122 842 100 814 q 179 871 143 871 q 217 863 200 871 q 250 844 233 856 q 278 829 265 836 q 306 822 292 822 q 335 834 324 822 q 350 868 346 846 l 390 868 q 376 814 389 836 q 345 780 364 792 q 306 768 326 768 z "},"€":{"ha":638,"x_min":53,"x_max":581,"o":"m 367 -17 q 258 -2 306 -17 q 183 58 210 13 q 156 196 156 104 l 156 325 l 53 325 l 72 368 l 156 368 l 156 446 l 53 446 l 72 490 l 156 490 l 156 649 q 183 763 156 724 q 258 817 210 803 q 368 832 307 832 q 478 817 431 832 q 553 763 526 801 q 581 649 581 724 l 581 606 l 474 606 l 474 651 q 460 726 474 701 q 422 758 446 750 q 367 765 399 765 q 313 758 336 765 q 276 726 289 750 q 263 651 263 701 l 263 490 l 469 490 l 449 446 l 263 446 l 263 368 l 415 368 l 396 325 l 263 325 l 263 163 q 276 88 263 113 q 313 56 289 64 q 367 49 336 49 q 423 56 399 49 q 460 88 447 64 q 474 163 474 113 l 474 244 l 581 244 l 581 196 q 553 58 581 103 q 478 -2 526 13 q 367 -17 431 -17 z "},"!":{"ha":261,"x_min":68,"x_max":199,"o":"m 96 267 l 76 507 l 72 875 l 186 875 l 181 510 l 161 267 l 96 267 m 132 -8 q 87 9 106 -8 q 68 53 68 26 q 87 94 68 76 q 132 111 106 111 q 179 94 160 111 q 199 53 199 76 q 179 9 199 26 q 132 -8 160 -8 z "},"¡":{"ha":261,"x_min":68,"x_max":199,"o":"m 96 414 l 161 414 l 181 171 l 186 -193 l 72 -193 l 76 174 l 96 414 m 132 690 q 179 673 160 690 q 199 629 199 656 q 179 588 199 606 q 132 569 160 569 q 87 588 106 569 q 68 629 68 606 q 87 673 68 656 q 132 690 106 690 z "},"f":{"ha":342,"x_min":39,"x_max":336,"o":"m 82 0 l 82 597 l 39 597 l 39 661 l 82 661 l 82 740 q 92 808 82 781 q 120 851 101 835 q 163 874 139 867 q 214 881 186 881 q 262 879 238 881 q 307 876 286 878 q 336 874 328 874 l 336 818 q 308 821 336 818 q 246 824 279 824 q 199 796 213 824 q 186 738 186 768 l 186 661 l 336 661 l 336 597 l 186 597 l 186 0 l 82 0 z "},"ﬁ":{"ha":581,"x_min":39,"x_max":522,"o":"m 82 0 l 82 597 l 39 597 l 39 661 l 82 661 l 82 740 q 92 808 82 781 q 120 851 101 835 q 163 874 139 867 q 214 881 186 881 q 262 879 238 881 q 307 876 286 878 q 336 874 328 874 l 336 818 q 308 821 336 818 q 246 824 279 824 q 199 796 213 824 q 186 738 186 768 l 186 661 l 336 661 l 336 597 l 186 597 l 186 0 l 82 0 m 410 0 l 410 688 l 514 688 l 514 0 l 410 0 m 461 769 q 419 787 438 769 q 401 828 401 804 q 419 869 401 853 q 463 886 438 886 q 505 869 488 886 q 522 828 522 853 q 505 787 524 804 q 461 769 486 769 z "},"ﬂ":{"ha":581,"x_min":39,"x_max":514,"o":"m 82 0 l 82 597 l 39 597 l 39 661 l 82 661 l 82 740 q 92 808 82 781 q 120 851 101 835 q 163 874 139 867 q 214 881 186 881 q 262 879 238 881 q 307 876 286 878 q 336 874 328 874 l 336 818 q 308 821 336 818 q 246 824 279 824 q 199 796 213 824 q 186 738 186 768 l 186 661 l 336 661 l 336 597 l 186 597 l 186 0 l 82 0 m 410 0 l 410 881 l 514 881 l 514 0 l 410 0 z "},"ƒ":{"ha":454,"x_min":-128,"x_max":436,"o":"m -19 -203 q -61 -201 -37 -203 q -103 -199 -85 -200 q -128 -196 -122 -197 l -121 -131 l -40 -137 q 17 -126 -4 -139 q 48 -86 38 -114 q 64 -15 58 -58 l 132 550 l 58 550 l 65 610 l 139 610 l 156 731 q 203 839 168 804 q 293 874 238 874 q 328 874 307 874 q 369 873 349 874 q 408 871 390 872 q 436 868 426 869 l 429 804 q 392 810 419 807 q 332 813 364 813 q 276 782 292 813 q 256 717 261 751 l 242 610 l 389 610 l 383 550 l 236 550 l 164 -43 q 110 -162 154 -122 q -19 -203 65 -203 z "},"⁴":{"ha":342,"x_min":8,"x_max":315,"o":"m 192 328 l 192 426 l 8 426 l 8 485 l 194 821 l 263 821 l 263 476 l 315 476 l 315 426 l 263 426 l 263 328 l 192 328 m 69 476 l 192 476 l 192 693 l 69 476 z "},"⁄":{"ha":522,"x_min":-128,"x_max":504,"o":"m -128 0 l 432 815 l 504 815 l -57 0 l -128 0 z "},"₣":{"ha":519,"x_min":47,"x_max":472,"o":"m 113 0 l 113 189 l 47 189 l 47 240 l 113 240 l 113 821 l 472 821 l 472 744 l 224 744 l 224 469 l 425 469 l 425 386 l 224 386 l 224 240 l 344 240 l 344 189 l 224 189 l 224 0 l 113 0 z "},"g":{"ha":503,"x_min":53,"x_max":443,"o":"m 239 -164 q 199 -162 222 -164 q 155 -159 176 -161 q 117 -155 133 -157 q 97 -151 101 -153 l 97 -92 q 148 -98 115 -94 q 206 -101 181 -101 q 244 -99 222 -101 q 288 -85 267 -97 q 324 -47 310 -74 q 339 28 339 -21 l 339 124 q 315 79 331 100 q 272 46 299 58 q 203 33 244 33 q 151 38 178 33 q 101 61 124 43 q 66 117 79 79 q 53 222 53 156 l 53 535 q 65 619 53 588 q 99 668 78 651 q 148 690 121 685 q 204 696 175 696 q 286 684 247 696 q 339 632 325 672 l 351 685 l 443 685 l 443 71 q 431 -25 443 18 q 395 -99 419 -68 q 332 -147 371 -131 q 239 -164 293 -164 m 243 100 q 303 119 283 100 q 331 171 324 139 q 338 236 338 203 l 338 575 q 323 599 333 586 q 294 622 313 613 q 243 632 275 632 q 178 609 197 632 q 158 526 158 586 l 158 196 q 167 143 158 163 q 190 115 175 124 q 219 103 204 106 q 243 100 233 100 z "},"ğ":{"ha":503,"x_min":53,"x_max":443,"o":"m 239 -164 q 199 -162 222 -164 q 155 -159 176 -161 q 117 -155 133 -157 q 97 -151 101 -153 l 97 -92 q 148 -98 115 -94 q 206 -101 181 -101 q 244 -99 222 -101 q 288 -85 267 -97 q 324 -47 310 -74 q 339 28 339 -21 l 339 124 q 315 79 331 100 q 272 46 299 58 q 203 33 244 33 q 151 38 178 33 q 101 61 124 43 q 66 117 79 79 q 53 222 53 156 l 53 535 q 65 619 53 588 q 99 668 78 651 q 148 690 121 685 q 204 696 175 696 q 286 684 247 696 q 339 632 325 672 l 351 685 l 443 685 l 443 71 q 431 -25 443 18 q 395 -99 419 -68 q 332 -147 371 -131 q 239 -164 293 -164 m 243 100 q 303 119 283 100 q 331 171 324 139 q 338 236 338 203 l 338 575 q 323 599 333 586 q 294 622 313 613 q 243 632 275 632 q 178 609 197 632 q 158 526 158 586 l 158 196 q 167 143 158 163 q 190 115 175 124 q 219 103 204 106 q 243 100 233 100 m 254 758 q 168 780 199 758 q 126 831 138 801 q 113 886 114 861 l 174 886 q 201 831 178 849 q 254 813 224 813 q 311 830 289 813 q 338 886 333 847 l 399 886 q 383 826 397 856 q 337 778 368 797 q 254 758 306 758 z "},"ģ":{"ha":503,"x_min":53,"x_max":443,"o":"m 308 936 q 281 886 292 910 q 269 847 269 863 q 277 831 269 838 q 292 817 285 825 q 300 794 300 810 q 285 765 300 778 q 250 753 271 753 q 212 767 226 753 q 197 801 197 782 q 207 844 197 819 q 233 893 217 868 q 264 936 249 918 l 308 936 m 239 -164 q 199 -162 222 -164 q 155 -159 176 -161 q 117 -155 133 -157 q 97 -151 101 -153 l 97 -92 q 148 -98 115 -94 q 206 -101 181 -101 q 244 -99 222 -101 q 288 -85 267 -97 q 324 -47 310 -74 q 339 28 339 -21 l 339 124 q 315 79 331 100 q 272 46 299 58 q 203 33 244 33 q 151 38 178 33 q 101 61 124 43 q 66 117 79 79 q 53 222 53 156 l 53 535 q 65 619 53 588 q 99 668 78 651 q 148 690 121 685 q 204 696 175 696 q 286 684 247 696 q 339 632 325 672 l 351 685 l 443 685 l 443 71 q 431 -25 443 18 q 395 -99 419 -68 q 332 -147 371 -131 q 239 -164 293 -164 m 243 100 q 303 119 283 100 q 331 171 324 139 q 338 236 338 203 l 338 575 q 323 599 333 586 q 294 622 313 613 q 243 632 275 632 q 178 609 197 632 q 158 526 158 586 l 158 196 q 167 143 158 163 q 190 115 175 124 q 219 103 204 106 q 243 100 233 100 z "},"ġ":{"ha":503,"x_min":53,"x_max":443,"o":"m 239 -164 q 199 -162 222 -164 q 155 -159 176 -161 q 117 -155 133 -157 q 97 -151 101 -153 l 97 -92 q 148 -98 115 -94 q 206 -101 181 -101 q 244 -99 222 -101 q 288 -85 267 -97 q 324 -47 310 -74 q 339 28 339 -21 l 339 124 q 315 79 331 100 q 272 46 299 58 q 203 33 244 33 q 151 38 178 33 q 101 61 124 43 q 66 117 79 79 q 53 222 53 156 l 53 535 q 65 619 53 588 q 99 668 78 651 q 148 690 121 685 q 204 696 175 696 q 286 684 247 696 q 339 632 325 672 l 351 685 l 443 685 l 443 71 q 431 -25 443 18 q 395 -99 419 -68 q 332 -147 371 -131 q 239 -164 293 -164 m 243 100 q 303 119 283 100 q 331 171 324 139 q 338 236 338 203 l 338 575 q 323 599 333 586 q 294 622 313 613 q 243 632 275 632 q 178 609 197 632 q 158 526 158 586 l 158 196 q 167 143 158 163 q 190 115 175 124 q 219 103 204 106 q 243 100 233 100 m 254 769 q 213 787 231 769 q 194 828 194 804 q 213 869 194 853 q 256 886 231 886 q 298 869 281 886 q 315 828 315 853 q 298 787 317 804 q 254 769 279 769 z "},"г":{"ha":404,"x_min":56,"x_max":382,"o":"m 56 0 l 56 688 l 382 688 l 382 610 l 167 610 l 167 0 l 56 0 z "},"ß":{"ha":565,"x_min":-56,"x_max":531,"o":"m 21 -204 q -19 -202 6 -204 q -56 -199 -44 -200 l -56 -136 q -46 -137 -50 -137 q -36 -139 -42 -137 q -19 -141 -29 -140 q 6 -142 -8 -142 q 74 -112 57 -142 q 90 -43 90 -83 l 90 613 l 40 613 l 40 688 l 90 688 l 90 725 q 106 811 90 778 q 167 860 122 844 q 300 876 213 876 q 457 847 403 876 q 511 740 511 817 l 511 608 q 483 514 511 550 q 421 475 456 478 l 421 469 q 472 451 447 467 q 514 408 497 436 q 531 339 531 381 l 531 168 q 506 60 531 96 q 435 12 481 24 q 331 0 390 0 l 240 0 l 240 58 l 317 58 q 373 69 351 58 q 406 113 394 81 q 417 208 417 144 l 417 332 q 403 394 417 371 q 364 428 389 418 q 303 438 339 438 l 254 438 l 256 497 l 322 497 q 390 528 374 497 q 407 613 407 560 l 407 711 q 383 794 407 768 q 301 821 360 821 q 233 806 256 821 q 203 767 210 790 q 196 717 196 743 l 197 -25 q 183 -112 197 -78 q 144 -167 168 -146 q 88 -196 119 -187 q 21 -204 56 -204 z "},"ѓ":{"ha":404,"x_min":56,"x_max":382,"o":"m 56 0 l 56 688 l 382 688 l 382 610 l 167 610 l 167 0 l 56 0 m 144 758 l 224 890 l 331 890 l 211 758 l 144 758 z "},"`":{"ha":219,"x_min":0,"x_max":186,"o":"m 119 758 l 0 890 l 107 890 l 186 758 l 119 758 z "},"̀":{"ha":0,"x_min":0,"x_max":186,"o":"m 119 758 l 0 890 l 107 890 l 186 758 l 119 758 z "},">":{"ha":465,"x_min":67,"x_max":399,"o":"m 67 196 l 67 297 l 308 456 l 67 615 l 67 715 l 399 489 l 399 422 l 67 196 z "},"≥":{"ha":465,"x_min":65,"x_max":399,"o":"m 65 -4 l 65 71 l 389 71 l 389 -4 l 65 -4 m 67 196 l 67 297 l 308 456 l 67 615 l 67 715 l 399 489 l 399 422 l 67 196 z "},"«":{"ha":676,"x_min":58,"x_max":618,"o":"m 510 149 l 335 400 l 519 665 l 618 665 l 436 400 l 610 149 l 510 149 m 233 149 l 58 400 l 242 665 l 342 665 l 160 400 l 332 149 l 233 149 z "},"»":{"ha":676,"x_min":58,"x_max":618,"o":"m 344 149 l 518 400 l 335 665 l 435 665 l 618 400 l 444 149 l 344 149 m 67 149 l 240 400 l 58 665 l 158 665 l 342 400 l 167 149 l 67 149 z "},"‹":{"ha":399,"x_min":58,"x_max":340,"o":"m 233 149 l 58 400 l 242 665 l 340 665 l 160 400 l 332 149 l 233 149 z "},"›":{"ha":399,"x_min":58,"x_max":340,"o":"m 67 149 l 240 400 l 58 665 l 158 665 l 340 400 l 165 149 l 67 149 z "},"h":{"ha":518,"x_min":68,"x_max":461,"o":"m 68 0 l 68 875 l 167 875 l 167 624 q 216 679 181 660 q 301 699 251 699 q 406 674 372 699 q 451 608 440 649 q 461 517 461 567 l 461 0 l 356 0 l 356 497 q 354 537 356 517 q 344 574 353 557 q 317 603 336 592 q 264 614 299 614 q 213 604 232 614 q 184 581 193 594 q 174 556 175 567 l 174 0 l 68 0 z "},"х":{"ha":450,"x_min":8,"x_max":438,"o":"m 8 0 l 158 361 l 32 688 l 133 688 l 228 444 l 331 688 l 429 688 l 293 361 l 438 0 l 336 0 l 226 269 l 113 0 l 8 0 z "},"ъ":{"ha":567,"x_min":22,"x_max":513,"o":"m 108 0 l 108 622 l 22 622 l 22 688 l 214 688 l 214 471 l 347 471 q 439 454 403 471 q 494 400 475 438 q 513 300 513 363 l 513 207 q 501 106 513 146 q 469 42 490 65 q 414 10 447 19 q 335 0 381 0 l 108 0 m 214 58 l 313 58 q 374 74 354 58 q 400 117 393 89 q 407 179 407 144 l 407 282 q 401 343 407 315 q 376 388 396 371 q 313 404 356 404 l 214 404 l 214 58 z "},"ħ":{"ha":507,"x_min":4,"x_max":461,"o":"m 4 754 l 4 811 l 264 811 l 264 754 l 4 754 m 68 0 l 68 875 l 167 875 l 167 624 q 216 679 181 660 q 301 699 251 699 q 406 674 372 699 q 451 608 440 649 q 461 517 461 567 l 461 0 l 356 0 l 356 497 q 354 537 356 517 q 344 574 353 557 q 317 603 336 592 q 264 614 299 614 q 213 604 232 614 q 184 581 193 594 q 174 556 175 567 l 174 0 l 68 0 z "},"̉":{"ha":0,"x_min":19,"x_max":201,"o":"m 76 761 l 76 782 q 92 812 76 801 q 124 831 108 822 q 139 858 139 840 l 139 865 q 131 889 139 878 q 103 900 122 900 q 71 868 76 900 l 19 878 q 46 926 24 910 q 108 943 68 943 q 178 927 156 943 q 201 865 201 911 l 201 863 q 185 819 201 832 q 151 800 168 807 q 135 776 135 793 l 135 761 l 76 761 z "},"̛":{"ha":0,"x_min":14,"x_max":171,"o":"m 17 631 l 14 681 l 33 681 q 99 743 99 681 l 99 767 l 171 767 l 171 747 q 132 658 171 688 q 17 631 93 629 z "},"˝":{"ha":242,"x_min":0,"x_max":242,"o":"m 0 758 l 35 890 l 124 890 l 44 758 l 0 758 m 107 758 l 153 890 l 242 890 l 158 758 l 107 758 z "},"̋":{"ha":0,"x_min":0,"x_max":242,"o":"m 0 758 l 35 890 l 124 890 l 44 758 l 0 758 m 107 758 l 153 890 l 242 890 l 158 758 l 107 758 z "},"-":{"ha":400,"x_min":58,"x_max":342,"o":"m 58 335 l 58 410 l 342 410 l 342 335 l 58 335 z "},"i":{"ha":240,"x_min":60,"x_max":182,"o":"m 68 0 l 68 688 l 172 688 l 172 0 l 68 0 m 119 769 q 78 787 96 769 q 60 828 60 804 q 78 869 60 853 q 121 886 96 886 q 163 869 146 886 q 181 828 181 853 q 163 787 182 804 q 119 769 144 769 z "},"і":{"ha":240,"x_min":60,"x_max":182,"o":"m 68 0 l 68 688 l 172 688 l 172 0 l 68 0 m 119 769 q 78 787 96 769 q 60 828 60 804 q 78 869 60 853 q 121 886 96 886 q 163 869 146 886 q 181 828 181 853 q 163 787 182 804 q 119 769 144 769 z "},"я":{"ha":544,"x_min":44,"x_max":489,"o":"m 44 0 l 129 236 q 166 300 144 278 q 215 325 188 322 q 115 367 149 331 q 81 482 81 404 l 81 531 q 124 650 81 613 q 240 688 167 688 l 489 688 l 489 0 l 376 0 l 376 314 l 300 299 q 255 245 274 282 q 219 160 236 208 l 165 0 l 44 0 m 290 361 l 376 361 l 376 625 l 264 625 q 209 598 231 625 q 188 525 188 571 l 188 486 q 215 389 188 417 q 290 361 242 361 z "},"í":{"ha":240,"x_min":63,"x_max":249,"o":"m 68 0 l 68 688 l 172 688 l 172 0 l 68 0 m 63 758 l 142 890 l 249 890 l 129 758 l 63 758 z "},"ǐ":{"ha":240,"x_min":-39,"x_max":279,"o":"m 68 0 l 68 688 l 172 688 l 172 0 l 68 0 m 86 758 l -40 892 l 29 892 l 119 808 l 213 892 l 279 892 l 153 758 l 86 758 z "},"î":{"ha":240,"x_min":-39,"x_max":279,"o":"m 68 0 l 68 688 l 172 688 l 172 0 l 68 0 m -39 758 l 88 892 l 153 892 l 279 758 l 213 758 l 121 842 l 31 758 l -39 758 z "},"ï":{"ha":240,"x_min":-3,"x_max":243,"o":"m 68 0 l 68 688 l 172 688 l 172 0 l 68 0 m 49 769 q 12 784 26 769 q -3 819 -3 799 q 12 853 -3 840 q 49 867 26 867 q 84 853 69 867 q 99 819 99 840 q 84 784 99 799 q 49 769 69 769 m 192 769 q 156 784 171 769 q 140 819 140 799 q 156 853 140 840 q 192 867 171 867 q 228 853 214 867 q 242 819 242 840 q 228 784 242 799 q 192 769 214 769 z "},"ị":{"ha":240,"x_min":60,"x_max":182,"o":"m 68 0 l 68 688 l 172 688 l 172 0 l 68 0 m 119 769 q 78 787 96 769 q 60 828 60 804 q 78 869 60 853 q 121 886 96 886 q 163 869 146 886 q 181 828 181 853 q 163 787 182 804 q 119 769 144 769 m 128 -158 q 91 -143 106 -158 q 76 -108 76 -128 q 91 -73 76 -87 q 128 -58 106 -58 q 165 -73 149 -58 q 181 -108 181 -87 q 165 -143 181 -128 q 128 -158 149 -158 z "},"ı":{"ha":240,"x_min":68,"x_max":172,"o":"m 68 0 l 68 688 l 172 688 l 172 0 l 68 0 z "},"е":{"ha":489,"x_min":53,"x_max":443,"o":"m 254 -12 q 139 3 183 -12 q 74 64 94 19 q 53 194 53 108 l 53 528 q 99 663 53 626 q 249 699 146 699 q 397 663 350 699 q 443 528 443 626 l 443 349 l 158 349 l 158 156 q 177 72 158 96 q 251 49 196 49 q 320 72 303 49 q 338 156 338 94 l 338 250 l 443 250 l 443 196 q 422 66 443 111 q 360 4 401 21 q 254 -12 318 -12 m 158 400 l 338 400 l 338 539 q 320 616 338 592 q 249 640 303 640 q 177 616 196 640 q 158 539 158 592 l 158 400 z "},"ѐ":{"ha":489,"x_min":53,"x_max":443,"o":"m 254 -12 q 139 3 183 -12 q 74 64 94 19 q 53 194 53 108 l 53 528 q 99 663 53 626 q 249 699 146 699 q 397 663 350 699 q 443 528 443 626 l 443 349 l 158 349 l 158 156 q 177 72 158 96 q 251 49 196 49 q 320 72 303 49 q 338 156 338 94 l 338 250 l 443 250 l 443 196 q 422 66 443 111 q 360 4 401 21 q 254 -12 318 -12 m 158 400 l 338 400 l 338 539 q 320 616 338 592 q 249 640 303 640 q 177 616 196 640 q 158 539 158 592 l 158 400 m 240 758 l 121 890 l 228 890 l 307 758 l 240 758 z "},"ì":{"ha":240,"x_min":-4,"x_max":181,"o":"m 68 0 l 68 688 l 172 688 l 172 0 l 68 0 m 115 758 l -4 890 l 103 890 l 182 758 l 115 758 z "},"ỉ":{"ha":240,"x_min":33,"x_max":215,"o":"m 68 0 l 68 688 l 172 688 l 172 0 l 68 0 m 89 761 l 89 782 q 105 812 89 801 q 136 831 121 822 q 151 858 151 840 l 151 865 q 143 889 151 878 q 115 900 135 900 q 83 868 89 900 l 32 878 q 58 926 36 910 q 121 943 81 943 q 191 927 168 943 q 214 865 214 911 l 214 863 q 197 819 214 832 q 164 800 181 807 q 147 776 147 793 l 147 761 l 89 761 z "},"и":{"ha":510,"x_min":56,"x_max":454,"o":"m 56 0 l 56 686 l 150 686 l 150 192 l 360 686 l 454 686 l 454 0 l 361 0 l 361 518 q 253 259 307 388 q 143 0 200 131 l 56 0 z "},"ѝ":{"ha":510,"x_min":56,"x_max":454,"o":"m 56 0 l 56 686 l 150 686 l 150 192 l 360 686 l 454 686 l 454 0 l 361 0 l 361 518 q 253 259 307 388 q 143 0 200 131 l 56 0 m 250 758 l 131 890 l 238 890 l 317 758 l 250 758 z "},"й":{"ha":510,"x_min":56,"x_max":454,"o":"m 56 0 l 56 686 l 150 686 l 150 192 l 360 686 l 454 686 l 454 0 l 361 0 l 361 518 q 253 259 307 388 q 143 0 200 131 l 56 0 m 253 758 q 167 780 197 758 q 124 831 136 801 q 111 886 113 861 l 172 886 q 199 831 176 849 q 253 813 222 813 q 310 830 288 813 q 336 886 332 847 l 397 886 q 381 826 396 856 q 335 778 367 797 q 253 758 304 758 z "},"ī":{"ha":240,"x_min":-12,"x_max":253,"o":"m 68 0 l 68 688 l 172 688 l 172 0 l 68 0 m -12 783 l -12 840 l 253 840 l 253 783 l -12 783 z "},"∞":{"ha":982,"x_min":57,"x_max":925,"o":"m 229 138 q 101 187 144 138 q 57 338 57 236 q 98 485 57 431 q 229 539 139 539 q 320 521 281 539 q 401 467 360 503 q 490 382 442 432 q 581 468 540 433 q 663 521 622 503 q 753 539 703 539 q 884 485 843 539 q 925 338 925 431 q 884 191 925 244 q 753 138 843 138 q 662 156 703 138 q 581 210 621 175 q 492 296 542 246 q 401 209 443 244 q 319 156 360 174 q 229 138 279 138 m 232 206 q 332 240 288 206 q 440 339 376 275 q 374 400 407 371 q 306 449 340 429 q 232 468 272 468 q 149 431 175 468 q 122 336 122 394 q 149 243 122 281 q 232 206 175 206 m 750 208 q 832 243 804 208 q 860 340 860 278 q 833 433 860 396 q 750 471 806 471 q 703 464 724 471 q 660 442 682 457 q 611 402 639 428 q 542 338 583 376 q 624 263 590 292 q 687 222 657 235 q 750 208 717 208 z "},"∫":{"ha":543,"x_min":-132,"x_max":513,"o":"m -32 -408 q -82 -404 -57 -407 q -132 -397 -107 -401 l -119 -328 l -28 -336 q 30 -307 11 -335 q 53 -250 49 -279 l 225 736 q 260 822 235 792 q 324 865 285 853 q 411 876 363 876 q 465 872 439 875 q 513 865 490 869 l 500 796 l 408 804 q 351 775 368 803 q 328 718 333 747 l 154 -269 q 119 -354 144 -324 q 56 -397 94 -385 q -32 -408 18 -408 z "},"ё":{"ha":489,"x_min":53,"x_max":443,"o":"m 254 -12 q 139 3 183 -12 q 74 64 94 19 q 53 194 53 108 l 53 528 q 99 663 53 626 q 249 699 146 699 q 397 663 350 699 q 443 528 443 626 l 443 349 l 158 349 l 158 156 q 177 72 158 96 q 251 49 196 49 q 320 72 303 49 q 338 156 338 94 l 338 250 l 443 250 l 443 196 q 422 66 443 111 q 360 4 401 21 q 254 -12 318 -12 m 158 400 l 338 400 l 338 539 q 320 616 338 592 q 249 640 303 640 q 177 616 196 640 q 158 539 158 592 l 158 400 m 174 769 q 137 784 151 769 q 122 819 122 799 q 137 853 122 840 q 174 867 151 867 q 209 853 194 867 q 224 819 224 840 q 209 784 224 799 q 174 769 194 769 m 317 769 q 281 784 296 769 q 265 819 265 799 q 281 853 265 840 q 317 867 296 867 q 353 853 339 867 q 367 819 367 840 q 353 784 367 799 q 317 769 339 769 z "},"į":{"ha":240,"x_min":28,"x_max":200,"o":"m 68 0 l 68 688 l 172 688 l 172 0 l 68 0 m 119 769 q 78 787 96 769 q 60 828 60 804 q 78 869 60 853 q 121 886 96 886 q 163 869 146 886 q 181 828 181 853 q 163 787 182 804 q 119 769 144 769 m 128 -192 q 57 -167 86 -192 q 28 -108 28 -143 q 57 -39 28 -69 q 124 1 86 -8 l 174 0 q 117 -42 136 -15 q 99 -94 99 -68 q 117 -135 99 -121 q 153 -149 135 -149 q 173 -146 164 -149 q 186 -140 182 -143 l 201 -174 q 176 -185 193 -178 q 128 -192 158 -192 z "},"ĩ":{"ha":240,"x_min":-25,"x_max":265,"o":"m 68 0 l 68 688 l 172 688 l 172 0 l 68 0 m 182 768 q 148 775 163 768 q 114 793 133 782 q 86 810 101 801 q 54 818 71 818 q 26 806 38 818 q 13 769 15 793 l -25 769 q -2 842 -24 814 q 56 871 19 871 q 93 863 76 871 q 126 844 110 856 q 155 829 142 836 q 182 822 168 822 q 211 834 200 822 q 226 868 222 846 l 267 868 q 253 814 265 836 q 222 780 240 792 q 182 768 203 768 z "},"ю":{"ha":808,"x_min":56,"x_max":754,"o":"m 557 -12 q 438 10 481 -12 q 378 80 394 33 q 361 196 361 126 l 361 517 q 377 612 361 571 q 436 676 393 653 q 557 699 479 699 q 678 676 636 699 q 738 612 721 653 q 754 517 754 571 l 754 197 q 737 80 754 126 q 677 10 719 33 q 557 -12 635 -12 m 56 0 l 56 688 l 161 688 l 161 400 l 393 400 l 393 319 l 161 319 l 161 0 l 56 0 m 557 46 q 618 63 599 46 q 643 106 638 79 q 649 163 649 132 l 649 525 q 643 581 649 556 q 618 624 638 607 q 557 640 599 640 q 496 624 515 640 q 472 581 476 607 q 467 525 467 556 l 467 163 q 472 106 467 132 q 496 63 476 79 q 557 46 515 46 z "},"j":{"ha":238,"x_min":-76,"x_max":181,"o":"m -35 -154 q -57 -153 -42 -154 q -76 -150 -72 -151 l -76 -93 q -56 -94 -69 -93 q -32 -93 -42 -94 q 42 -73 15 -92 q 68 -7 68 -54 l 68 688 l 172 688 l 172 18 q 143 -96 172 -58 q 67 -145 114 -133 q -35 -154 21 -157 m 118 769 q 76 787 94 769 q 58 828 58 804 q 76 869 58 853 q 119 886 94 886 q 162 869 144 886 q 179 828 179 853 q 162 787 181 804 q 118 769 143 769 z "},"ȷ":{"ha":238,"x_min":-76,"x_max":172,"o":"m -35 -154 q -57 -153 -42 -154 q -76 -150 -72 -151 l -76 -93 q -56 -94 -69 -93 q -32 -93 -42 -94 q 42 -73 15 -92 q 68 -7 68 -54 l 68 688 l 172 688 l 172 18 q 143 -96 172 -58 q 67 -145 114 -133 q -35 -154 21 -157 z "},"ј":{"ha":238,"x_min":-76,"x_max":181,"o":"m -35 -154 q -57 -153 -42 -154 q -76 -150 -72 -151 l -76 -93 q -56 -94 -69 -93 q -32 -93 -42 -94 q 42 -73 15 -92 q 68 -7 68 -54 l 68 688 l 172 688 l 172 18 q 143 -96 172 -58 q 67 -145 114 -133 q -35 -154 21 -157 m 118 769 q 76 787 94 769 q 58 828 58 804 q 76 869 58 853 q 119 886 94 886 q 162 869 144 886 q 179 828 179 853 q 162 787 181 804 q 118 769 143 769 z "},"k":{"ha":483,"x_min":68,"x_max":465,"o":"m 351 0 l 192 399 l 358 688 l 464 688 l 294 399 l 465 0 l 351 0 m 68 0 l 68 881 l 172 881 l 172 0 l 68 0 z "},"к":{"ha":506,"x_min":56,"x_max":469,"o":"m 56 0 l 56 688 l 161 688 l 161 403 q 253 544 200 483 q 363 639 306 606 q 469 671 421 672 l 469 599 q 404 569 433 590 q 351 522 375 549 q 320 484 335 504 q 293 442 306 464 l 465 0 l 344 0 l 203 326 q 178 283 190 307 q 161 249 167 260 l 161 0 l 56 0 z "},"ķ":{"ha":483,"x_min":68,"x_max":465,"o":"m 351 0 l 192 399 l 358 688 l 464 688 l 294 399 l 465 0 l 351 0 m 68 0 l 68 881 l 172 881 l 172 0 l 68 0 m 193 -236 q 221 -186 210 -210 q 232 -146 232 -162 q 224 -131 232 -137 q 209 -117 217 -125 q 201 -93 201 -108 q 216 -65 201 -78 q 251 -53 231 -53 q 290 -67 275 -53 q 304 -101 304 -82 q 294 -142 304 -118 q 269 -192 283 -167 q 238 -236 254 -217 l 193 -236 z "},"ќ":{"ha":506,"x_min":56,"x_max":469,"o":"m 56 0 l 56 688 l 161 688 l 161 403 q 253 544 200 483 q 363 639 306 606 q 469 671 421 672 l 469 599 q 404 569 433 590 q 351 522 375 549 q 320 484 335 504 q 293 442 306 464 l 465 0 l 344 0 l 203 326 q 178 283 190 307 q 161 249 167 260 l 161 0 l 56 0 m 196 758 l 275 890 l 382 890 l 263 758 l 196 758 z "},"l":{"ha":240,"x_min":68,"x_max":172,"o":"m 68 0 l 68 881 l 172 881 l 172 0 l 68 0 z "},"ĺ":{"ha":240,"x_min":49,"x_max":264,"o":"m 68 0 l 68 881 l 172 881 l 172 0 l 68 0 m 49 935 l 160 1054 l 264 1054 l 114 935 l 49 935 z "},"ľ":{"ha":300,"x_min":68,"x_max":315,"o":"m 68 0 l 68 881 l 172 881 l 172 0 l 68 0 m 219 714 l 247 899 l 315 899 l 260 714 l 219 714 z "},"ļ":{"ha":240,"x_min":60,"x_max":172,"o":"m 68 0 l 68 881 l 172 881 l 172 0 l 68 0 m 60 -236 q 88 -186 76 -210 q 99 -146 99 -162 q 91 -131 99 -137 q 76 -117 83 -125 q 68 -93 68 -108 q 83 -65 68 -78 q 118 -53 97 -53 q 156 -67 142 -53 q 171 -101 171 -82 q 160 -142 171 -118 q 135 -192 150 -167 q 104 -236 121 -217 l 60 -236 z "},"←":{"ha":1115,"x_min":58,"x_max":1054,"o":"m 400 75 l 58 376 l 400 681 l 453 629 l 236 421 l 1054 418 l 1054 335 l 238 336 l 451 126 l 400 75 z "},"↔":{"ha":1368,"x_min":57,"x_max":1308,"o":"m 403 81 l 57 383 l 403 686 l 454 635 l 239 426 l 1126 426 l 911 635 l 964 686 l 1308 383 l 964 81 l 911 132 l 1125 340 l 242 340 l 454 132 l 403 81 z "},"<":{"ha":465,"x_min":67,"x_max":399,"o":"m 399 196 l 67 421 l 67 489 l 399 715 l 399 614 l 157 453 l 399 296 l 399 196 z "},"≤":{"ha":450,"x_min":60,"x_max":393,"o":"m 392 196 l 60 422 l 60 489 l 392 715 l 392 615 l 150 456 l 392 297 l 392 196 m 393 -4 l 69 -4 l 69 71 l 393 71 l 393 -4 z "},"љ":{"ha":857,"x_min":22,"x_max":801,"o":"m 22 0 l 22 58 q 69 85 49 58 q 93 163 89 113 l 136 686 l 506 686 l 506 471 l 638 471 q 733 453 697 471 q 785 397 768 435 q 801 300 801 360 l 801 226 q 792 122 801 165 q 763 52 783 79 q 710 13 743 25 q 625 0 676 0 l 397 0 l 397 610 l 243 610 l 199 133 q 194 92 197 115 q 179 49 190 69 q 146 14 168 28 q 85 0 124 0 l 22 0 m 506 58 l 603 58 q 664 74 644 58 q 690 117 683 89 q 696 179 696 144 l 696 282 q 691 343 696 315 q 666 388 686 371 q 601 404 646 404 l 506 404 l 506 58 z "},"¬":{"ha":774,"x_min":61,"x_max":717,"o":"m 644 228 l 644 485 l 61 485 l 61 563 l 717 563 l 717 228 l 644 228 z "},"ſ":{"ha":483,"x_min":11,"x_max":451,"o":"m 119 -201 q 63 -200 92 -201 q 11 -194 33 -199 l 11 -136 l 50 -139 q 78 -137 64 -139 q 107 -133 93 -136 q 147 -107 135 -131 q 158 -60 158 -83 l 158 544 l 110 544 l 110 611 l 158 611 l 158 740 q 178 825 158 794 q 235 868 199 856 q 318 881 271 881 q 388 875 354 881 q 451 863 421 869 l 440 800 q 384 811 411 807 q 324 815 357 815 q 277 785 289 815 q 265 725 265 754 l 265 -25 q 247 -123 265 -85 q 197 -180 229 -161 q 119 -201 165 -199 z "},"◊":{"ha":661,"x_min":58,"x_max":603,"o":"m 292 -49 l 58 406 l 292 858 l 369 858 l 603 406 l 369 -49 l 292 -49 m 332 54 l 504 408 l 332 754 l 157 406 l 332 54 z "},"ł":{"ha":392,"x_min":50,"x_max":343,"o":"m 143 0 l 143 240 l 50 199 l 50 251 l 143 293 l 143 881 l 246 881 l 246 340 l 343 383 l 343 331 l 246 288 l 246 0 l 143 0 z "},"m":{"ha":793,"x_min":68,"x_max":738,"o":"m 68 0 l 68 688 l 157 688 l 167 608 q 217 673 182 649 q 304 697 253 697 q 416 664 383 697 q 451 567 449 631 l 436 567 q 487 660 447 624 q 588 697 526 697 q 706 656 674 697 q 738 532 738 615 l 738 0 l 632 0 l 632 517 q 614 599 632 576 q 551 621 596 621 q 485 598 513 621 q 454 540 458 575 l 454 0 l 349 0 l 349 525 q 331 599 349 576 q 268 621 314 621 q 206 601 228 621 q 174 556 183 582 l 174 0 l 68 0 z "},"¯":{"ha":293,"x_min":14,"x_max":279,"o":"m 14 783 l 14 840 l 279 840 l 279 783 l 14 783 z "},"̄":{"ha":0,"x_min":14,"x_max":279,"o":"m 14 783 l 14 840 l 279 840 l 279 783 l 14 783 z "},"µ":{"ha":507,"x_min":58,"x_max":450,"o":"m 58 -179 l 58 688 l 164 688 l 164 132 q 197 83 174 100 q 258 65 221 65 q 303 72 285 65 q 333 102 322 79 q 344 171 344 125 l 344 688 l 450 688 l 450 172 q 438 69 450 110 q 392 10 425 29 q 294 -10 358 -10 q 213 12 251 -10 q 157 76 174 33 l 147 -179 l 58 -179 z "},"−":{"ha":665,"x_min":81,"x_max":536,"o":"m 81 315 l 81 393 l 536 393 l 536 315 l 81 315 z "},"×":{"ha":513,"x_min":58,"x_max":454,"o":"m 400 165 l 256 308 l 119 172 l 64 228 l 200 364 l 58 507 l 114 563 l 256 419 l 393 558 l 449 501 l 313 364 l 454 219 l 400 165 z "},"n":{"ha":518,"x_min":68,"x_max":461,"o":"m 68 0 l 68 688 l 156 688 l 167 611 q 219 677 182 656 q 301 699 257 699 q 406 674 372 699 q 451 608 440 649 q 461 517 461 567 l 461 0 l 356 0 l 356 506 q 354 549 356 528 q 344 586 353 569 q 318 613 336 603 q 265 622 300 622 q 215 611 235 622 q 187 585 196 600 q 174 557 178 569 l 174 0 l 68 0 z "},"ń":{"ha":518,"x_min":68,"x_max":461,"o":"m 68 0 l 68 688 l 156 688 l 167 611 q 219 677 182 656 q 301 699 257 699 q 406 674 372 699 q 451 608 440 649 q 461 517 461 567 l 461 0 l 356 0 l 356 506 q 354 549 356 528 q 344 586 353 569 q 318 613 336 603 q 265 622 300 622 q 215 611 235 622 q 187 585 196 600 q 174 557 178 569 l 174 0 l 68 0 m 203 758 l 282 890 l 389 890 l 269 758 l 203 758 z "},"ň":{"ha":518,"x_min":68,"x_max":461,"o":"m 68 0 l 68 688 l 156 688 l 167 611 q 219 677 182 656 q 301 699 257 699 q 406 674 372 699 q 451 608 440 649 q 461 517 461 567 l 461 0 l 356 0 l 356 506 q 354 549 356 528 q 344 586 353 569 q 318 613 336 603 q 265 622 300 622 q 215 611 235 622 q 187 585 196 600 q 174 557 178 569 l 174 0 l 68 0 m 226 758 l 100 892 l 169 892 l 260 808 l 353 892 l 419 892 l 293 758 l 226 758 z "},"ņ":{"ha":518,"x_min":68,"x_max":461,"o":"m 68 0 l 68 688 l 156 688 l 167 611 q 219 677 182 656 q 301 699 257 699 q 406 674 372 699 q 451 608 440 649 q 461 517 461 567 l 461 0 l 356 0 l 356 506 q 354 549 356 528 q 344 586 353 569 q 318 613 336 603 q 265 622 300 622 q 215 611 235 622 q 187 585 196 600 q 174 557 178 569 l 174 0 l 68 0 m 201 -236 q 229 -186 218 -210 q 240 -146 240 -162 q 233 -131 240 -137 q 217 -117 225 -125 q 210 -93 210 -108 q 224 -65 210 -78 q 260 -53 239 -53 q 298 -67 283 -53 q 313 -101 313 -82 q 302 -142 313 -118 q 277 -192 292 -167 q 246 -236 263 -217 l 201 -236 z "},"њ":{"ha":811,"x_min":56,"x_max":756,"o":"m 56 0 l 56 688 l 161 688 l 161 400 l 354 400 l 354 688 l 458 688 l 458 471 l 592 471 q 686 453 650 471 q 739 397 722 435 q 756 300 756 360 l 756 226 q 747 122 756 165 q 717 52 738 79 q 663 13 696 25 q 579 0 629 0 l 354 0 l 354 319 l 161 319 l 161 0 l 56 0 m 458 58 l 557 58 q 618 74 599 58 q 644 117 638 89 q 650 179 650 144 l 650 282 q 645 343 650 315 q 620 388 640 371 q 556 404 600 404 l 458 404 l 458 58 z "},"↗":{"ha":814,"x_min":33,"x_max":769,"o":"m 94 100 l 33 161 l 613 736 l 314 735 l 314 807 l 769 835 l 742 378 l 668 378 l 674 678 l 94 100 z "},"↖":{"ha":838,"x_min":64,"x_max":799,"o":"m 739 85 l 163 663 l 167 365 l 92 365 l 64 821 l 522 793 l 522 719 l 222 725 l 799 144 l 739 85 z "},"≠":{"ha":568,"x_min":63,"x_max":508,"o":"m 63 -14 l 182 211 l 82 211 l 82 286 l 224 286 l 336 501 l 82 501 l 82 576 l 376 576 l 453 724 l 508 724 l 431 576 l 508 576 l 508 501 l 390 501 l 276 286 l 508 286 l 508 211 l 236 211 l 117 -14 l 63 -14 z "},"ñ":{"ha":518,"x_min":68,"x_max":461,"o":"m 68 0 l 68 688 l 156 688 l 167 611 q 219 677 182 656 q 301 699 257 699 q 406 674 372 699 q 451 608 440 649 q 461 517 461 567 l 461 0 l 356 0 l 356 506 q 354 549 356 528 q 344 586 353 569 q 318 613 336 603 q 265 622 300 622 q 215 611 235 622 q 187 585 196 600 q 174 557 178 569 l 174 0 l 68 0 m 321 768 q 287 775 301 768 q 253 793 272 782 q 225 810 240 801 q 193 818 210 818 q 165 806 176 818 q 151 769 154 793 l 114 769 q 137 842 115 814 q 194 871 158 871 q 232 863 215 871 q 265 844 249 856 q 294 829 281 836 q 321 822 307 822 q 350 834 339 822 q 365 868 361 846 l 406 868 q 392 814 404 836 q 360 780 379 792 q 321 768 342 768 z "},"#":{"ha":972,"x_min":56,"x_max":917,"o":"m 178 0 l 260 256 l 56 256 l 75 322 l 279 322 l 346 531 l 140 532 l 161 597 l 367 597 l 429 796 l 496 796 l 433 597 l 650 597 l 713 796 l 781 796 l 717 597 l 917 597 l 896 531 l 696 531 l 631 322 l 832 322 l 811 256 l 610 256 l 529 0 l 461 0 l 542 256 l 326 256 l 246 0 l 178 0 m 347 322 l 563 322 l 628 531 l 413 531 l 347 322 z "},"o":{"ha":497,"x_min":53,"x_max":446,"o":"m 250 -10 q 129 13 172 -10 q 69 81 86 35 q 53 199 53 128 l 53 511 q 69 610 53 568 q 128 676 85 653 q 250 699 171 699 q 370 676 328 699 q 429 610 413 653 q 446 511 446 568 l 446 199 q 428 81 446 128 q 368 13 411 35 q 250 -10 325 -10 m 250 54 q 310 71 292 54 q 335 115 329 88 q 340 171 340 142 l 340 518 q 335 575 340 549 q 310 618 329 601 q 250 635 292 635 q 188 618 208 635 q 163 575 168 601 q 158 518 158 549 l 158 171 q 163 115 158 142 q 188 71 168 88 q 250 54 208 54 z "},"о":{"ha":497,"x_min":53,"x_max":446,"o":"m 250 -10 q 129 13 172 -10 q 69 81 86 35 q 53 199 53 128 l 53 511 q 69 610 53 568 q 128 676 85 653 q 250 699 171 699 q 370 676 328 699 q 429 610 413 653 q 446 511 446 568 l 446 199 q 428 81 446 128 q 368 13 411 35 q 250 -10 325 -10 m 250 54 q 310 71 292 54 q 335 115 329 88 q 340 171 340 142 l 340 518 q 335 575 340 549 q 310 618 329 601 q 250 635 292 635 q 188 618 208 635 q 163 575 168 601 q 158 518 158 549 l 158 171 q 163 115 158 142 q 188 71 168 88 q 250 54 208 54 z "},"ó":{"ha":497,"x_min":53,"x_max":446,"o":"m 250 -10 q 129 13 172 -10 q 69 81 86 35 q 53 199 53 128 l 53 511 q 69 610 53 568 q 128 676 85 653 q 250 699 171 699 q 370 676 328 699 q 429 610 413 653 q 446 511 446 568 l 446 199 q 428 81 446 128 q 368 13 411 35 q 250 -10 325 -10 m 250 54 q 310 71 292 54 q 335 115 329 88 q 340 171 340 142 l 340 518 q 335 575 340 549 q 310 618 329 601 q 250 635 292 635 q 188 618 208 635 q 163 575 168 601 q 158 518 158 549 l 158 171 q 163 115 158 142 q 188 71 168 88 q 250 54 208 54 m 192 758 l 271 890 l 378 890 l 258 758 l 192 758 z "},"ǒ":{"ha":497,"x_min":53,"x_max":446,"o":"m 250 -10 q 129 13 172 -10 q 69 81 86 35 q 53 199 53 128 l 53 511 q 69 610 53 568 q 128 676 85 653 q 250 699 171 699 q 370 676 328 699 q 429 610 413 653 q 446 511 446 568 l 446 199 q 428 81 446 128 q 368 13 411 35 q 250 -10 325 -10 m 250 54 q 310 71 292 54 q 335 115 329 88 q 340 171 340 142 l 340 518 q 335 575 340 549 q 310 618 329 601 q 250 635 292 635 q 188 618 208 635 q 163 575 168 601 q 158 518 158 549 l 158 171 q 163 115 158 142 q 188 71 168 88 q 250 54 208 54 m 215 758 l 89 892 l 158 892 l 249 808 l 342 892 l 408 892 l 282 758 l 215 758 z "},"ô":{"ha":497,"x_min":53,"x_max":446,"o":"m 250 -10 q 129 13 172 -10 q 69 81 86 35 q 53 199 53 128 l 53 511 q 69 610 53 568 q 128 676 85 653 q 250 699 171 699 q 370 676 328 699 q 429 610 413 653 q 446 511 446 568 l 446 199 q 428 81 446 128 q 368 13 411 35 q 250 -10 325 -10 m 250 54 q 310 71 292 54 q 335 115 329 88 q 340 171 340 142 l 340 518 q 335 575 340 549 q 310 618 329 601 q 250 635 292 635 q 188 618 208 635 q 163 575 168 601 q 158 518 158 549 l 158 171 q 163 115 158 142 q 188 71 168 88 q 250 54 208 54 m 89 758 l 215 892 l 281 892 l 407 758 l 340 758 l 249 842 l 158 758 l 89 758 z "},"ố":{"ha":497,"x_min":53,"x_max":588,"o":"m 250 -10 q 129 13 172 -10 q 69 81 86 35 q 53 199 53 128 l 53 511 q 69 610 53 568 q 128 676 85 653 q 250 699 171 699 q 370 676 328 699 q 429 610 413 653 q 446 511 446 568 l 446 199 q 428 81 446 128 q 368 13 411 35 q 250 -10 325 -10 m 250 54 q 310 71 292 54 q 335 115 329 88 q 340 171 340 142 l 340 518 q 335 575 340 549 q 310 618 329 601 q 250 635 292 635 q 188 618 208 635 q 163 575 168 601 q 158 518 158 549 l 158 171 q 163 115 158 142 q 188 71 168 88 q 250 54 208 54 m 89 758 l 215 892 l 281 892 l 407 758 l 340 758 l 249 842 l 158 758 l 89 758 m 403 832 l 482 964 l 589 964 l 469 832 l 403 832 z "},"ộ":{"ha":497,"x_min":53,"x_max":446,"o":"m 250 -10 q 129 13 172 -10 q 69 81 86 35 q 53 199 53 128 l 53 511 q 69 610 53 568 q 128 676 85 653 q 250 699 171 699 q 370 676 328 699 q 429 610 413 653 q 446 511 446 568 l 446 199 q 428 81 446 128 q 368 13 411 35 q 250 -10 325 -10 m 250 54 q 310 71 292 54 q 335 115 329 88 q 340 171 340 142 l 340 518 q 335 575 340 549 q 310 618 329 601 q 250 635 292 635 q 188 618 208 635 q 163 575 168 601 q 158 518 158 549 l 158 171 q 163 115 158 142 q 188 71 168 88 q 250 54 208 54 m 247 -158 q 210 -143 225 -158 q 196 -108 196 -128 q 210 -73 196 -87 q 247 -58 225 -58 q 284 -73 268 -58 q 300 -108 300 -87 q 284 -143 300 -128 q 247 -158 268 -158 m 89 758 l 215 892 l 281 892 l 407 758 l 340 758 l 249 842 l 158 758 l 89 758 z "},"ồ":{"ha":497,"x_min":53,"x_max":521,"o":"m 250 -10 q 129 13 172 -10 q 69 81 86 35 q 53 199 53 128 l 53 511 q 69 610 53 568 q 128 676 85 653 q 250 699 171 699 q 370 676 328 699 q 429 610 413 653 q 446 511 446 568 l 446 199 q 428 81 446 128 q 368 13 411 35 q 250 -10 325 -10 m 250 54 q 310 71 292 54 q 335 115 329 88 q 340 171 340 142 l 340 518 q 335 575 340 549 q 310 618 329 601 q 250 635 292 635 q 188 618 208 635 q 163 575 168 601 q 158 518 158 549 l 158 171 q 163 115 158 142 q 188 71 168 88 q 250 54 208 54 m 89 758 l 215 892 l 281 892 l 407 758 l 340 758 l 249 842 l 158 758 l 89 758 m 454 832 l 335 964 l 442 964 l 521 832 l 454 832 z "},"ổ":{"ha":497,"x_min":53,"x_max":554,"o":"m 250 -10 q 129 13 172 -10 q 69 81 86 35 q 53 199 53 128 l 53 511 q 69 610 53 568 q 128 676 85 653 q 250 699 171 699 q 370 676 328 699 q 429 610 413 653 q 446 511 446 568 l 446 199 q 428 81 446 128 q 368 13 411 35 q 250 -10 325 -10 m 250 54 q 310 71 292 54 q 335 115 329 88 q 340 171 340 142 l 340 518 q 335 575 340 549 q 310 618 329 601 q 250 635 292 635 q 188 618 208 635 q 163 575 168 601 q 158 518 158 549 l 158 171 q 163 115 158 142 q 188 71 168 88 q 250 54 208 54 m 89 758 l 215 892 l 281 892 l 407 758 l 340 758 l 249 842 l 158 758 l 89 758 m 429 835 l 429 856 q 445 885 429 875 q 476 905 461 896 q 492 932 492 914 l 492 939 q 483 963 492 951 q 456 974 475 974 q 424 942 429 974 l 372 951 q 399 1000 376 983 q 461 1017 421 1017 q 531 1001 508 1017 q 554 939 554 985 l 554 936 q 538 893 554 906 q 504 874 521 881 q 488 850 488 867 l 488 835 l 429 835 z "},"ỗ":{"ha":497,"x_min":53,"x_max":446,"o":"m 250 -10 q 129 13 172 -10 q 69 81 86 35 q 53 199 53 128 l 53 511 q 69 610 53 568 q 128 676 85 653 q 250 699 171 699 q 370 676 328 699 q 429 610 413 653 q 446 511 446 568 l 446 199 q 428 81 446 128 q 368 13 411 35 q 250 -10 325 -10 m 250 54 q 310 71 292 54 q 335 115 329 88 q 340 171 340 142 l 340 518 q 335 575 340 549 q 310 618 329 601 q 250 635 292 635 q 188 618 208 635 q 163 575 168 601 q 158 518 158 549 l 158 171 q 163 115 158 142 q 188 71 168 88 q 250 54 208 54 m 89 758 l 215 892 l 281 892 l 407 758 l 340 758 l 249 842 l 158 758 l 89 758 m 308 922 q 274 929 289 922 q 240 947 260 936 q 213 964 228 956 q 181 972 197 972 q 153 960 164 972 q 139 924 142 947 l 101 924 q 124 997 103 968 q 182 1025 146 1025 q 219 1017 203 1025 q 253 999 236 1010 q 281 983 268 990 q 308 976 294 976 q 338 988 326 976 q 353 1022 349 1000 l 393 1022 q 379 968 392 990 q 348 934 367 946 q 308 922 329 922 z "},"ö":{"ha":497,"x_min":53,"x_max":446,"o":"m 250 -10 q 129 13 172 -10 q 69 81 86 35 q 53 199 53 128 l 53 511 q 69 610 53 568 q 128 676 85 653 q 250 699 171 699 q 370 676 328 699 q 429 610 413 653 q 446 511 446 568 l 446 199 q 428 81 446 128 q 368 13 411 35 q 250 -10 325 -10 m 250 54 q 310 71 292 54 q 335 115 329 88 q 340 171 340 142 l 340 518 q 335 575 340 549 q 310 618 329 601 q 250 635 292 635 q 188 618 208 635 q 163 575 168 601 q 158 518 158 549 l 158 171 q 163 115 158 142 q 188 71 168 88 q 250 54 208 54 m 178 769 q 141 784 156 769 q 126 819 126 799 q 141 853 126 840 q 178 867 156 867 q 213 853 199 867 q 228 819 228 840 q 213 784 228 799 q 178 769 199 769 m 321 769 q 285 784 300 769 q 269 819 269 799 q 285 853 269 840 q 321 867 300 867 q 357 853 343 867 q 371 819 371 840 q 357 784 371 799 q 321 769 343 769 z "},"ọ":{"ha":497,"x_min":53,"x_max":446,"o":"m 250 -10 q 129 13 172 -10 q 69 81 86 35 q 53 199 53 128 l 53 511 q 69 610 53 568 q 128 676 85 653 q 250 699 171 699 q 370 676 328 699 q 429 610 413 653 q 446 511 446 568 l 446 199 q 428 81 446 128 q 368 13 411 35 q 250 -10 325 -10 m 250 54 q 310 71 292 54 q 335 115 329 88 q 340 171 340 142 l 340 518 q 335 575 340 549 q 310 618 329 601 q 250 635 292 635 q 188 618 208 635 q 163 575 168 601 q 158 518 158 549 l 158 171 q 163 115 158 142 q 188 71 168 88 q 250 54 208 54 m 247 -158 q 210 -143 225 -158 q 196 -108 196 -128 q 210 -73 196 -87 q 247 -58 225 -58 q 284 -73 268 -58 q 300 -108 300 -87 q 284 -143 300 -128 q 247 -158 268 -158 z "}}}
